SplineFontDB: 3.2
FontName: Shinsen-Light
FullName: Shinsen Light
FamilyName: Shinsen
Weight: Light
Copyright: Copyright (c) 2021, retr0
UComments: "2021-1-28: Created with FontForge (http://fontforge.org)"
Version: 001.000
ItalicAngle: 0
UnderlinePosition: -120
UnderlineWidth: 60
Ascent: 1000
Descent: 200
InvalidEm: 0
LayerCount: 2
Layer: 0 0 "Back" 1
Layer: 1 0 "Fore" 0
XUID: [1021 774 -246617221 13794]
FSType: 0
OS2Version: 0
OS2_WeightWidthSlopeOnly: 0
OS2_UseTypoMetrics: 1
CreationTime: 1611867349
ModificationTime: 1611901767
PfmFamily: 33
TTFWeight: 300
TTFWidth: 5
LineGap: 108
VLineGap: 0
OS2TypoAscent: 0
OS2TypoAOffset: 1
OS2TypoDescent: 0
OS2TypoDOffset: 1
OS2TypoLinegap: 108
OS2WinAscent: 0
OS2WinAOffset: 1
OS2WinDescent: 0
OS2WinDOffset: 1
HheadAscent: 0
HheadAOffset: 1
HheadDescent: 0
HheadDOffset: 1
OS2Vendor: 'PfEd'
Lookup: 258 0 0 "'kern' Horizontal Kerning in Latin lookup 0" { "'kern' Horizontal Kerning in Latin lookup 0-2" [100,10,2] "'kern' Horizontal Kerning in Latin lookup 0-1" [0,0,3] } ['kern' ('DFLT' <'dflt' > 'latn' <'dflt' > ) ]
MarkAttachClasses: 1
DEI: 91125
LangName: 1033 "" "" "" "" "" "" "" "" "" "" "" "" "" "" "" "" "Shinsen"
Encoding: ISO8859-1
UnicodeInterp: none
NameList: AGL For New Fonts
DisplaySize: -48
AntiAlias: 1
FitToEm: 0
WidthSeparation: 100
WinInfo: 0 39 14
BeginPrivate: 0
EndPrivate
TeXData: 1 0 0 174762 87381 58254 428169 1048576 58254 783286 444596 497025 792723 393216 433062 380633 303038 157286 324010 404750 52429 2506097 1059062 262144
BeginChars: 256 190

StartChar: exclam
Encoding: 33 33 0
Width: 155
Flags: HMW
LayerCount: 2
Fore
SplineSet
55 200 m 1
 55 790 l 1
 100 790 l 1
 100 200 l 1
 55 200 l 1
50 27.5 m 0
 50 42.6875 62.3125 55 77.5 55 c 0
 92.6875 55 105 42.6875 105 27.5 c 0
 105 12.3125 92.6875 0 77.5 0 c 0
 62.3125 0 50 12.3125 50 27.5 c 0
EndSplineSet
Validated: 1
EndChar

StartChar: quotedbl
Encoding: 34 34 1
Width: 240
Flags: HMW
LayerCount: 2
Fore
SplineSet
145 600 m 1
 145 790 l 1
 190 790 l 1
 190 600 l 1
 145 600 l 1
50 600 m 1
 50 790 l 1
 95 790 l 1
 95 600 l 1
 50 600 l 1
EndSplineSet
Validated: 1
EndChar

StartChar: numbersign
Encoding: 35 35 2
Width: 550
Flags: HMW
LayerCount: 2
Fore
SplineSet
403.75 590 m 1
 388.349609375 430 l 1
 500 430 l 1
 500 385 l 1
 384.009765625 385 l 1
 367.650390625 215 l 1
 450 215 l 1
 450 170 l 1
 363.3203125 170 l 1
 347.919921875 10 l 1
 302.919921875 10 l 1
 318.3203125 170 l 1
 206.650390625 170 l 1
 191.25 10 l 1
 146.25 10 l 1
 161.650390625 170 l 1
 50 170 l 1
 50 215 l 1
 165.990234375 215 l 1
 182.349609375 385 l 1
 100 385 l 1
 100 430 l 1
 186.6796875 430 l 1
 202.080078125 590 l 1
 247.080078125 590 l 1
 231.6796875 430 l 1
 343.349609375 430 l 1
 358.75 590 l 1
 403.75 590 l 1
322.650390625 215 m 1
 339.009765625 385 l 1
 227.33984375 385 l 1
 210.98046875 215 l 1
 322.650390625 215 l 1
EndSplineSet
Validated: 1
EndChar

StartChar: dollar
Encoding: 36 36 3
Width: 500
Flags: HMW
LayerCount: 2
Fore
SplineSet
413.66015625 349.860351562 m 0
 419.349609375 341.83984375 424.450195312 333.389648438 428.860351562 324.599609375 c 0
 442.76953125 296.870117188 450 266.009765625 450 235 c 2
 450 200 l 2
 450 97.150390625 372.370117188 12.4501953125 272.5 1.26953125 c 1
 272.5 -90 l 1
 227.5 -90 l 1
 227.5 1.26953125 l 1
 127.629882812 12.4501953125 50 97.150390625 50 200 c 1
 95 200 l 1
 95 122.040039062 152.559570312 57.5302734375 227.5 46.6298828125 c 1
 227.5 391.830078125 l 1
 217.219726562 393.200195312 207.009765625 394.919921875 196.969726562 397.559570312 c 0
 141.530273438 412.120117188 96.150390625 454.780273438 74.3798828125 507.360351562 c 0
 64.8701171875 530.33984375 60 555.139648438 60 580 c 2
 60 580 60 610 60 610 c 2
 60 707.3203125 133.1796875 787.540039062 227.5 798.669921875 c 1
 227.5 890 l 1
 272.5 890 l 1
 272.5 798.669921875 l 1
 366.8203125 787.540039062 440 707.3203125 440 610 c 2
 440 600 l 1
 395 600 l 1
 395 610 l 2
 395 682.4296875 341.889648438 742.450195312 272.5 753.259765625 c 1
 272.5 433.110351562 l 1
 282.240234375 431.700195312 291.870117188 430.009765625 301.209960938 427.620117188 c 0
 346.379882812 416.0703125 386.709960938 387.8203125 413.66015625 349.860351562 c 0
157.169921875 467.530273438 m 0
 177.66015625 450.330078125 202.099609375 443.48046875 227.5 439.290039062 c 1
 227.5 753.259765625 l 1
 158.110351562 742.450195312 105 682.4296875 105 610 c 2
 105 610 105 580.009765625 105 580 c 0
 105 537.540039062 124.610351562 494.849609375 157.169921875 467.530273438 c 0
405 200 m 2
 405 200 405 234.990234375 405 235 c 0
 405 295.290039062 366.490234375 358.76953125 307.98046875 378.33984375 c 0
 296.780273438 382.080078125 285.169921875 384.490234375 273.509765625 386.240234375 c 0
 273.169921875 386.290039062 272.83984375 386.330078125 272.5 386.379882812 c 1
 272.5 46.6298828125 l 1
 347.440429688 57.5302734375 405 122.040039062 405 200 c 2
EndSplineSet
Validated: 1
EndChar

StartChar: percent
Encoding: 37 37 4
Width: 610
Flags: HMW
LayerCount: 2
Fore
SplineSet
550 790 m 1
 105 10 l 1
 60 10 l 1
 505 790 l 1
 550 790 l 1
175 550 m 0
 105.959960938 550 50 605.959960938 50 675 c 0
 50 744.040039062 105.959960938 800 175 800 c 0
 244.040039062 800 300 744.040039062 300 675 c 0
 300 605.959960938 244.040039062 550 175 550 c 0
175 760 m 0
 128.049804688 760 90 721.950195312 90 675 c 0
 90 628.049804688 128.049804688 590 175 590 c 0
 221.950195312 590 260 628.049804688 260 675 c 0
 260 721.950195312 221.950195312 760 175 760 c 0
435 250 m 0
 504.040039062 250 560 194.040039062 560 125 c 0
 560 55.9599609375 504.040039062 0 435 0 c 0
 365.959960938 0 310 55.9599609375 310 125 c 0
 310 194.040039062 365.959960938 250 435 250 c 0
435 40 m 0
 481.950195312 40 520 78.0498046875 520 125 c 0
 520 171.950195312 481.950195312 210 435 210 c 0
 388.049804688 210 350 171.950195312 350 125 c 0
 350 78.0498046875 388.049804688 40 435 40 c 0
EndSplineSet
Validated: 1
EndChar

StartChar: ampersand
Encoding: 38 38 5
Width: 578
Flags: HMW
LayerCount: 2
Fore
SplineSet
327.5 390 m 1
 327.5 435 l 1
 527.5 435 l 1
 527.5 390 l 1
 450 390 l 1
 450 200 l 2
 450 89.5400390625 360.459960938 0 250 0 c 0
 187.490234375 0 131.669921875 28.6796875 95 73.599609375 c 0
 66.8701171875 108.049804688 50 152.049804688 50 200 c 2
 50 235 l 2
 50 282.950195312 66.8701171875 326.950195312 95 361.400390625 c 0
 103.540039062 371.870117188 113.129882812 381.459960938 123.599609375 390 c 0
 134.139648438 398.610351562 145.580078125 406.16015625 157.75 412.5 c 1
 145.580078125 418.83984375 134.139648438 426.389648438 123.599609375 435 c 0
 113.129882812 443.540039062 103.540039062 453.129882812 95 463.599609375 c 0
 66.8701171875 498.049804688 50 542.049804688 50 590 c 2
 50 600 l 2
 50 647.950195312 66.8701171875 691.950195312 95 726.400390625 c 0
 131.669921875 771.3203125 187.490234375 800 250 800 c 0
 360.459960938 800 450 710.459960938 450 600 c 1
 405 600 l 1
 405 685.599609375 335.599609375 755 250 755 c 0
 164.400390625 755 95 685.599609375 95 600 c 2
 95 590 l 2
 95 504.400390625 164.400390625 435 250 435 c 1
 250 390 l 1
 164.400390625 390 95 320.599609375 95 235 c 2
 95 200 l 2
 95 114.400390625 164.400390625 45 250 45 c 0
 335.599609375 45 405 114.400390625 405 200 c 2
 405 390 l 1
 327.5 390 l 1
EndSplineSet
EndChar

StartChar: quotesingle
Encoding: 39 39 6
Width: 145
Flags: HMW
LayerCount: 2
Fore
SplineSet
50 600 m 1
 50 790 l 1
 95 790 l 1
 95 600 l 1
 50 600 l 1
EndSplineSet
Validated: 1
EndChar

StartChar: parenleft
Encoding: 40 40 7
Width: 300
Flags: HMW
LayerCount: 2
Fore
SplineSet
250 -100 m 1
 187.490234375 -100 131.669921875 -71.3203125 95 -26.400390625 c 0
 66.8701171875 8.0498046875 50 52.0498046875 50 100 c 2
 50 700 l 2
 50 747.950195312 66.8701171875 791.950195312 95 826.400390625 c 0
 131.669921875 871.3203125 187.490234375 900 250 900 c 1
 250 855 l 1
 164.389648438 855 95 785.599609375 95 700 c 2
 95 100 l 2
 95 14.400390625 164.389648438 -55 250 -55 c 1
 250 -100 l 1
EndSplineSet
Validated: 1
EndChar

StartChar: parenright
Encoding: 41 41 8
Width: 300
Flags: HMW
LayerCount: 2
Fore
SplineSet
205 -26.400390625 m 0
 168.330078125 -71.3203125 112.509765625 -100 50 -100 c 1
 50 -55 l 1
 135.610351562 -55 205 14.400390625 205 100 c 2
 205 700 l 2
 205 785.599609375 135.610351562 855 50 855 c 1
 50 900 l 1
 112.509765625 900 168.330078125 871.3203125 205 826.400390625 c 0
 233.129882812 791.950195312 250 747.950195312 250 700 c 2
 250 100 l 2
 250 52.0498046875 233.129882812 8.0498046875 205 -26.400390625 c 0
EndSplineSet
Validated: 1
EndChar

StartChar: asterisk
Encoding: 42 42 9
Width: 466
Flags: HMW
LayerCount: 2
Fore
SplineSet
416 672.6796875 m 1
 272.959960938 590 l 1
 416 507.3203125 l 1
 396.01953125 472.6796875 l 1
 252.98046875 555.360351562 l 1
 252.98046875 390 l 1
 213.01953125 390 l 1
 213.01953125 555.360351562 l 1
 69.98046875 472.6796875 l 1
 50 507.3203125 l 1
 193.040039062 590 l 1
 50 672.6796875 l 1
 69.98046875 707.3203125 l 1
 213.01953125 624.639648438 l 1
 213.01953125 790 l 1
 252.98046875 790 l 1
 252.98046875 624.639648438 l 1
 396.01953125 707.3203125 l 1
 416 672.6796875 l 1
EndSplineSet
Validated: 1
EndChar

StartChar: plus
Encoding: 43 43 10
Width: 500
Flags: HMW
LayerCount: 2
Fore
SplineSet
272.5 540 m 1
 272.5 362.5 l 1
 450 362.5 l 1
 450 317.5 l 1
 272.5 317.5 l 1
 272.5 140 l 1
 227.5 140 l 1
 227.5 317.5 l 1
 50 317.5 l 1
 50 362.5 l 1
 227.5 362.5 l 1
 227.5 540 l 1
 272.5 540 l 1
EndSplineSet
Validated: 1
EndChar

StartChar: comma
Encoding: 44 44 11
Width: 190
Flags: HMW
LayerCount: 2
Fore
SplineSet
95 -100 m 1
 50 -100 l 1
 95 100 l 1
 140 100 l 1
 95 -100 l 1
EndSplineSet
Validated: 1
EndChar

StartChar: hyphen
Encoding: 45 45 12
Width: 400
Flags: HMW
LayerCount: 2
Fore
SplineSet
50 317.5 m 1
 50 362.5 l 1
 350 362.5 l 1
 350 317.5 l 1
 50 317.5 l 1
EndSplineSet
Validated: 1
EndChar

StartChar: period
Encoding: 46 46 13
Width: 155
Flags: HMW
LayerCount: 2
Fore
SplineSet
50 27.5 m 0
 50 42.6875 62.3125 55 77.5 55 c 0
 92.6875 55 105 42.6875 105 27.5 c 0
 105 12.3125 92.6875 0 77.5 0 c 0
 62.3125 0 50 12.3125 50 27.5 c 0
EndSplineSet
Validated: 1
EndChar

StartChar: slash
Encoding: 47 47 14
Width: 500
Flags: HMW
LayerCount: 2
Fore
SplineSet
50 10 m 1
 405 790 l 1
 450 790 l 1
 95 10 l 1
 50 10 l 1
EndSplineSet
Validated: 1
EndChar

StartChar: zero
Encoding: 48 48 15
Width: 500
Flags: HMW
LayerCount: 2
Fore
SplineSet
250 800 m 0
 312.509765625 800 368.330078125 771.3203125 405 726.400390625 c 0
 433.129882812 691.950195312 450 647.950195312 450 600 c 2
 450 200 l 2
 450 152.049804688 433.129882812 108.049804688 405 73.599609375 c 0
 368.330078125 28.6796875 312.509765625 0 250 0 c 0
 187.490234375 0 131.669921875 28.6796875 95 73.599609375 c 0
 66.8701171875 108.049804688 50 152.049804688 50 200 c 2
 50 600 l 2
 50 647.950195312 66.8701171875 691.950195312 95 726.400390625 c 0
 131.669921875 771.3203125 187.490234375 800 250 800 c 0
405 200 m 2
 405 600 l 2
 405 685.599609375 335.599609375 755 250 755 c 0
 164.400390625 755 95 685.599609375 95 600 c 2
 95 200 l 2
 95 114.400390625 164.400390625 45 250 45 c 0
 335.599609375 45 405 114.400390625 405 200 c 2
EndSplineSet
Validated: 1
EndChar

StartChar: one
Encoding: 49 49 16
Width: 350
Flags: HMW
LayerCount: 2
Fore
SplineSet
255 10 m 1
 255 723 l 1
 50 600 l 1
 50 650 l 1
 255 773 l 1
 300 800 l 1
 300 750 l 1
 300 10 l 1
 255 10 l 1
EndSplineSet
Validated: 1
EndChar

StartChar: two
Encoding: 50 50 17
Width: 500
Flags: HMW
LayerCount: 2
Fore
SplineSet
313.459960938 380.41015625 m 2
 223.379882812 329.5 159.26953125 255.75 122.91015625 161.209960938 c 0
 105.879882812 116.919921875 99.240234375 78.1298828125 96.650390625 55 c 1
 450 55 l 1
 450 10 l 1
 50 10 l 1
 50 32.5 l 2
 50 35.08984375 50.33984375 96.919921875 80.2099609375 175.5 c 0
 97.7197265625 221.58984375 121.83984375 264.080078125 151.900390625 301.76953125 c 0
 189.349609375 348.75 236.110351562 388.290039062 290.870117188 419.3203125 c 0
 337.709960938 448.75 371.129882812 487.900390625 390.1796875 535.700195312 c 0
 404.599609375 571.870117188 405 599.809570312 405 600.08984375 c 0
 405 685.469726562 335.469726562 755 250 755 c 0
 164.530273438 755 95 685.469726562 95 600 c 1
 50 600 l 1
 50 710.280273438 139.719726562 800 250 800 c 0
 360.280273438 800 450 710.280273438 450 600 c 0
 450 598.58984375 449.799804688 564.849609375 432.830078125 521.200195312 c 0
 417.3203125 481.330078125 384.1796875 424.639648438 314.3203125 380.919921875 c 2
 313.459960938 380.41015625 l 2
EndSplineSet
Validated: 1
EndChar

StartChar: three
Encoding: 51 51 18
Width: 500
Flags: HMW
LayerCount: 2
Fore
SplineSet
250 800 m 0
 312.509765625 800 368.330078125 771.3203125 405 726.400390625 c 0
 433.129882812 691.950195312 450 647.950195312 450 600 c 2
 450 590 l 2
 450 542.049804688 433.129882812 498.049804688 405 463.599609375 c 0
 396.459960938 453.129882812 386.870117188 443.540039062 376.400390625 435 c 0
 365.860351562 426.389648438 354.419921875 418.83984375 342.25 412.5 c 1
 354.419921875 406.16015625 365.860351562 398.610351562 376.400390625 390 c 0
 386.870117188 381.459960938 396.459960938 371.870117188 405 361.400390625 c 0
 433.129882812 326.950195312 450 282.950195312 450 235 c 2
 450 200 l 2
 450 152.049804688 433.129882812 108.049804688 405 73.599609375 c 0
 368.330078125 28.6796875 312.509765625 0 250 0 c 0
 139.540039062 0 50 89.5400390625 50 200 c 1
 95 200 l 1
 95 114.400390625 164.400390625 45 250 45 c 0
 335.599609375 45 405 114.400390625 405 200 c 2
 405 235 l 2
 405 320.599609375 335.599609375 390 250 390 c 1
 250 435 l 1
 335.599609375 435 405 504.400390625 405 590 c 2
 405 600 l 2
 405 685.599609375 335.599609375 755 250 755 c 0
 164.400390625 755 95 685.599609375 95 600 c 1
 50 600 l 1
 50 710.459960938 139.540039062 800 250 800 c 0
EndSplineSet
Validated: 1
EndChar

StartChar: four
Encoding: 52 52 19
Width: 500
Flags: HMW
LayerCount: 2
Fore
SplineSet
405 790 m 1
 450 790 l 1
 450 10 l 1
 405 10 l 1
 405 390 l 1
 250 390 l 2
 202.049804688 390 158.049804688 406.870117188 123.599609375 435 c 0
 113.129882812 443.540039062 103.540039062 453.129882812 95 463.599609375 c 0
 66.8701171875 498.049804688 50 542.049804688 50 590 c 2
 50 790 l 1
 95 790 l 1
 95 590 l 2
 95 504.400390625 164.400390625 435 250 435 c 2
 405 435 l 1
 405 790 l 1
EndSplineSet
Validated: 1
EndChar

StartChar: five
Encoding: 53 53 20
Width: 500
Flags: HMW
LayerCount: 2
Fore
SplineSet
50 390 m 1
 50 790.650390625 l 1
 450 790.650390625 l 1
 450 745.650390625 l 1
 95 745.650390625 l 1
 95 435 l 1
 250 435 l 2
 283.26953125 435 314.650390625 426.879882812 342.25 412.5 c 0
 354.419921875 406.16015625 365.860351562 398.610351562 376.400390625 390 c 0
 386.870117188 381.459960938 396.459960938 371.870117188 405 361.400390625 c 0
 433.129882812 326.950195312 450 282.950195312 450 235 c 2
 450 200 l 2
 450 152.049804688 433.129882812 108.049804688 405 73.599609375 c 0
 368.330078125 28.6796875 312.509765625 0 250 0 c 0
 187.490234375 0 131.669921875 28.6796875 95 73.599609375 c 0
 66.8701171875 108.049804688 50 152.049804688 50 200 c 1
 95 200 l 1
 95 114.400390625 164.400390625 45 250 45 c 0
 335.599609375 45 405 114.400390625 405 200 c 2
 405 235 l 2
 405 320.599609375 335.599609375 390 250 390 c 2
 50 390 l 1
EndSplineSet
Validated: 1
EndChar

StartChar: six
Encoding: 54 54 21
Width: 500
Flags: HMW
LayerCount: 2
Fore
SplineSet
250 755 m 0
 164.400390625 755 95 685.599609375 95 600 c 2
 95 361.400390625 l 1
 112.150390625 382.41015625 133.490234375 399.870117188 157.75 412.5 c 0
 185.349609375 426.879882812 216.73046875 435 250 435 c 0
 283.26953125 435 314.650390625 426.879882812 342.25 412.5 c 0
 366.509765625 399.870117188 387.849609375 382.41015625 405 361.400390625 c 0
 433.129882812 326.950195312 450 282.950195312 450 235 c 2
 450 200 l 2
 450 152.049804688 433.129882812 108.049804688 405 73.599609375 c 0
 368.330078125 28.6796875 312.509765625 0 250 0 c 0
 187.490234375 0 131.669921875 28.6796875 95 73.599609375 c 0
 66.8701171875 108.049804688 50 152.049804688 50 200 c 2
 50 600 l 2
 50 647.950195312 66.8701171875 691.950195312 95 726.400390625 c 0
 131.669921875 771.3203125 187.490234375 800 250 800 c 0
 312.509765625 800 368.330078125 771.3203125 405 726.400390625 c 0
 433.129882812 691.950195312 450 647.950195312 450 600 c 1
 405 600 l 1
 405 685.599609375 335.599609375 755 250 755 c 0
250 390 m 0
 164.400390625 390 95 320.599609375 95 235 c 2
 95 200 l 2
 95 114.400390625 164.400390625 45 250 45 c 0
 335.599609375 45 405 114.400390625 405 200 c 2
 405 235 l 2
 405 320.599609375 335.599609375 390 250 390 c 0
EndSplineSet
Validated: 1
EndChar

StartChar: seven
Encoding: 55 55 22
Width: 500
Flags: HMW
LayerCount: 2
Fore
SplineSet
50 745 m 1
 50 790 l 1
 450 790 l 1
 450 745 l 1
 100 10 l 1
 50 10 l 1
 400 745 l 1
 50 745 l 1
EndSplineSet
Validated: 1
EndChar

StartChar: eight
Encoding: 56 56 23
Width: 500
Flags: HMW
LayerCount: 2
Fore
SplineSet
250 800 m 0
 312.509765625 800 368.330078125 771.3203125 405 726.400390625 c 0
 433.129882812 691.950195312 450 647.950195312 450 600 c 2
 450 590 l 2
 450 542.049804688 433.129882812 498.049804688 405 463.599609375 c 0
 387.849609375 442.58984375 366.509765625 425.129882812 342.25 412.5 c 1
 366.509765625 399.870117188 387.849609375 382.41015625 405 361.400390625 c 0
 433.129882812 326.950195312 450 282.950195312 450 235 c 2
 450 200 l 2
 450 152.049804688 433.129882812 108.049804688 405 73.599609375 c 0
 368.330078125 28.6796875 312.509765625 0 250 0 c 0
 187.490234375 0 131.669921875 28.6796875 95 73.599609375 c 0
 66.8701171875 108.049804688 50 152.049804688 50 200 c 2
 50 235 l 2
 50 282.950195312 66.8701171875 326.950195312 95 361.400390625 c 0
 112.150390625 382.41015625 133.490234375 399.870117188 157.75 412.5 c 1
 133.490234375 425.129882812 112.150390625 442.58984375 95 463.599609375 c 0
 66.8701171875 498.049804688 50 542.049804688 50 590 c 2
 50 600 l 2
 50 647.950195312 66.8701171875 691.950195312 95 726.400390625 c 0
 131.669921875 771.3203125 187.490234375 800 250 800 c 0
405 235 m 2
 405 320.599609375 335.599609375 390 250 390 c 0
 164.400390625 390 95 320.599609375 95 235 c 2
 95 200 l 2
 95 114.400390625 164.400390625 45 250 45 c 0
 335.599609375 45 405 114.400390625 405 200 c 2
 405 235 l 2
405 590 m 2
 405 600 l 2
 405 685.599609375 335.599609375 755 250 755 c 0
 164.400390625 755 95 685.599609375 95 600 c 2
 95 590 l 2
 95 504.400390625 164.400390625 435 250 435 c 0
 335.599609375 435 405 504.400390625 405 590 c 2
EndSplineSet
Validated: 1
EndChar

StartChar: nine
Encoding: 57 57 24
Width: 500
Flags: HMW
LayerCount: 2
Fore
SplineSet
250 800 m 0
 312.509765625 800 368.330078125 771.3203125 405 726.400390625 c 0
 433.129882812 691.950195312 450 647.950195312 450 600 c 2
 450 200 l 2
 450 152.049804688 433.129882812 108.049804688 405 73.599609375 c 0
 368.330078125 28.6796875 312.509765625 0 250 0 c 0
 187.490234375 0 131.669921875 28.6796875 95 73.599609375 c 0
 66.8701171875 108.049804688 50 152.049804688 50 200 c 1
 95 200 l 1
 95 114.400390625 164.400390625 45 250 45 c 0
 335.599609375 45 405 114.400390625 405 200 c 2
 405 463.599609375 l 1
 387.849609375 442.58984375 366.509765625 425.129882812 342.25 412.5 c 0
 314.650390625 398.120117188 283.26953125 390 250 390 c 0
 216.73046875 390 185.349609375 398.120117188 157.75 412.5 c 0
 133.490234375 425.129882812 112.150390625 442.58984375 95 463.599609375 c 0
 66.8701171875 498.049804688 50 542.049804688 50 590 c 2
 50 600 l 2
 50 647.950195312 66.8701171875 691.950195312 95 726.400390625 c 0
 131.669921875 771.3203125 187.490234375 800 250 800 c 0
405 590 m 2
 405 600 l 2
 405 685.599609375 335.599609375 755 250 755 c 0
 164.400390625 755 95 685.599609375 95 600 c 2
 95 590 l 2
 95 504.400390625 164.400390625 435 250 435 c 0
 335.599609375 435 405 504.400390625 405 590 c 2
EndSplineSet
Validated: 1
EndChar

StartChar: colon
Encoding: 58 58 25
Width: 155
Flags: HMW
LayerCount: 2
Fore
SplineSet
50 27.5 m 0
 50 42.6875 62.3125 55 77.5 55 c 0
 92.6875 55 105 42.6875 105 27.5 c 0
 105 12.3125 92.6875 0 77.5 0 c 0
 62.3125 0 50 12.3125 50 27.5 c 0
50 417.5 m 0
 50 432.6875 62.3125 445 77.5 445 c 0
 92.6875 445 105 432.6875 105 417.5 c 0
 105 402.3125 92.6875 390 77.5 390 c 0
 62.3125 390 50 402.3125 50 417.5 c 0
EndSplineSet
Validated: 1
EndChar

StartChar: semicolon
Encoding: 59 59 26
Width: 198
Flags: HMW
LayerCount: 2
Fore
SplineSet
140 100 m 1
 95 -100 l 1
 50 -100 l 1
 95 100 l 1
 140 100 l 1
92.5 417.5 m 0
 92.5 432.6875 104.8125 445 120 445 c 0
 135.1875 445 147.5 432.6875 147.5 417.5 c 0
 147.5 402.3125 135.1875 390 120 390 c 0
 104.8125 390 92.5 402.3125 92.5 417.5 c 0
EndSplineSet
EndChar

StartChar: less
Encoding: 60 60 27
Width: 355
Flags: HMW
LayerCount: 2
Fore
SplineSet
250 540 m 1
 305 540 l 1
 105 340 l 1
 305 140 l 1
 250 140 l 1
 50 340 l 1
 250 540 l 1
EndSplineSet
Validated: 1
EndChar

StartChar: equal
Encoding: 61 61 28
Width: 500
Flags: HMW
LayerCount: 2
Fore
SplineSet
50 217.5 m 1
 50 262.5 l 1
 450 262.5 l 1
 450 217.5 l 1
 50 217.5 l 1
50 417.5 m 1
 50 462.5 l 1
 450 462.5 l 1
 450 417.5 l 1
 50 417.5 l 1
EndSplineSet
Validated: 1
EndChar

StartChar: greater
Encoding: 62 62 29
Width: 355
Flags: HMW
LayerCount: 2
Fore
SplineSet
50 540 m 1
 105 540 l 1
 305 340 l 1
 105 140 l 1
 50 140 l 1
 250 340 l 1
 50 540 l 1
EndSplineSet
Validated: 1
EndChar

StartChar: question
Encoding: 63 63 30
Width: 500
Flags: HMW
LayerCount: 2
Fore
SplineSet
222.5 27.5 m 0
 222.5 42.6875 234.8125 55 250 55 c 0
 265.1875 55 277.5 42.6875 277.5 27.5 c 0
 277.5 12.3125 265.1875 0 250 0 c 0
 234.8125 0 222.5 12.3125 222.5 27.5 c 0
250 800 m 0
 360.459960938 800 450 710.459960938 450 600 c 2
 450 590 l 2
 450 487.150390625 372.370117188 402.4296875 272.5 391.25 c 1
 272.5 200 l 1
 227.5 200 l 1
 227.5 436.620117188 l 1
 234.849609375 435.549804688 242.360351562 435 250 435 c 0
 257.639648438 435 265.150390625 435.549804688 272.5 436.620117188 c 0
 347.440429688 447.51953125 405 512.040039062 405 590 c 2
 405 600 l 2
 405 685.599609375 335.599609375 755 250 755 c 0
 164.400390625 755 95 685.599609375 95 600 c 1
 50 600 l 1
 50 710.459960938 139.540039062 800 250 800 c 0
EndSplineSet
Validated: 1
EndChar

StartChar: at
Encoding: 64 64 31
Width: 670
Flags: HMW
LayerCount: 2
Fore
SplineSet
536.530273438 411.530273438 m 0
 562.709960938 385.33984375 583.260742188 354.860351562 597.610351562 320.9296875 c 0
 612.470703125 285.799804688 620 248.48046875 620 210 c 2
 620 106.879882812 l 2
 620 66.25 603.670898438 41.3896484375 589.970703125 27.6904296875 c 0
 572.120117188 9.830078125 548.16015625 0 522.5 0 c 0
 496.840820312 0 472.880859375 9.830078125 455.030273438 27.6904296875 c 0
 452.840820312 29.8798828125 450.720703125 32.2197265625 448.720703125 34.6396484375 c 2
 447.060546875 36.6796875 l 1
 438.630859375 47.009765625 l 1
 428.870117188 37.9404296875 l 1
 426.900390625 36.1201171875 l 2
 419.490234375 29.2197265625 411.270507812 23.1396484375 402.490234375 18.0498046875 c 0
 382.090820312 6.240234375 358.760742188 0 335 0 c 0
 311.240234375 0 287.91015625 6.240234375 267.510742188 18.0498046875 c 0
 247.010742188 29.91015625 229.91015625 47.009765625 218.05078125 67.509765625 c 0
 206.240234375 87.91015625 200 111.240234375 200 135 c 2
 200 210 l 2
 200 233.759765625 206.240234375 257.08984375 218.05078125 277.490234375 c 0
 229.91015625 297.990234375 247.010742188 315.08984375 267.510742188 326.950195312 c 0
 287.91015625 338.759765625 311.240234375 345 335 345 c 0
 358.760742188 345 382.090820312 338.759765625 402.470703125 326.959960938 c 2
 406.220703125 324.780273438 l 1
 425 313.870117188 l 1
 425 337.5 l 1
 425 355 l 1
 470 355 l 1
 470 337.5 l 1
 470 185.759765625 l 1
 470 104.379882812 l 1
 470.030273438 91.8798828125 l 1
 471.140625 91.8798828125 l 1
 476.690429688 57.5400390625 501.360351562 45 522.5 45 c 0
 546.720703125 45 575 61.2099609375 575 106.879882812 c 2
 575 210 l 2
 575 342.33984375 467.340820312 450 335 450 c 0
 202.66015625 450 95 342.33984375 95 210 c 2
 95 135 l 2
 95 2.66015625 202.66015625 -105 335 -105 c 0
 393.990234375 -105 449.91015625 -83.7802734375 493.780273438 -44.990234375 c 1
 525.650390625 -76.8603515625 l 1
 502.020507812 -98.16015625 475.260742188 -115.209960938 445.930664062 -127.610351562 c 0
 410.80078125 -142.469726562 373.48046875 -150 335 -150 c 0
 296.530273438 -150 259.209960938 -142.469726562 224.0703125 -127.610351562 c 0
 190.130859375 -113.25 159.650390625 -92.7001953125 133.48046875 -66.51953125 c 0
 107.30078125 -40.349609375 86.75 -9.8701171875 72.390625 24.0703125 c 0
 57.5302734375 59.2099609375 50 96.5302734375 50 135 c 2
 50 210 l 2
 50 248.48046875 57.5302734375 285.799804688 72.390625 320.9296875 c 0
 86.740234375 354.860351562 107.290039062 385.33984375 133.470703125 411.530273438 c 0
 159.66015625 437.709960938 190.140625 458.259765625 224.0703125 472.610351562 c 0
 259.200195312 487.469726562 296.520507812 495 335 495 c 0
 373.48046875 495 410.80078125 487.469726562 445.930664062 472.610351562 c 0
 479.860351562 458.259765625 510.340820312 437.709960938 536.530273438 411.530273438 c 0
425 135 m 2
 425 185.759765625 l 1
 425 210 l 2
 425 259.629882812 384.630859375 300 335 300 c 0
 285.370117188 300 245 259.629882812 245 210 c 2
 245 135 l 2
 245 85.3701171875 285.370117188 45 335 45 c 0
 384.630859375 45 425 85.3701171875 425 135 c 2
EndSplineSet
Validated: 1
EndChar

StartChar: A
Encoding: 65 65 32
Width: 500
Flags: HMW
LayerCount: 2
Fore
SplineSet
396.51953125 245 m 1
 406.759765625 200 l 1
 450 10 l 1
 405 10 l 1
 361.759765625 200 l 1
 138.240234375 200 l 1
 95 10 l 1
 50 10 l 1
 93.240234375 200 l 1
 103.48046875 245 l 1
 227.5 790 l 1
 272.5 790 l 1
 396.51953125 245 l 1
148.48046875 245 m 1
 351.51953125 245 l 1
 250 691.129882812 l 1
 148.48046875 245 l 1
EndSplineSet
Validated: 1
EndChar

StartChar: B
Encoding: 66 66 33
Width: 500
Flags: HMW
LayerCount: 2
Fore
SplineSet
450 590 m 0
 450 527.490234375 421.3203125 471.669921875 376.400390625 435 c 0
 365.860351562 426.389648438 354.419921875 418.83984375 342.25 412.5 c 1
 354.419921875 406.16015625 365.860351562 398.610351562 376.400390625 390 c 0
 421.3203125 353.330078125 450 297.509765625 450 235 c 2
 450 210 l 2
 450 147.490234375 421.3203125 91.669921875 376.400390625 55 c 0
 341.950195312 26.8701171875 297.950195312 10 250 10 c 2
 95 10 l 1
 50 10 l 1
 50 790 l 1
 95 790 l 1
 250 790 l 2
 297.950195312 790 341.950195312 773.129882812 376.400390625 745 c 0
 421.3203125 708.330078125 450 652.509765625 450 590 c 0
405 235 m 2
 405 320.599609375 335.599609375 390 250 390 c 2
 95 390 l 1
 95 55 l 1
 250 55 l 2
 335.599609375 55 405 124.400390625 405 210 c 2
 405 235 l 2
250 435 m 2
 335.599609375 435 405 504.400390625 405 590 c 0
 405 675.599609375 335.599609375 745 250 745 c 2
 95 745 l 1
 95 435 l 1
 250 435 l 2
EndSplineSet
Validated: 1
EndChar

StartChar: C
Encoding: 67 67 34
Width: 500
Flags: HMW
LayerCount: 2
Fore
SplineSet
250 755 m 0
 164.400390625 755 95 685.599609375 95 600 c 2
 95 200 l 2
 95 114.400390625 164.400390625 45 250 45 c 0
 335.599609375 45 405 114.400390625 405 200 c 1
 450 200 l 1
 450 89.5400390625 360.459960938 0 250 0 c 0
 187.490234375 0 131.669921875 28.6796875 95 73.599609375 c 0
 66.8701171875 108.049804688 50 152.049804688 50 200 c 2
 50 600 l 2
 50 647.950195312 66.8701171875 691.950195312 95 726.400390625 c 0
 131.669921875 771.3203125 187.490234375 800 250 800 c 0
 360.459960938 800 450 710.459960938 450 600 c 1
 405 600 l 1
 405 685.599609375 335.599609375 755 250 755 c 0
EndSplineSet
Validated: 1
EndChar

StartChar: D
Encoding: 68 68 35
Width: 500
Flags: HMW
LayerCount: 2
Fore
SplineSet
376.400390625 745 m 0
 386.870117188 736.459960938 396.459960938 726.870117188 405 716.400390625 c 0
 433.129882812 681.950195312 450 637.950195312 450 590 c 2
 450 210 l 2
 450 162.049804688 433.129882812 118.049804688 405 83.599609375 c 0
 396.459960938 73.1298828125 386.870117188 63.5400390625 376.400390625 55 c 0
 341.950195312 26.8701171875 297.950195312 10 250 10 c 2
 95 10 l 1
 50 10 l 1
 50 790 l 1
 95 790 l 1
 250 790 l 2
 297.950195312 790 341.950195312 773.129882812 376.400390625 745 c 0
405 210 m 2
 405 590 l 2
 405 675.599609375 335.599609375 745 250 745 c 2
 95 745 l 1
 95 55 l 1
 250 55 l 2
 335.599609375 55 405 124.400390625 405 210 c 2
EndSplineSet
Validated: 1
EndChar

StartChar: E
Encoding: 69 69 36
Width: 500
Flags: HMW
LayerCount: 2
Fore
SplineSet
450 10 m 1
 95 10 l 1
 50 10 l 1
 50 55 l 1
 50 390 l 1
 50 435 l 1
 50 745 l 1
 50 790 l 1
 95 790 l 1
 450 790 l 1
 450 745 l 1
 95 745 l 1
 95 435 l 1
 450 435 l 1
 450 390 l 1
 95 390 l 1
 95 55 l 1
 450 55 l 1
 450 10 l 1
EndSplineSet
Validated: 1
EndChar

StartChar: F
Encoding: 70 70 37
Width: 500
Flags: HMW
LayerCount: 2
Fore
SplineSet
50 790 m 1
 95 790 l 1
 450 790 l 1
 450 745 l 1
 95 745 l 1
 95 435 l 1
 450 435 l 1
 450 390 l 1
 95 390 l 1
 95 10 l 1
 50 10 l 1
 50 390 l 1
 50 435 l 1
 50 745 l 1
 50 790 l 1
EndSplineSet
Validated: 1
EndChar

StartChar: G
Encoding: 71 71 38
Width: 500
Flags: HMW
LayerCount: 2
Fore
SplineSet
250 0 m 0
 187.490234375 0 131.669921875 28.6796875 95 73.599609375 c 0
 66.8701171875 108.049804688 50 152.049804688 50 200 c 2
 50 600 l 2
 50 647.950195312 66.8701171875 691.950195312 95 726.400390625 c 0
 131.669921875 771.3203125 187.490234375 800 250 800 c 0
 360.459960938 800 450 710.459960938 450 600 c 1
 405 600 l 1
 405 685.599609375 335.599609375 755 250 755 c 0
 164.400390625 755 95 685.599609375 95 600 c 2
 95 200 l 2
 95 114.400390625 164.400390625 45 250 45 c 0
 335.599609375 45 405 114.400390625 405 200 c 2
 405 390 l 1
 250 390 l 1
 250 435 l 1
 450 435 l 1
 450 200 l 2
 450 89.5400390625 360.459960938 0 250 0 c 0
EndSplineSet
Validated: 1
EndChar

StartChar: H
Encoding: 72 72 39
Width: 500
Flags: HMW
LayerCount: 2
Fore
SplineSet
405 790 m 1
 450 790 l 1
 450 435 l 1
 450 390 l 1
 450 10 l 1
 405 10 l 1
 405 390 l 1
 95 390 l 1
 95 10 l 1
 50 10 l 1
 50 390 l 1
 50 435 l 1
 50 790 l 1
 95 790 l 1
 95 435 l 1
 405 435 l 1
 405 790 l 1
EndSplineSet
Validated: 1
EndChar

StartChar: I
Encoding: 73 73 40
Width: 190
Flags: HMW
LayerCount: 2
Fore
SplineSet
50 55 m 1
 72.5 55 l 1
 72.5 745 l 1
 50 745 l 1
 50 790 l 1
 72.5 790 l 1
 117.5 790 l 1
 140 790 l 1
 140 745 l 1
 117.5 745 l 1
 117.5 55 l 1
 140 55 l 1
 140 10 l 1
 117.5 10 l 1
 72.5 10 l 1
 50 10 l 1
 50 55 l 1
EndSplineSet
Validated: 1
EndChar

StartChar: J
Encoding: 74 74 41
Width: 500
Flags: HMW
LayerCount: 2
Fore
SplineSet
405 199.830078125 m 2
 405 790 l 1
 450 790 l 1
 450 199.830078125 l 2
 450 151.879882812 433.129882812 107.879882812 405 73.4296875 c 0
 368.330078125 28.509765625 312.509765625 -0.169921875 250 -0.169921875 c 0
 139.540039062 -0.169921875 50 89.3701171875 50 199.830078125 c 1
 95 199.830078125 l 1
 95 114.23046875 164.400390625 44.830078125 250 44.830078125 c 0
 335.599609375 44.830078125 405 114.23046875 405 199.830078125 c 2
EndSplineSet
Validated: 1
EndChar

StartChar: K
Encoding: 75 75 42
Width: 500
Flags: HMW
LayerCount: 2
Fore
SplineSet
450 790 m 1
 150 425 l 1
 450 10 l 1
 393 10 l 1
 95 423.610351562 l 1
 95 10 l 1
 50 10 l 1
 50 790 l 1
 95 790 l 1
 95 425 l 1
 395 790 l 1
 450 790 l 1
EndSplineSet
Validated: 1
EndChar

StartChar: L
Encoding: 76 76 43
Width: 500
Flags: HMW
LayerCount: 2
Fore
SplineSet
95 790 m 1
 95 55 l 1
 450 55 l 1
 450 10 l 1
 95 10 l 1
 50 10 l 1
 50 55 l 1
 50 790 l 1
 95 790 l 1
EndSplineSet
Validated: 1
EndChar

StartChar: M
Encoding: 77 77 44
Width: 600
Flags: HMW
LayerCount: 2
Fore
SplineSet
300 429.559570312 m 1
 505 790 l 1
 550 790 l 1
 550 10 l 1
 505 10 l 1
 505 710.879882812 l 1
 322.5 390 l 1
 277.5 390 l 1
 95 710.879882812 l 1
 95 10 l 1
 50 10 l 1
 50 790 l 1
 95 790 l 1
 300 429.559570312 l 1
EndSplineSet
Validated: 1
EndChar

StartChar: N
Encoding: 78 78 45
Width: 500
Flags: HMW
LayerCount: 2
Fore
SplineSet
405 455 m 1
 405 790 l 1
 450 790 l 1
 450 10 l 1
 405 10 l 1
 405 390 l 1
 95 725 l 1
 95 10 l 1
 50 10 l 1
 50 790 l 1
 95 790 l 1
 405 455 l 1
EndSplineSet
Validated: 1
EndChar

StartChar: O
Encoding: 79 79 46
Width: 500
Flags: HMW
LayerCount: 2
Fore
SplineSet
250 0 m 0
 187.490234375 0 131.669921875 28.6796875 95 73.599609375 c 0
 66.8701171875 108.049804688 50 152.049804688 50 200 c 2
 50 600 l 2
 50 647.950195312 66.8701171875 691.950195312 95 726.400390625 c 0
 131.669921875 771.3203125 187.490234375 800 250 800 c 0
 312.509765625 800 368.330078125 771.3203125 405 726.400390625 c 0
 433.129882812 691.950195312 450 647.950195312 450 600 c 2
 450 200 l 2
 450 152.049804688 433.129882812 108.049804688 405 73.599609375 c 0
 368.330078125 28.6796875 312.509765625 0 250 0 c 0
95 600 m 2
 95 200 l 2
 95 114.400390625 164.400390625 45 250 45 c 0
 335.599609375 45 405 114.400390625 405 200 c 2
 405 600 l 2
 405 685.599609375 335.599609375 755 250 755 c 0
 164.400390625 755 95 685.599609375 95 600 c 2
EndSplineSet
Validated: 1
EndChar

StartChar: P
Encoding: 80 80 47
Width: 500
Flags: HMW
LayerCount: 2
Fore
SplineSet
376.400390625 745 m 0
 421.3203125 708.330078125 450 652.509765625 450 590 c 0
 450 527.490234375 421.3203125 471.669921875 376.400390625 435 c 0
 341.950195312 406.870117188 297.950195312 390 250 390 c 2
 95 390 l 1
 95 10 l 1
 50 10 l 1
 50 790 l 1
 95 790 l 1
 250 790 l 2
 297.950195312 790 341.950195312 773.129882812 376.400390625 745 c 0
250 435 m 2
 335.599609375 435 405 504.400390625 405 590 c 0
 405 675.599609375 335.599609375 745 250 745 c 2
 95 745 l 1
 95 435 l 1
 250 435 l 2
EndSplineSet
Validated: 1
EndChar

StartChar: Q
Encoding: 81 81 48
Width: 500
Flags: HMW
LayerCount: 2
Fore
SplineSet
250 800 m 0
 312.509765625 800 368.330078125 771.3203125 405 726.400390625 c 0
 433.129882812 691.950195312 450 647.950195312 450 600 c 2
 450 200.009765625 l 2
 450 152.059570312 433.129882812 108.059570312 405 73.6103515625 c 0
 404.419921875 72.91015625 403.830078125 72.2197265625 403.240234375 71.51953125 c 2
 449.419921875 25.33984375 l 1
 424.669921875 0.58984375 l 1
 378.509765625 46.75 l 1
 343.75 17.5703125 298.9296875 0 250 0 c 0
 187.490234375 0 131.669921875 28.6796875 95 73.599609375 c 0
 66.8701171875 108.049804688 50 152.049804688 50 200 c 2
 50 600 l 2
 50 647.950195312 66.8701171875 691.950195312 95 726.400390625 c 0
 131.669921875 771.3203125 187.490234375 800 250 800 c 0
405 200 m 2
 405 600 l 2
 405 685.599609375 335.599609375 755 250 755 c 0
 164.400390625 755 95 685.599609375 95 600 c 2
 95 200 l 2
 95 114.400390625 164.400390625 45 250 45 c 0
 286.5 45 320.040039062 57.6201171875 346.51953125 78.73046875 c 1
 289.129882812 136.120117188 l 1
 313.879882812 160.870117188 l 1
 371.26953125 103.48046875 l 1
 392.379882812 129.959960938 405 163.5 405 200 c 2
EndSplineSet
Validated: 1
EndChar

StartChar: R
Encoding: 82 82 49
Width: 500
Flags: HMW
LayerCount: 2
Fore
SplineSet
405 463.599609375 m 0
 396.459960938 453.129882812 386.870117188 443.540039062 376.400390625 435 c 0
 365.860351562 426.389648438 354.419921875 418.83984375 342.25 412.5 c 1
 354.419921875 406.16015625 365.860351562 398.610351562 376.400390625 390 c 0
 386.870117188 381.459960938 396.459960938 371.870117188 405 361.400390625 c 0
 433.129882812 326.950195312 450 282.950195312 450 235 c 2
 450 10 l 1
 405 10 l 1
 405 235 l 2
 405 320.599609375 335.599609375 390 250 390 c 2
 95 390 l 1
 95 10 l 1
 50 10 l 1
 50 790 l 1
 95 790 l 1
 250 790 l 2
 297.950195312 790 341.950195312 773.129882812 376.400390625 745 c 0
 386.870117188 736.459960938 396.459960938 726.870117188 405 716.400390625 c 0
 433.129882812 681.950195312 450 637.950195312 450 590 c 0
 450 542.049804688 433.129882812 498.049804688 405 463.599609375 c 0
250 435 m 2
 335.599609375 435 405 504.400390625 405 590 c 0
 405 675.599609375 335.599609375 745 250 745 c 2
 95 745 l 1
 95 435 l 1
 250 435 l 2
EndSplineSet
Validated: 1
EndChar

StartChar: S
Encoding: 83 83 50
Width: 500
Flags: HMW
LayerCount: 2
Fore
SplineSet
413.66015625 349.860351562 m 0
 419.349609375 341.83984375 424.450195312 333.389648438 428.860351562 324.599609375 c 0
 442.76953125 296.870117188 450 266.009765625 450 235 c 2
 450 200 l 2
 450 89.5400390625 360.459960938 0 250 0 c 0
 139.540039062 0 50 89.5400390625 50 200 c 1
 95 200 l 1
 95 114.400390625 164.400390625 45 250 45 c 0
 335.599609375 45 405 114.400390625 405 200 c 2
 405 200 405 234.990234375 405 235 c 0
 405 295.290039062 366.490234375 358.76953125 307.98046875 378.330078125 c 0
 296.780273438 382.0703125 285.169921875 384.48046875 273.509765625 386.23046875 c 0
 247.98046875 390.059570312 221.9296875 391 196.969726562 397.559570312 c 0
 141.530273438 412.120117188 96.150390625 454.780273438 74.3798828125 507.360351562 c 0
 64.8701171875 530.33984375 60 555.139648438 60 580 c 2
 60 610 l 2
 60 714.9296875 145.0703125 800 250 800 c 0
 354.9296875 800 440 714.9296875 440 610 c 2
 440 600 l 1
 395 600 l 1
 395 610 l 2
 395 690.080078125 330.080078125 755 250 755 c 0
 169.919921875 755 105 690.080078125 105 610 c 2
 105 610 105 580.009765625 105 580 c 0
 105 537.540039062 124.610351562 494.849609375 157.169921875 467.530273438 c 0
 197.5 433.690429688 253.129882812 439.91015625 301.209960938 427.620117188 c 0
 346.379882812 416.0703125 386.709960938 387.8203125 413.66015625 349.860351562 c 0
EndSplineSet
Validated: 1
EndChar

StartChar: T
Encoding: 84 84 51
Width: 500
Flags: HMW
LayerCount: 2
Fore
SplineSet
227.5 790 m 1
 272.5 790 l 1
 450 790 l 1
 450 745 l 1
 272.5 745 l 1
 272.5 10 l 1
 227.5 10 l 1
 227.5 745 l 1
 50 745 l 1
 50 790 l 1
 227.5 790 l 1
EndSplineSet
Validated: 1
EndChar

StartChar: U
Encoding: 85 85 52
Width: 500
Flags: HMW
LayerCount: 2
Fore
SplineSet
405 326.400390625 m 1
 405 790 l 1
 450 790 l 1
 450 200 l 2
 450 152.049804688 433.129882812 108.049804688 405 73.599609375 c 0
 368.330078125 28.6796875 312.509765625 0 250 0 c 0
 187.490234375 0 131.669921875 28.6796875 95 73.599609375 c 0
 66.8701171875 108.049804688 50 152.049804688 50 200 c 2
 50 790 l 1
 95 790 l 1
 95 326.400390625 l 1
 95 200 l 2
 95 114.400390625 164.400390625 45 250 45 c 0
 335.599609375 45 405 114.400390625 405 200 c 2
 405 326.400390625 l 1
EndSplineSet
Validated: 1
EndChar

StartChar: V
Encoding: 86 86 53
Width: 500
Flags: HMW
LayerCount: 2
Fore
SplineSet
250 108.870117188 m 1
 405 790 l 1
 450 790 l 1
 272.5 10 l 1
 227.5 10 l 1
 50 790 l 1
 95 790 l 1
 250 108.870117188 l 1
EndSplineSet
Validated: 1
EndChar

StartChar: W
Encoding: 87 87 54
Width: 700
Flags: HMW
LayerCount: 2
Fore
SplineSet
605 272.990234375 m 1
 605 790 l 1
 650 790 l 1
 650 161.25 l 2
 650 117.870117188 632.870117188 78.490234375 605 49.509765625 c 0
 575.669921875 18.990234375 534.4296875 0 488.75 0 c 0
 443.0703125 0 401.830078125 18.990234375 372.5 49.509765625 c 0
 363.919921875 58.4296875 356.349609375 68.33984375 350 79.0498046875 c 1
 343.650390625 68.33984375 336.080078125 58.4296875 327.5 49.509765625 c 0
 298.169921875 18.990234375 256.9296875 0 211.25 0 c 0
 165.5703125 0 124.330078125 18.990234375 95 49.509765625 c 0
 67.1298828125 78.490234375 50 117.870117188 50 161.25 c 2
 50 790 l 1
 95 790 l 1
 95 272.990234375 l 1
 95 161.25 l 2
 95 97.0498046875 147.049804688 45 211.25 45 c 0
 275.450195312 45 327.5 97.0498046875 327.5 161.25 c 2
 327.5 272.990234375 l 1
 327.5 790 l 1
 372.5 790 l 1
 372.5 272.990234375 l 1
 372.5 161.25 l 2
 372.5 97.0498046875 424.549804688 45 488.75 45 c 0
 552.950195312 45 605 97.0498046875 605 161.25 c 2
 605 272.990234375 l 1
EndSplineSet
Validated: 1
EndChar

StartChar: X
Encoding: 88 88 55
Width: 500
Flags: HMW
LayerCount: 2
Fore
SplineSet
405 790 m 1
 450 790 l 1
 272.5 400 l 1
 450 10 l 1
 405 10 l 1
 250 350.559570312 l 1
 95 10 l 1
 50 10 l 1
 227.5 400 l 1
 50 790 l 1
 95 790 l 1
 250 449.440429688 l 1
 405 790 l 1
EndSplineSet
Validated: 1
EndChar

StartChar: Y
Encoding: 89 89 56
Width: 500
Flags: HMW
LayerCount: 2
Fore
SplineSet
272.5 483.940429688 m 1
 405 790 l 1
 450 790 l 1
 272.5 380 l 1
 272.5 10 l 1
 227.5 10 l 1
 227.5 380 l 1
 50 790 l 1
 95 790 l 1
 227.5 483.940429688 l 1
 250 431.969726562 l 1
 272.5 483.940429688 l 1
EndSplineSet
Validated: 1
EndChar

StartChar: Z
Encoding: 90 90 57
Width: 500
Flags: HMW
LayerCount: 2
Fore
SplineSet
50 745 m 1
 50 790 l 1
 450 790 l 1
 450 745 l 1
 100 55 l 1
 450 55 l 1
 450 10 l 1
 50 10 l 1
 50 55 l 1
 400 745 l 1
 50 745 l 1
EndSplineSet
Validated: 1
EndChar

StartChar: bracketleft
Encoding: 91 91 58
Width: 300
Flags: HMW
LayerCount: 2
Fore
SplineSet
50 900 m 1
 95 900 l 1
 250 900 l 1
 250 855 l 1
 95 855 l 1
 95 -55 l 1
 250 -55 l 1
 250 -100 l 1
 95 -100 l 1
 50 -100 l 1
 50 -55 l 1
 50 855 l 1
 50 900 l 1
EndSplineSet
Validated: 1
EndChar

StartChar: backslash
Encoding: 92 92 59
Width: 500
Flags: HMW
LayerCount: 2
Fore
SplineSet
50 790 m 1
 95 790 l 1
 450 10 l 1
 405 10 l 1
 50 790 l 1
EndSplineSet
Validated: 1
EndChar

StartChar: bracketright
Encoding: 93 93 60
Width: 300
Flags: HMW
LayerCount: 2
Fore
SplineSet
50 900 m 1
 205 900 l 1
 250 900 l 1
 250 855 l 1
 250 -55 l 1
 250 -100 l 1
 205 -100 l 1
 50 -100 l 1
 50 -55 l 1
 205 -55 l 1
 205 855 l 1
 50 855 l 1
 50 900 l 1
EndSplineSet
Validated: 1
EndChar

StartChar: asciicircum
Encoding: 94 94 61
Width: 500
Flags: HMW
LayerCount: 2
Fore
SplineSet
50 800 m 1
 250 1000 l 1
 450 800 l 1
 450 745 l 1
 250 945 l 1
 50 745 l 1
 50 800 l 1
EndSplineSet
Validated: 1
EndChar

StartChar: underscore
Encoding: 95 95 62
Width: 500
Flags: HMW
LayerCount: 2
Fore
SplineSet
50 10 m 1
 50 55 l 1
 450 55 l 1
 450 10 l 1
 50 10 l 1
EndSplineSet
Validated: 1
EndChar

StartChar: grave
Encoding: 96 96 63
Width: 190
Flags: HMW
LayerCount: 2
Fore
SplineSet
50 790 m 1
 95 790 l 1
 140 600 l 1
 95 600 l 1
 50 790 l 1
EndSplineSet
Validated: 1
EndChar

StartChar: a
Encoding: 97 97 64
Width: 500
Flags: HMW
LayerCount: 2
Fore
SplineSet
405 426.379882812 m 1
 405 490 l 1
 450 490 l 1
 450 300 l 1
 450 200 l 1
 450 10 l 1
 405 10 l 1
 405 73.6201171875 l 1
 397.450195312 64.3603515625 389.080078125 55.7900390625 380 48.01953125 c 0
 345.040039062 18.0703125 299.629882812 0 250 0 c 0
 200.370117188 0 154.959960938 18.0703125 120 48.01953125 c 0
 110.919921875 55.7900390625 102.549804688 64.3603515625 95 73.6201171875 c 0
 66.8603515625 108.059570312 50 152.059570312 50 200 c 2
 50 300 l 2
 50 347.940429688 66.8603515625 391.940429688 95 426.379882812 c 0
 102.549804688 435.639648438 110.919921875 444.209960938 120 451.98046875 c 0
 154.959960938 481.9296875 200.370117188 500 250 500 c 0
 299.629882812 500 345.040039062 481.9296875 380 451.98046875 c 0
 389.080078125 444.209960938 397.450195312 435.639648438 405 426.379882812 c 1
250 45 m 0
 335.599609375 45 405 114.400390625 405 200 c 2
 405 300 l 2
 405 385.599609375 335.599609375 455 250 455 c 0
 164.400390625 455 95 385.599609375 95 300 c 2
 95 200 l 2
 95 114.400390625 164.400390625 45 250 45 c 0
EndSplineSet
Validated: 1
EndChar

StartChar: b
Encoding: 98 98 65
Width: 500
Flags: HMW
LayerCount: 2
Fore
SplineSet
380 451.98046875 m 0
 422.849609375 415.309570312 450 360.830078125 450 300 c 2
 450 200 l 2
 450 139.169921875 422.849609375 84.6904296875 380 48.01953125 c 0
 345.040039062 18.0703125 299.629882812 0 250 0 c 0
 200.370117188 0 154.959960938 18.0703125 120 48.01953125 c 0
 110.919921875 55.7900390625 102.559570312 64.3603515625 95 73.6201171875 c 1
 95 10 l 1
 50 10 l 1
 50 200 l 1
 50 300 l 1
 50 790 l 1
 95 790 l 1
 95 426.379882812 l 1
 102.559570312 435.639648438 110.919921875 444.209960938 120 451.98046875 c 0
 154.959960938 481.9296875 200.370117188 500 250 500 c 0
 299.629882812 500 345.040039062 481.9296875 380 451.98046875 c 0
405 200 m 2
 405 300 l 2
 405 385.599609375 335.599609375 455 250 455 c 0
 164.400390625 455 95 385.599609375 95 300 c 2
 95 200 l 2
 95 114.400390625 164.400390625 45 250 45 c 0
 335.599609375 45 405 114.400390625 405 200 c 2
EndSplineSet
Validated: 1
EndChar

StartChar: c
Encoding: 99 99 66
Width: 500
Flags: HMW
LayerCount: 2
Fore
SplineSet
250 455 m 0
 164.400390625 455 95 385.599609375 95 300 c 2
 95 200 l 2
 95 114.400390625 164.400390625 45 250 45 c 0
 335.599609375 45 405 114.400390625 405 200 c 1
 450 200 l 1
 450 139.169921875 422.849609375 84.6904296875 380 48.01953125 c 0
 345.040039062 18.0703125 299.629882812 0 250 0 c 0
 200.370117188 0 154.959960938 18.0703125 120 48.01953125 c 0
 77.150390625 84.6904296875 50 139.169921875 50 200 c 2
 50 300 l 2
 50 360.830078125 77.150390625 415.309570312 120 451.98046875 c 0
 154.959960938 481.9296875 200.370117188 500 250 500 c 0
 299.629882812 500 345.040039062 481.9296875 380 451.98046875 c 0
 422.849609375 415.309570312 450 360.830078125 450 300 c 1
 405 300 l 1
 405 385.599609375 335.599609375 455 250 455 c 0
EndSplineSet
Validated: 1
EndChar

StartChar: d
Encoding: 100 100 67
Width: 500
Flags: HMW
LayerCount: 2
Fore
SplineSet
405 426.379882812 m 1
 405 790 l 1
 450 790 l 1
 450 300 l 1
 450 200 l 1
 450 10 l 1
 405 10 l 1
 405 73.6201171875 l 1
 397.440429688 64.3603515625 389.080078125 55.7900390625 380 48.01953125 c 0
 345.040039062 18.0703125 299.629882812 0 250 0 c 0
 200.370117188 0 154.959960938 18.0703125 120 48.01953125 c 0
 77.150390625 84.6904296875 50 139.169921875 50 200 c 2
 50 300 l 2
 50 360.830078125 77.150390625 415.309570312 120 451.98046875 c 0
 154.959960938 481.9296875 200.370117188 500 250 500 c 0
 299.629882812 500 345.040039062 481.9296875 380 451.98046875 c 0
 389.080078125 444.209960938 397.440429688 435.639648438 405 426.379882812 c 1
250 45 m 0
 335.599609375 45 405 114.400390625 405 200 c 2
 405 300 l 2
 405 385.599609375 335.599609375 455 250 455 c 0
 164.400390625 455 95 385.599609375 95 300 c 2
 95 200 l 2
 95 114.400390625 164.400390625 45 250 45 c 0
EndSplineSet
Validated: 1
EndChar

StartChar: e
Encoding: 101 101 68
Width: 500
Flags: HMW
LayerCount: 2
Fore
SplineSet
120 48.01953125 m 0
 77.150390625 84.6904296875 50 139.169921875 50 200 c 2
 50 245 l 1
 50 300 l 2
 50 360.830078125 77.150390625 415.309570312 120 451.98046875 c 0
 154.959960938 481.9296875 200.370117188 500 250 500 c 0
 299.629882812 500 345.040039062 481.9296875 380 451.98046875 c 0
 422.849609375 415.309570312 450 360.830078125 450 300 c 2
 450 245 l 1
 450 200 l 1
 405 200 l 1
 95 200 l 1
 95 114.400390625 164.400390625 45 250 45 c 0
 318.099609375 45 375.950195312 88.9296875 396.75 150 c 1
 443.690429688 150 l 1
 433.3203125 109.6796875 410.690429688 74.2802734375 380 48.01953125 c 0
 345.040039062 18.0703125 299.629882812 0 250 0 c 0
 200.370117188 0 154.959960938 18.0703125 120 48.01953125 c 0
95 300 m 2
 95 245 l 1
 405 245 l 1
 405 300 l 2
 405 385.599609375 335.599609375 455 250 455 c 0
 164.400390625 455 95 385.599609375 95 300 c 2
EndSplineSet
Validated: 1
EndChar

StartChar: f
Encoding: 102 102 69
Width: 500
Flags: HMW
LayerCount: 2
Fore
SplineSet
338.75 755 m 0
 302.16015625 755 272.5 725.33984375 272.5 688.75 c 2
 272.5 490 l 1
 450 490 l 1
 450 445 l 1
 272.5 445 l 1
 272.5 10 l 1
 227.5 10 l 1
 227.5 445 l 1
 50 445 l 1
 50 490 l 1
 227.5 490 l 1
 227.5 688.75 l 2
 227.5 725.370117188 245.200195312 757.860351562 272.5 778.129882812 c 0
 291.009765625 791.870117188 313.9296875 800 338.75 800 c 0
 400.190429688 800 450 750.190429688 450 688.75 c 1
 405 688.75 l 1
 405 725.33984375 375.33984375 755 338.75 755 c 0
EndSplineSet
Validated: 1
EndChar

StartChar: g
Encoding: 103 103 70
Width: 500
Flags: HMW
LayerCount: 2
Fore
SplineSet
120 48.01953125 m 0
 89.3095703125 74.2802734375 66.6796875 109.6796875 56.3095703125 150 c 0
 52.1904296875 165.98046875 50 182.73046875 50 200 c 2
 50 300 l 2
 50 360.830078125 77.150390625 415.309570312 120 451.98046875 c 0
 154.959960938 481.9296875 200.370117188 500 250 500 c 0
 299.629882812 500 345.040039062 481.9296875 380 451.98046875 c 0
 389.080078125 444.209960938 397.440429688 435.639648438 405 426.379882812 c 1
 405 490 l 1
 450 490 l 1
 450 300 l 1
 450 200 l 1
 450 0 l 2
 450 -17.26953125 447.809570312 -34.01953125 443.700195312 -50 c 0
 433.3203125 -90.3203125 410.690429688 -125.719726562 380 -151.98046875 c 0
 345.040039062 -181.9296875 299.629882812 -200 250 -200 c 0
 200.370117188 -200 154.959960938 -181.9296875 120 -151.98046875 c 0
 89.3095703125 -125.719726562 66.6796875 -90.3203125 56.3095703125 -50 c 1
 103.25 -50 l 1
 124.049804688 -111.0703125 181.900390625 -155 250 -155 c 0
 335.599609375 -155 405 -85.599609375 405 0 c 2
 405 73.6103515625 l 1
 397.440429688 64.3603515625 389.080078125 55.7900390625 380 48.01953125 c 0
 345.040039062 18.0703125 299.629882812 0 250 0 c 0
 200.370117188 0 154.959960938 18.0703125 120 48.01953125 c 0
95 300 m 2
 95 200 l 2
 95 114.400390625 164.400390625 45 250 45 c 0
 335.599609375 45 405 114.400390625 405 200 c 2
 405 300 l 2
 405 385.599609375 335.599609375 455 250 455 c 0
 164.400390625 455 95 385.599609375 95 300 c 2
EndSplineSet
Validated: 1
EndChar

StartChar: h
Encoding: 104 104 71
Width: 500
Flags: HMW
LayerCount: 2
Fore
SplineSet
405 426.379882812 m 0
 433.139648438 391.940429688 450 347.940429688 450 300 c 2
 450 10 l 1
 405 10 l 1
 405 300 l 2
 405 385.599609375 335.599609375 455 250 455 c 0
 164.400390625 455 95 385.599609375 95 300 c 2
 95 10 l 1
 50 10 l 1
 50 300 l 1
 50 790 l 1
 95 790 l 1
 95 426.379882812 l 1
 102.549804688 435.639648438 110.919921875 444.209960938 120 451.98046875 c 0
 154.959960938 481.9296875 200.370117188 500 250 500 c 0
 299.629882812 500 345.040039062 481.9296875 380 451.98046875 c 0
 389.080078125 444.209960938 397.450195312 435.639648438 405 426.379882812 c 0
EndSplineSet
Validated: 1
EndChar

StartChar: i
Encoding: 105 105 72
Width: 155
Flags: HMW
LayerCount: 2
Fore
SplineSet
55 0 m 1
 55 500 l 1
 100 500 l 1
 100 0 l 1
 55 0 l 1
50 627.5 m 0
 50 642.6875 62.3125 655 77.5 655 c 0
 92.6875 655 105 642.6875 105 627.5 c 0
 105 612.3125 92.6875 600 77.5 600 c 0
 62.3125 600 50 612.3125 50 627.5 c 0
EndSplineSet
Validated: 1
EndChar

StartChar: j
Encoding: 106 106 73
Width: 328
Flags: HMW
LayerCount: 2
Fore
SplineSet
222.5 627.5 m 0
 222.5 642.6875 234.8125 655 250 655 c 0
 265.1875 655 277.5 642.6875 277.5 627.5 c 0
 277.5 612.3125 265.1875 600 250 600 c 0
 234.8125 600 222.5 612.3125 222.5 627.5 c 0
161.25 -155 m 0
 197.83984375 -155 227.5 -125.33984375 227.5 -88.75 c 2
 227.5 500 l 1
 272.5 500 l 1
 272.5 -88.75 l 2
 272.5 -125.370117188 254.799804688 -157.860351562 227.5 -178.129882812 c 0
 208.990234375 -191.870117188 186.0703125 -200 161.25 -200 c 0
 99.8095703125 -200 50 -150.190429688 50 -88.75 c 1
 95 -88.75 l 1
 95 -125.33984375 124.66015625 -155 161.25 -155 c 0
EndSplineSet
EndChar

StartChar: k
Encoding: 107 107 74
Width: 500
Flags: HMW
LayerCount: 2
Fore
SplineSet
390 490 m 1
 450 490 l 1
 155 222.5 l 1
 450 10 l 1
 385 10 l 1
 95 218.900390625 l 1
 95 10 l 1
 50 10 l 1
 50 790 l 1
 95 790 l 1
 95 222.5 l 1
 390 490 l 1
EndSplineSet
Validated: 1
EndChar

StartChar: l
Encoding: 108 108 75
Width: 145
Flags: HMW
LayerCount: 2
Fore
SplineSet
50 10 m 1
 50 790 l 1
 95 790 l 1
 95 10 l 1
 50 10 l 1
EndSplineSet
Validated: 1
EndChar

StartChar: m
Encoding: 109 109 76
Width: 800
Flags: HMW
LayerCount: 2
Fore
SplineSet
563.75 500 m 0
 620.23046875 500 670.849609375 474.849609375 705 435.150390625 c 0
 733.049804688 402.540039062 750 360.129882812 750 313.75 c 2
 750 10 l 1
 705 10 l 1
 705 192.349609375 l 1
 705 313.75 l 2
 705 391.759765625 641.759765625 455 563.75 455 c 0
 485.740234375 455 422.5 391.759765625 422.5 313.75 c 2
 422.5 192.349609375 l 1
 422.5 10 l 1
 377.5 10 l 1
 377.5 192.349609375 l 1
 377.5 313.75 l 2
 377.5 391.759765625 314.259765625 455 236.25 455 c 0
 158.240234375 455 95 391.759765625 95 313.75 c 2
 95 192.349609375 l 1
 95 10 l 1
 50 10 l 1
 50 490 l 1
 95 490 l 1
 95 435.150390625 l 1
 129.150390625 474.849609375 179.76953125 500 236.25 500 c 0
 292.73046875 500 343.349609375 474.849609375 377.5 435.150390625 c 0
 386.099609375 425.150390625 393.650390625 414.240234375 400 402.5703125 c 1
 406.349609375 414.240234375 413.900390625 425.150390625 422.5 435.150390625 c 0
 456.650390625 474.849609375 507.26953125 500 563.75 500 c 0
EndSplineSet
Validated: 1
EndChar

StartChar: n
Encoding: 110 110 77
Width: 500
Flags: HMW
LayerCount: 2
Fore
SplineSet
380 451.98046875 m 0
 422.849609375 415.309570312 450 360.830078125 450 300 c 2
 450 10 l 1
 405 10 l 1
 405 200 l 1
 405 300 l 2
 405 385.599609375 335.599609375 455 250 455 c 0
 164.400390625 455 95 385.599609375 95 300 c 2
 95 200 l 1
 95 10 l 1
 50 10 l 1
 50 300 l 1
 50 490 l 1
 95 490 l 1
 95 426.379882812 l 1
 102.559570312 435.639648438 110.919921875 444.209960938 120 451.98046875 c 0
 154.959960938 481.9296875 200.370117188 500 250 500 c 0
 299.629882812 500 345.040039062 481.9296875 380 451.98046875 c 0
EndSplineSet
Validated: 1
EndChar

StartChar: o
Encoding: 111 111 78
Width: 500
Flags: HMW
LayerCount: 2
Fore
SplineSet
120 47.3798828125 m 0
 77.150390625 84.0498046875 50 138.530273438 50 199.360351562 c 2
 50 299.360351562 l 2
 50 360.190429688 77.150390625 414.669921875 120 451.33984375 c 0
 154.959960938 481.290039062 200.370117188 499.360351562 250 499.360351562 c 0
 299.629882812 499.360351562 345.040039062 481.290039062 380 451.33984375 c 0
 422.849609375 414.669921875 450 360.190429688 450 299.360351562 c 2
 450 199.360351562 l 2
 450 138.530273438 422.849609375 84.0498046875 380 47.3798828125 c 0
 345.040039062 17.4296875 299.629882812 -0.6396484375 250 -0.6396484375 c 0
 200.370117188 -0.6396484375 154.959960938 17.4296875 120 47.3798828125 c 0
95 299.360351562 m 2
 95 199.360351562 l 2
 95 113.759765625 164.400390625 44.3603515625 250 44.3603515625 c 0
 335.599609375 44.3603515625 405 113.759765625 405 199.360351562 c 2
 405 299.360351562 l 2
 405 384.959960938 335.599609375 454.360351562 250 454.360351562 c 0
 164.400390625 454.360351562 95 384.959960938 95 299.360351562 c 2
EndSplineSet
Validated: 1
EndChar

StartChar: p
Encoding: 112 112 79
Width: 500
Flags: HMW
LayerCount: 2
Fore
SplineSet
380 451.33984375 m 0
 422.849609375 414.669921875 450 360.190429688 450 299.360351562 c 2
 450 199.360351562 l 2
 450 138.530273438 422.849609375 84.0498046875 380 47.3798828125 c 0
 345.040039062 17.4296875 299.629882812 -0.6396484375 250 -0.6396484375 c 0
 200.370117188 -0.6396484375 154.959960938 17.4296875 120 47.3798828125 c 0
 110.919921875 55.150390625 102.559570312 63.7197265625 95 72.98046875 c 1
 95 -200 l 1
 50 -200 l 1
 50 199.360351562 l 1
 50 299.360351562 l 1
 50 490 l 1
 95 490 l 1
 95 425.740234375 l 1
 102.559570312 435 110.919921875 443.5703125 120 451.33984375 c 0
 154.959960938 481.290039062 200.370117188 499.360351562 250 499.360351562 c 0
 299.629882812 499.360351562 345.040039062 481.290039062 380 451.33984375 c 0
405 199.360351562 m 2
 405 299.360351562 l 2
 405 384.959960938 335.599609375 454.360351562 250 454.360351562 c 0
 164.400390625 454.360351562 95 384.959960938 95 299.360351562 c 2
 95 199.360351562 l 2
 95 113.759765625 164.400390625 44.3603515625 250 44.3603515625 c 0
 335.599609375 44.3603515625 405 113.759765625 405 199.360351562 c 2
EndSplineSet
Validated: 1
EndChar

StartChar: q
Encoding: 113 113 80
Width: 500
Flags: HMW
LayerCount: 2
Fore
SplineSet
405 426.379882812 m 1
 405 490 l 1
 450 490 l 1
 450 300 l 1
 450 200 l 1
 450 -200 l 1
 405 -200 l 1
 405 73.6201171875 l 1
 397.440429688 64.3603515625 389.080078125 55.7900390625 380 48.01953125 c 0
 345.040039062 18.0703125 299.629882812 0 250 0 c 0
 200.370117188 0 154.959960938 18.0703125 120 48.01953125 c 0
 77.150390625 84.6904296875 50 139.169921875 50 200 c 2
 50 300 l 2
 50 360.830078125 77.150390625 415.309570312 120 451.98046875 c 0
 154.959960938 481.9296875 200.370117188 500 250 500 c 0
 299.629882812 500 345.040039062 481.9296875 380 451.98046875 c 0
 389.080078125 444.209960938 397.440429688 435.639648438 405 426.379882812 c 1
250 45 m 0
 335.599609375 45 405 114.400390625 405 200 c 2
 405 300 l 2
 405 385.599609375 335.599609375 455 250 455 c 0
 164.400390625 455 95 385.599609375 95 300 c 2
 95 200 l 2
 95 114.400390625 164.400390625 45 250 45 c 0
EndSplineSet
Validated: 1
EndChar

StartChar: r
Encoding: 114 114 81
Width: 500
Flags: HMW
LayerCount: 2
Fore
SplineSet
380 451.98046875 m 0
 422.849609375 415.309570312 450 360.830078125 450 300 c 1
 405 300 l 1
 405 385.599609375 335.599609375 455 250 455 c 0
 164.400390625 455 95 385.599609375 95 300 c 2
 95 73.6201171875 l 1
 95 10 l 1
 50 10 l 1
 50 200 l 1
 50 300 l 1
 50 490 l 1
 95 490 l 1
 95 426.379882812 l 1
 102.549804688 435.639648438 110.919921875 444.209960938 120 451.98046875 c 0
 154.959960938 481.9296875 200.370117188 500 250 500 c 0
 299.629882812 500 345.040039062 481.9296875 380 451.98046875 c 0
EndSplineSet
Validated: 1
EndChar

StartChar: s
Encoding: 115 115 82
Width: 499
Flags: HMW
LayerCount: 2
Fore
SplineSet
446.66015625 154.58984375 m 0
 448.129882812 148.490234375 448.940429688 142.349609375 449.120117188 136.219726562 c 0
 449.620117188 118.889648438 445.059570312 101.740234375 436.139648438 86.3095703125 c 0
 409.790039062 40.73046875 356.66015625 15.6298828125 306.900390625 5.58984375 c 0
 288.190429688 1.8203125 269.08984375 0 250 0 c 0
 139.540039062 0 50 61 50 136.25 c 1
 95 136.25 l 1
 95 85.849609375 164.400390625 45 250 45 c 0
 292.76953125 45 339.639648438 54.5498046875 374 81.4697265625 c 0
 388.400390625 92.759765625 402 109.620117188 404.459960938 128.360351562 c 0
 407.139648438 148.799804688 395.400390625 170.0703125 381.209960938 183.849609375 c 0
 359.5 204.9296875 328.6796875 216.5 299.379882812 221.759765625 c 0
 270.879882812 226.879882812 241.780273438 227.620117188 213.01953125 231.01953125 c 0
 169.66015625 236.150390625 126.719726562 250.33984375 94.5595703125 281.049804688 c 0
 94.16015625 281.440429688 93.759765625 281.8203125 93.3603515625 282.209960938 c 0
 90.2802734375 285.209960938 87.33984375 288.360351562 84.5498046875 291.629882812 c 0
 79.490234375 297.5703125 76.1904296875 304.6796875 72.08984375 311.309570312 c 0
 67.4599609375 318.809570312 63.990234375 327 61.669921875 335.5 c 0
 57.080078125 352.309570312 56.9404296875 370.3203125 61.0703125 387.240234375 c 0
 68.25 416.610351562 87.4404296875 442.26953125 111.6796875 460.330078125 c 0
 135.919921875 478.389648438 164.98046875 489.23046875 194.66015625 495 c 0
 241.790039062 504.169921875 291.280273438 500.83984375 336.8203125 485.58984375 c 0
 362.5 477 387.290039062 464.400390625 406.650390625 445.48046875 c 0
 426.009765625 426.559570312 439.549804688 400.780273438 440.129882812 373.709960938 c 1
 425.16015625 373.719726562 410.190429688 373.719726562 395.219726562 373.73046875 c 1
 393.099609375 404.25 365.719726562 427.169921875 337.469726562 438.91015625 c 0
 299.33984375 454.75 256.669921875 457.030273438 215.6796875 452.059570312 c 0
 189.190429688 448.83984375 162.370117188 442.389648438 140.41015625 427.240234375 c 0
 118.450195312 412.08984375 102.059570312 386.870117188 103.16015625 360.209960938 c 0
 104.610351562 325.150390625 135.33984375 297.259765625 168.490234375 285.75 c 0
 201.639648438 274.23046875 237.559570312 274.990234375 272.509765625 271.799804688 c 0
 344.379882812 265.240234375 427.959960938 232.049804688 446.66015625 154.58984375 c 0
EndSplineSet
EndChar

StartChar: t
Encoding: 116 116 83
Width: 500
Flags: HMW
LayerCount: 2
Fore
SplineSet
272.5 790 m 1
 272.5 490 l 1
 450 490 l 1
 450 445 l 1
 272.5 445 l 1
 272.5 10 l 1
 227.5 10 l 1
 227.5 445 l 1
 50 445 l 1
 50 490 l 1
 227.5 490 l 1
 227.5 790 l 1
 272.5 790 l 1
EndSplineSet
Validated: 1
EndChar

StartChar: u
Encoding: 117 117 84
Width: 500
Flags: HMW
LayerCount: 2
Fore
SplineSet
405 200 m 2
 405 490 l 1
 450 490 l 1
 450 200 l 2
 450 152.049804688 433.129882812 108.049804688 405 73.6103515625 c 0
 397.440429688 64.349609375 389.0703125 55.7900390625 380 48.01953125 c 0
 345.040039062 18.0703125 299.629882812 0 250 0 c 0
 200.370117188 0 154.959960938 18.0703125 120 48.01953125 c 0
 77.150390625 84.6904296875 50 139.169921875 50 200 c 2
 50 490 l 1
 95 490 l 1
 95 200 l 2
 95 114.400390625 164.400390625 45 250 45 c 0
 335.599609375 45 405 114.400390625 405 200 c 2
EndSplineSet
Validated: 1
EndChar

StartChar: v
Encoding: 118 118 85
Width: 500
Flags: HMW
LayerCount: 2
Fore
SplineSet
250 70.849609375 m 1
 405 490 l 1
 450 490 l 1
 272.5 10 l 1
 227.5 10 l 1
 50 490 l 1
 95 490 l 1
 250 70.849609375 l 1
EndSplineSet
Validated: 1
EndChar

StartChar: w
Encoding: 119 119 86
Width: 800
Flags: HMW
LayerCount: 2
Fore
SplineSet
705 307.650390625 m 1
 705 490 l 1
 750 490 l 1
 750 186.25 l 2
 750 139.870117188 733.049804688 97.4599609375 705 64.849609375 c 0
 670.849609375 25.150390625 620.23046875 0 563.75 0 c 0
 507.26953125 0 456.650390625 25.150390625 422.5 64.849609375 c 1
 416.049804688 72.349609375 410.200195312 80.3603515625 404.990234375 88.8203125 c 0
 403.25 91.6396484375 401.58984375 94.509765625 400 97.4296875 c 1
 393.650390625 85.759765625 386.099609375 74.849609375 377.5 64.849609375 c 0
 343.349609375 25.150390625 292.73046875 0 236.25 0 c 0
 179.76953125 0 129.150390625 25.150390625 95 64.849609375 c 0
 66.9501953125 97.4599609375 50 139.870117188 50 186.25 c 2
 50 490 l 1
 95 490 l 1
 95 307.650390625 l 1
 95 186.25 l 2
 95 108.240234375 158.240234375 45 236.25 45 c 0
 314.259765625 45 377.5 108.240234375 377.5 186.25 c 2
 377.5 307.650390625 l 1
 377.5 490 l 1
 422.5 490 l 1
 422.5 307.650390625 l 1
 422.5 186.25 l 2
 422.5 108.240234375 485.740234375 45 563.75 45 c 0
 641.759765625 45 705 108.240234375 705 186.25 c 2
 705 307.650390625 l 1
EndSplineSet
Validated: 1
EndChar

StartChar: x
Encoding: 120 120 87
Width: 500
Flags: HMW
LayerCount: 2
Fore
SplineSet
395 490 m 1
 450 490 l 1
 277.5 250 l 1
 450 10 l 1
 395 10 l 1
 250 211.740234375 l 1
 105 10 l 1
 50 10 l 1
 222.5 250 l 1
 50 490 l 1
 105 490 l 1
 250 288.259765625 l 1
 395 490 l 1
EndSplineSet
Validated: 1
EndChar

StartChar: y
Encoding: 121 121 88
Width: 500
Flags: HMW
LayerCount: 2
Fore
SplineSet
405 426.379882812 m 1
 405 490 l 1
 450 490 l 1
 450 300 l 1
 450 200 l 1
 450 100 l 1
 450 0 l 2
 450 -47.9404296875 433.139648438 -91.9404296875 405 -126.379882812 c 0
 397.450195312 -135.639648438 389.080078125 -144.209960938 380 -151.98046875 c 0
 345.040039062 -181.9296875 299.629882812 -200 250 -200 c 0
 200.370117188 -200 154.959960938 -181.9296875 120 -151.98046875 c 0
 89.3095703125 -125.719726562 66.6796875 -90.3203125 56.3095703125 -50 c 1
 103.25 -50 l 1
 124.049804688 -111.0703125 181.900390625 -155 250 -155 c 0
 335.599609375 -155 405 -85.599609375 405 0 c 2
 405 73.6201171875 l 1
 397.450195312 64.3603515625 389.080078125 55.7900390625 380 48.01953125 c 0
 345.040039062 18.0703125 299.629882812 0 250 0 c 0
 200.370117188 0 154.959960938 18.0703125 120 48.01953125 c 0
 110.919921875 55.7900390625 102.549804688 64.3603515625 95 73.6201171875 c 0
 76.990234375 95.650390625 63.6103515625 121.599609375 56.3095703125 150 c 0
 52.1904296875 165.98046875 50 182.73046875 50 200 c 2
 50 300 l 1
 50 490 l 1
 95 490 l 1
 95 426.379882812 l 1
 95 226.379882812 l 1
 95 200 l 2
 95 182.5 97.900390625 165.690429688 103.240234375 150 c 0
 124.049804688 88.9296875 181.900390625 45 250 45 c 0
 318.099609375 45 375.950195312 88.9296875 396.759765625 150 c 0
 402.099609375 165.690429688 405 182.5 405 200 c 2
 405 226.379882812 l 1
 405 426.379882812 l 1
EndSplineSet
Validated: 1
EndChar

StartChar: z
Encoding: 122 122 89
Width: 500
Flags: HMW
LayerCount: 2
Fore
SplineSet
50 445 m 1
 50 490 l 1
 450 490 l 1
 450 445 l 1
 110 55 l 1
 450 55 l 1
 450 10 l 1
 50 10 l 1
 50 55 l 1
 390 445 l 1
 50 445 l 1
EndSplineSet
Validated: 1
EndChar

StartChar: braceleft
Encoding: 123 123 90
Width: 455
Flags: HMW
LayerCount: 2
Fore
SplineSet
250 826.400390625 m 0
 286.669921875 871.3203125 342.490234375 900 405 900 c 1
 405 855 l 1
 319.389648438 855 250 785.599609375 250 700 c 2
 250 422.5 l 1
 250 377.5 l 1
 250 100 l 2
 250 14.400390625 319.389648438 -55 405 -55 c 1
 405 -100 l 1
 342.490234375 -100 286.669921875 -71.3203125 250 -26.400390625 c 0
 221.870117188 8.0498046875 205 52.0498046875 205 100 c 2
 205 377.5 l 1
 50 377.5 l 1
 50 422.5 l 1
 205 422.5 l 1
 205 700 l 2
 205 747.950195312 221.870117188 791.950195312 250 826.400390625 c 0
EndSplineSet
Validated: 1
EndChar

StartChar: bar
Encoding: 124 124 91
Width: 145
Flags: HMW
LayerCount: 2
Fore
SplineSet
50 -90 m 1
 50 790 l 1
 95 790 l 1
 95 -90 l 1
 50 -90 l 1
EndSplineSet
Validated: 1
EndChar

StartChar: braceright
Encoding: 125 125 92
Width: 455
Flags: HMW
LayerCount: 2
Fore
SplineSet
250 700 m 2
 250 422.5 l 1
 405 422.5 l 1
 405 377.5 l 1
 250 377.5 l 1
 250 100 l 2
 250 52.0498046875 233.129882812 8.0498046875 205 -26.400390625 c 0
 168.330078125 -71.3203125 112.509765625 -100 50 -100 c 1
 50 -55 l 1
 135.610351562 -55 205 14.400390625 205 100 c 2
 205 377.5 l 1
 205 422.5 l 1
 205 700 l 2
 205 785.599609375 135.610351562 855 50 855 c 1
 50 900 l 1
 112.509765625 900 168.330078125 871.3203125 205 826.400390625 c 0
 233.129882812 791.950195312 250 747.950195312 250 700 c 2
EndSplineSet
Validated: 1
EndChar

StartChar: asciitilde
Encoding: 126 126 93
Width: 442
Flags: HMW
LayerCount: 2
Fore
SplineSet
392 382.099609375 m 2
 391.360351562 380.389648438 385.3203125 364.950195312 370.950195312 349.610351562 c 0
 351.259765625 328.599609375 325.330078125 317.5 295.969726562 317.5 c 0
 264.530273438 317.5 234.9296875 331.299804688 216.76953125 354.41015625 c 0
 210.990234375 361.759765625 206.580078125 369.450195312 202.669921875 376.669921875 c 0
 202.01953125 377.849609375 201.379882812 379.049804688 200.75 380.240234375 c 0
 197.969726562 385.419921875 195.33984375 390.3203125 192.450195312 394.549804688 c 0
 192.150390625 394.990234375 191.83984375 395.4296875 191.530273438 395.860351562 c 0
 182 409.009765625 164.139648438 417.5 146.030273438 417.5 c 0
 129.690429688 417.5 115.83984375 411.830078125 104.870117188 400.66015625 c 0
 96.6298828125 392.26953125 92.7099609375 383.48046875 92.1201171875 382.099609375 c 2
 50 397.900390625 l 2
 50.6396484375 399.610351562 56.6796875 415.049804688 71.0498046875 430.389648438 c 0
 90.740234375 451.400390625 116.669921875 462.5 146.030273438 462.5 c 0
 178.580078125 462.5 209.959960938 447.08984375 227.950195312 422.26953125 c 0
 228.509765625 421.5 229.059570312 420.709960938 229.599609375 419.9296875 c 0
 233.83984375 413.719726562 237.169921875 407.509765625 240.379882812 401.509765625 c 0
 240.990234375 400.379882812 241.599609375 399.25 242.209960938 398.120117188 c 0
 245.1796875 392.650390625 248.4296875 386.9296875 252.139648438 382.219726562 c 0
 261.690429688 370.059570312 278.490234375 362.5 295.969726562 362.5 c 0
 312.309570312 362.5 326.16015625 368.169921875 337.129882812 379.33984375 c 0
 345.370117188 387.73046875 349.290039062 396.51953125 349.879882812 397.900390625 c 2
 392 382.099609375 l 2
EndSplineSet
Validated: 1
EndChar

StartChar: exclamdown
Encoding: 161 161 94
Width: 155
Flags: HMW
LayerCount: 2
Fore
SplineSet
55 -200 m 1
 55 400 l 1
 100 400 l 1
 100 -200 l 1
 55 -200 l 1
50 572.5 m 0
 50 587.6875 62.3125 600 77.5 600 c 0
 92.6875 600 105 587.6875 105 572.5 c 0
 105 557.3125 92.6875 545 77.5 545 c 0
 62.3125 545 50 557.3125 50 572.5 c 0
EndSplineSet
Validated: 1
EndChar

StartChar: cent
Encoding: 162 162 95
Width: 500
Flags: HMW
LayerCount: 2
Fore
SplineSet
405 300 m 1
 405 377.959960938 347.440429688 442.469726562 272.5 453.370117188 c 1
 272.5 46.6298828125 l 1
 347.440429688 57.5302734375 405 122.040039062 405 200 c 1
 450 200 l 1
 450 139.169921875 422.849609375 84.6904296875 380 48.01953125 c 0
 350.400390625 22.669921875 313.299804688 5.830078125 272.5 1.259765625 c 1
 272.5 -90 l 1
 227.5 -90 l 1
 227.5 1.259765625 l 1
 186.700195312 5.8203125 149.599609375 22.66015625 120 48.01953125 c 0
 77.150390625 84.6904296875 50 139.169921875 50 200 c 2
 50 300 l 2
 50 360.830078125 77.150390625 415.309570312 120 451.98046875 c 0
 149.599609375 477.33984375 186.700195312 494.169921875 227.5 498.740234375 c 1
 227.5 590 l 1
 272.5 590 l 1
 272.5 498.740234375 l 1
 313.299804688 494.1796875 350.400390625 477.33984375 380 451.98046875 c 0
 422.849609375 415.309570312 450 360.830078125 450 300 c 1
 405 300 l 1
95 200 m 2
 95 122.040039062 152.559570312 57.5302734375 227.5 46.6298828125 c 1
 227.5 453.370117188 l 1
 152.559570312 442.469726562 95 377.959960938 95 300 c 2
 95 200 l 2
EndSplineSet
Validated: 1
EndChar

StartChar: sterling
Encoding: 163 163 96
Width: 500
Flags: HMW
LayerCount: 2
Fore
SplineSet
195 650 m 2
 195 542.889648438 l 1
 195 462.5 l 1
 350 462.5 l 1
 350 417.5 l 1
 195 417.5 l 1
 195 55 l 1
 450 55 l 1
 450 10 l 1
 195 10 l 1
 150 10 l 1
 50 10 l 1
 50 55 l 1
 150 55 l 1
 150 417.5 l 1
 50 417.5 l 1
 50 462.5 l 1
 150 462.5 l 1
 150 650 l 2
 150 691.959960938 167.23046875 729.889648438 195 757.110351562 c 0
 222.049804688 783.639648438 259.120117188 800 300 800 c 0
 382.83984375 800 450 732.83984375 450 650 c 1
 405 650 l 1
 405 707.990234375 357.990234375 755 300 755 c 0
 242.009765625 755 195 707.990234375 195 650 c 2
EndSplineSet
Validated: 1
EndChar

StartChar: currency
Encoding: 164 164 97
Width: 500
Flags: HMW
LayerCount: 2
Fore
SplineSet
81.8203125 100.259765625 m 1
 50 132.080078125 l 1
 129.219726562 211.299804688 l 1
 110.849609375 236.190429688 100 266.959960938 100 300.259765625 c 0
 100 333.559570312 110.849609375 364.330078125 129.219726562 389.219726562 c 1
 50 468.440429688 l 1
 81.8203125 500.259765625 l 1
 161.040039062 421.040039062 l 1
 185.9296875 439.41015625 216.700195312 450.259765625 250 450.259765625 c 0
 283.299804688 450.259765625 314.0703125 439.41015625 338.959960938 421.040039062 c 1
 418.1796875 500.259765625 l 1
 450 468.440429688 l 1
 370.780273438 389.219726562 l 1
 389.150390625 364.330078125 400 333.559570312 400 300.259765625 c 0
 400 266.959960938 389.150390625 236.190429688 370.780273438 211.299804688 c 1
 450 132.080078125 l 1
 418.1796875 100.259765625 l 1
 338.959960938 179.48046875 l 1
 314.0703125 161.110351562 283.299804688 150.259765625 250 150.259765625 c 0
 216.700195312 150.259765625 185.9296875 161.110351562 161.040039062 179.48046875 c 1
 81.8203125 100.259765625 l 1
145 300.259765625 m 0
 145 279.400390625 151.080078125 259.969726562 161.559570312 243.639648438 c 0
 169.75 230.879882812 180.620117188 220.009765625 193.379882812 211.8203125 c 0
 209.709960938 201.33984375 229.139648438 195.259765625 250 195.259765625 c 0
 270.860351562 195.259765625 290.290039062 201.33984375 306.620117188 211.8203125 c 0
 319.379882812 220.009765625 330.25 230.879882812 338.440429688 243.639648438 c 0
 348.919921875 259.969726562 355 279.400390625 355 300.259765625 c 0
 355 321.120117188 348.919921875 340.549804688 338.440429688 356.879882812 c 0
 330.25 369.639648438 319.379882812 380.509765625 306.620117188 388.700195312 c 0
 290.290039062 399.1796875 270.860351562 405.259765625 250 405.259765625 c 0
 229.139648438 405.259765625 209.709960938 399.1796875 193.379882812 388.700195312 c 0
 180.620117188 380.509765625 169.75 369.639648438 161.559570312 356.879882812 c 0
 151.080078125 340.549804688 145 321.120117188 145 300.259765625 c 0
EndSplineSet
Validated: 1
EndChar

StartChar: yen
Encoding: 165 165 98
Width: 500
Flags: HMW
LayerCount: 2
Fore
SplineSet
405.3203125 790 m 1
 450.3203125 790 l 1
 296.490234375 434.6796875 l 1
 450 434.6796875 l 1
 450 389.6796875 l 1
 277.010742188 389.6796875 l 1
 272.8203125 380 l 1
 272.8203125 245 l 1
 450.3203125 245 l 1
 450.3203125 200 l 1
 272.8203125 200 l 1
 272.8203125 10 l 1
 227.8203125 10 l 1
 227.8203125 200 l 1
 50.3203125 200 l 1
 50.3203125 245 l 1
 227.8203125 245 l 1
 227.8203125 380 l 1
 223.629882812 389.6796875 l 1
 50 389.6796875 l 1
 50 434.6796875 l 1
 204.150390625 434.6796875 l 1
 50.3203125 790 l 1
 95.3203125 790 l 1
 227.8203125 483.940429688 l 1
 249.150390625 434.6796875 l 1
 251.490234375 434.6796875 l 1
 272.8203125 483.940429688 l 1
 405.3203125 790 l 1
EndSplineSet
EndChar

StartChar: brokenbar
Encoding: 166 166 99
Width: 145
Flags: HMW
LayerCount: 2
Fore
SplineSet
50 400 m 1
 50 790 l 1
 95 790 l 1
 95 400 l 1
 50 400 l 1
50 -190 m 1
 50 200 l 1
 95 200 l 1
 95 -190 l 1
 50 -190 l 1
EndSplineSet
Validated: 1
EndChar

StartChar: section
Encoding: 167 167 100
Width: 460
Flags: HMW
LayerCount: 2
Fore
SplineSet
230 -159.5 m 0
 307.040039062 -159.5 369.5 -97.0400390625 369.5 -20 c 0
 369.5 57.0400390625 307.040039062 119.5 230 119.5 c 0
 200.059570312 119.5 171.8203125 126.809570312 146.98046875 139.75 c 0
 89.349609375 169.759765625 50 230.030273438 50 299.5 c 0
 50 368.969726562 89.349609375 429.240234375 146.98046875 459.25 c 1
 89.349609375 489.259765625 50 549.530273438 50 619 c 0
 50 718.41015625 130.58984375 799 230 799 c 0
 329.41015625 799 410 718.41015625 410 619 c 1
 369.5 619 l 1
 369.5 696.040039062 307.040039062 758.5 230 758.5 c 0
 152.959960938 758.5 90.5 696.040039062 90.5 619 c 0
 90.5 541.959960938 152.959960938 479.5 230 479.5 c 0
 259.940429688 479.5 288.1796875 472.190429688 313.01953125 459.25 c 0
 370.650390625 429.240234375 410 368.969726562 410 299.5 c 0
 410 230.030273438 370.650390625 169.759765625 313.01953125 139.75 c 1
 370.650390625 109.740234375 410 49.4697265625 410 -20 c 0
 410 -119.41015625 329.41015625 -200 230 -200 c 0
 130.58984375 -200 50 -119.41015625 50 -20 c 1
 90.5 -20 l 1
 90.5 -97.0400390625 152.959960938 -159.5 230 -159.5 c 0
90.5 299.5 m 0
 90.5 222.459960938 152.959960938 160 230 160 c 0
 307.040039062 160 369.5 222.459960938 369.5 299.5 c 0
 369.5 376.540039062 307.040039062 439 230 439 c 0
 152.959960938 439 90.5 376.540039062 90.5 299.5 c 0
EndSplineSet
Validated: 1
EndChar

StartChar: dieresis
Encoding: 168 168 101
Width: 255
Flags: HMW
LayerCount: 2
Fore
SplineSet
50 745 m 0
 50 760.1875 62.3125 772.5 77.5 772.5 c 0
 92.6875 772.5 105 760.1875 105 745 c 0
 105 729.8125 92.6875 717.5 77.5 717.5 c 0
 62.3125 717.5 50 729.8125 50 745 c 0
150 745 m 0
 150 760.1875 162.3125 772.5 177.5 772.5 c 0
 192.6875 772.5 205 760.1875 205 745 c 0
 205 729.8125 192.6875 717.5 177.5 717.5 c 0
 162.3125 717.5 150 729.8125 150 745 c 0
EndSplineSet
Validated: 1
EndChar

StartChar: copyright
Encoding: 169 169 102
Width: 670
Flags: HMW
LayerCount: 2
Fore
SplineSet
335 722.5 m 0
 411.129882812 722.5 482.700195312 692.860351562 536.530273438 639.01953125 c 0
 590.349609375 585.200195312 620 513.629882812 620 437.5 c 2
 620 362.5 l 2
 620 286.370117188 590.349609375 214.799804688 536.51953125 160.969726562 c 0
 482.700195312 107.139648438 411.129882812 77.5 335 77.5 c 0
 258.870117188 77.5 187.299804688 107.139648438 133.469726562 160.98046875 c 0
 79.650390625 214.799804688 50 286.370117188 50 362.5 c 2
 50 437.5 l 2
 50 513.629882812 79.650390625 585.200195312 133.48046875 639.030273438 c 0
 187.299804688 692.860351562 258.870117188 722.5 335 722.5 c 0
575 362.5 m 2
 575 437.5 l 2
 575 569.83984375 467.33984375 677.5 335 677.5 c 0
 202.66015625 677.5 95 569.83984375 95 437.5 c 2
 95 362.5 l 2
 95 230.16015625 202.66015625 122.5 335 122.5 c 0
 467.33984375 122.5 575 230.16015625 575 362.5 c 2
335 527.5 m 0
 285.370117188 527.5 245 487.129882812 245 437.5 c 2
 245 362.5 l 2
 245 312.870117188 285.370117188 272.5 335 272.5 c 0
 379.51953125 272.5 416.58984375 304.990234375 423.75 347.5 c 1
 469.169921875 347.5 l 1
 467.110351562 329.009765625 461.259765625 311.099609375 451.940429688 295.009765625 c 0
 440.08984375 274.509765625 422.990234375 257.41015625 402.490234375 245.549804688 c 0
 382.080078125 233.740234375 358.740234375 227.5 335 227.5 c 0
 311.259765625 227.5 287.919921875 233.740234375 267.509765625 245.559570312 c 0
 247.009765625 257.41015625 229.91015625 274.509765625 218.049804688 295.009765625 c 0
 206.240234375 315.419921875 200 338.759765625 200 362.5 c 2
 200 437.5 l 2
 200 461.240234375 206.240234375 484.580078125 218.059570312 504.990234375 c 0
 229.91015625 525.490234375 247.009765625 542.58984375 267.509765625 554.450195312 c 0
 287.919921875 566.259765625 311.259765625 572.5 335 572.5 c 0
 358.740234375 572.5 382.080078125 566.259765625 402.490234375 554.440429688 c 0
 422.990234375 542.58984375 440.08984375 525.490234375 451.950195312 504.990234375 c 0
 461.259765625 488.900390625 467.110351562 470.990234375 469.169921875 452.5 c 1
 423.75 452.5 l 1
 416.58984375 495.009765625 379.51953125 527.5 335 527.5 c 0
EndSplineSet
Validated: 1
EndChar

StartChar: ordfeminine
Encoding: 170 170 103
Width: 300
Flags: HMW
LayerCount: 2
Fore
SplineSet
227.5 795 m 1
 250 795 l 1
 250 700 l 1
 250 650 l 1
 250 555 l 1
 227.5 555 l 1
 227.5 586.809570312 l 1
 223.73046875 582.1796875 219.540039062 577.900390625 215 574.009765625 c 0
 197.51953125 559.040039062 174.809570312 550 150 550 c 0
 125.190429688 550 102.48046875 559.040039062 85 574.009765625 c 0
 80.4599609375 577.900390625 76.26953125 582.1796875 72.5 586.809570312 c 0
 58.4296875 604.030273438 50 626.030273438 50 650 c 2
 50 700 l 2
 50 723.969726562 58.4296875 745.969726562 72.5 763.190429688 c 0
 76.26953125 767.8203125 80.4599609375 772.099609375 85 775.990234375 c 0
 102.48046875 790.969726562 125.190429688 800 150 800 c 0
 174.809570312 800 197.51953125 790.969726562 215 775.990234375 c 0
 219.540039062 772.110351562 223.73046875 767.8203125 227.5 763.190429688 c 1
 227.5 795 l 1
150 572.5 m 0
 192.799804688 572.5 227.5 607.200195312 227.5 650 c 2
 227.5 700 l 2
 227.5 742.799804688 192.799804688 777.5 150 777.5 c 0
 107.200195312 777.5 72.5 742.799804688 72.5 700 c 2
 72.5 650 l 2
 72.5 607.200195312 107.200195312 572.5 150 572.5 c 0
EndSplineSet
Validated: 1
EndChar

StartChar: guillemotleft
Encoding: 171 171 104
Width: 390
Flags: HMW
LayerCount: 2
Fore
SplineSet
250 190 m 1
 205 190 l 1
 50 340 l 1
 205 490 l 1
 250 490 l 1
 95 340 l 1
 250 190 l 1
295 190 m 1
 140 340 l 1
 295 490 l 1
 340 490 l 1
 185 340 l 1
 340 190 l 1
 295 190 l 1
EndSplineSet
Validated: 1
EndChar

StartChar: logicalnot
Encoding: 172 172 105
Width: 400
Flags: HMW
LayerCount: 2
Fore
SplineSet
350 217.5 m 1
 305 217.5 l 1
 305 317.5 l 1
 50 317.5 l 1
 50 362.5 l 1
 305 362.5 l 1
 350 362.5 l 1
 350 317.5 l 1
 350 217.5 l 1
EndSplineSet
Validated: 1
EndChar

StartChar: uni00AD
Encoding: 173 173 106
Width: 400
Flags: HMW
LayerCount: 2
Fore
SplineSet
50 317.5 m 1
 50 362.5 l 1
 350 362.5 l 1
 350 317.5 l 1
 50 317.5 l 1
EndSplineSet
Validated: 1
EndChar

StartChar: registered
Encoding: 174 174 107
Width: 694
Flags: HMW
LayerCount: 2
Fore
SplineSet
347 797 m 0
 426.330078125 797 500.91015625 766.110351562 557.009765625 710.009765625 c 0
 613.110351562 653.91015625 644 579.330078125 644 500 c 0
 644 420.669921875 613.110351562 346.08984375 557.009765625 289.990234375 c 0
 500.91015625 233.889648438 426.330078125 203 347 203 c 0
 267.669921875 203 193.08984375 233.889648438 136.990234375 289.990234375 c 0
 80.8896484375 346.08984375 50 420.669921875 50 500 c 0
 50 579.330078125 80.8896484375 653.91015625 136.990234375 710.009765625 c 0
 193.08984375 766.110351562 267.669921875 797 347 797 c 0
347 247.990234375 m 0
 485.959960938 247.990234375 599.009765625 361.040039062 599.009765625 500 c 0
 599.009765625 638.959960938 485.959960938 752.009765625 347 752.009765625 c 0
 208.040039062 752.009765625 94.990234375 638.959960938 94.990234375 500 c 0
 94.990234375 361.040039062 208.040039062 247.990234375 347 247.990234375 c 0
432.530273438 547.209960938 m 0
 428.709960938 540.599609375 424.110351562 534.419921875 418.860351562 528.849609375 c 2
 410.8203125 520.330078125 l 1
 418.860351562 511.809570312 l 2
 424.110351562 506.23046875 428.709960938 500.049804688 432.540039062 493.4296875 c 0
 436.830078125 486.01953125 440.150390625 478.030273438 442.389648438 469.6796875 c 0
 444.620117188 461.330078125 445.75 452.709960938 445.75 444.080078125 c 2
 445.75 304.66015625 l 1
 400.76953125 304.66015625 l 1
 400.76953125 444.080078125 l 2
 400.76953125 473.73046875 376.639648438 497.849609375 347 497.849609375 c 2
 293.23046875 497.849609375 l 1
 293.23046875 304.669921875 l 1
 248.25 304.669921875 l 1
 248.25 695.33984375 l 1
 347 695.33984375 l 2
 364.379882812 695.33984375 381.440429688 690.76953125 396.379882812 682.129882812 c 0
 411.360351562 673.450195312 423.870117188 660.950195312 432.540039062 645.950195312 c 0
 441.1796875 631.01953125 445.75 613.959960938 445.75 596.58984375 c 0
 445.75 579.219726562 441.1796875 562.16015625 432.530273438 547.209960938 c 0
347 542.8203125 m 2
 376.639648438 542.8203125 400.76953125 566.9296875 400.76953125 596.580078125 c 0
 400.76953125 626.23046875 376.639648438 650.349609375 347 650.349609375 c 2
 293.23046875 650.349609375 l 1
 293.23046875 542.8203125 l 1
 347 542.8203125 l 2
EndSplineSet
Validated: 1
EndChar

StartChar: macron
Encoding: 175 175 108
Width: 400
Flags: HMW
LayerCount: 2
Fore
SplineSet
50 745 m 1
 50 790 l 1
 350 790 l 1
 350 745 l 1
 50 745 l 1
EndSplineSet
Validated: 1
EndChar

StartChar: degree
Encoding: 176 176 109
Width: 300
Flags: HMW
LayerCount: 2
Fore
SplineSet
150 800 m 0
 205.23046875 800 250 755.23046875 250 700 c 0
 250 644.76953125 205.23046875 600 150 600 c 0
 94.76953125 600 50 644.76953125 50 700 c 0
 50 755.23046875 94.76953125 800 150 800 c 0
150 622.5 m 0
 192.799804688 622.5 227.5 657.200195312 227.5 700 c 0
 227.5 742.799804688 192.799804688 777.5 150 777.5 c 0
 107.200195312 777.5 72.5 742.799804688 72.5 700 c 0
 72.5 657.200195312 107.200195312 622.5 150 622.5 c 0
EndSplineSet
Validated: 1
EndChar

StartChar: plusminus
Encoding: 177 177 110
Width: 500
Flags: HMW
LayerCount: 2
Fore
SplineSet
50 10 m 1
 50 55 l 1
 450 55 l 1
 450 10 l 1
 50 10 l 1
272.5 567.5 m 1
 272.5 390 l 1
 450 390 l 1
 450 345 l 1
 272.5 345 l 1
 272.5 167.5 l 1
 227.5 167.5 l 1
 227.5 345 l 1
 50 345 l 1
 50 390 l 1
 227.5 390 l 1
 227.5 567.5 l 1
 272.5 567.5 l 1
EndSplineSet
Validated: 1
EndChar

StartChar: uni00B2
Encoding: 178 178 111
Width: 230
Flags: HMW
LayerCount: 2
Fore
SplineSet
136.3203125 663.98046875 m 2
 109.66015625 648.860351562 90.6904296875 626.959960938 79.9296875 598.879882812 c 0
 75.8896484375 588.330078125 73.8203125 578.849609375 72.75 571.780273438 c 1
 180.009765625 571.780273438 l 1
 180.009765625 550 l 1
 50.009765625 550 l 1
 50.009765625 560.860351562 l 2
 50.009765625 561.690429688 50.1201171875 581.33984375 59.48046875 606.099609375 c 0
 64.9697265625 620.599609375 72.5302734375 633.98046875 81.9599609375 645.849609375 c 0
 93.6904296875 660.620117188 108.309570312 673.049804688 125.4296875 682.799804688 c 0
 138.950195312 691.349609375 148.580078125 702.690429688 154.0703125 716.5 c 0
 158.040039062 726.509765625 158.299804688 734.370117188 158.309570312 734.790039062 c 0
 158.290039062 758.73046875 138.860351562 778.209960938 115 778.209960938 c 0
 91.1201171875 778.209960938 71.6904296875 758.709960938 71.6904296875 734.73046875 c 2
 71.6904296875 730.73046875 l 1
 50 730.73046875 l 1
 50 734.73046875 l 2
 50 770.719726562 79.150390625 799.990234375 115 799.990234375 c 0
 150.83984375 799.990234375 180 770.719726562 180 734.73046875 c 0
 180 734.26953125 179.940429688 723.209960938 174.490234375 709.150390625 c 0
 169.549804688 696.370117188 158.98046875 678.209960938 136.740234375 664.23046875 c 2
 136.700195312 664.209960938 l 1
 136.669921875 664.1796875 l 1
 136.400390625 664.030273438 l 1
 136.360351562 664.009765625 l 1
 136.3203125 663.98046875 l 2
EndSplineSet
EndChar

StartChar: uni00B3
Encoding: 179 179 112
Width: 229
Flags: HMW
LayerCount: 2
Fore
SplineSet
114.5 800 m 0
 133.959960938 800 152.1796875 791.349609375 164.490234375 776.26953125 c 0
 173.849609375 764.809570312 179 750.33984375 179 735.509765625 c 2
 179 732.490234375 l 2
 179 717.66015625 173.849609375 703.1796875 164.490234375 691.719726562 c 0
 161.740234375 688.349609375 158.639648438 685.25 155.26953125 682.5 c 0
 153.66015625 681.1796875 151.98046875 679.940429688 150.25 678.790039062 c 1
 151.98046875 677.629882812 153.650390625 676.389648438 155.259765625 675.080078125 c 0
 158.639648438 672.330078125 161.740234375 669.219726562 164.490234375 665.849609375 c 0
 173.849609375 654.389648438 179 639.91015625 179 625.08984375 c 2
 179 614.5 l 2
 179 599.669921875 173.849609375 585.200195312 164.490234375 573.740234375 c 0
 152.1796875 558.650390625 133.959960938 550 114.5 550 c 0
 78.9296875 550 50 578.940429688 50 614.5 c 2
 50 618.5 l 1
 71.6201171875 618.5 l 1
 71.6201171875 614.5 l 2
 71.6201171875 590.849609375 90.849609375 571.610351562 114.5 571.610351562 c 0
 138.16015625 571.610351562 157.389648438 590.849609375 157.389648438 614.5 c 2
 157.389648438 625.08984375 l 2
 157.389648438 648.740234375 138.16015625 667.98046875 114.5 667.98046875 c 2
 110.5 667.98046875 l 1
 110.5 689.58984375 l 1
 114.5 689.58984375 l 2
 138.16015625 689.58984375 157.389648438 708.8203125 157.389648438 732.48046875 c 2
 157.389648438 735.5 l 2
 157.389648438 759.150390625 138.16015625 778.389648438 114.5 778.389648438 c 0
 90.849609375 778.389648438 71.6201171875 759.150390625 71.6201171875 735.5 c 2
 71.6201171875 731.5 l 1
 50 731.5 l 1
 50 735.5 l 2
 50 771.0703125 78.9296875 800 114.5 800 c 0
EndSplineSet
Validated: 1
EndChar

StartChar: acute
Encoding: 180 180 113
Width: 190
Flags: HMW
LayerCount: 2
Fore
SplineSet
140 790 m 1
 95 600 l 1
 50 600 l 1
 95 790 l 1
 140 790 l 1
EndSplineSet
Validated: 1
EndChar

StartChar: mu
Encoding: 181 181 114
Width: 500
Flags: HMW
LayerCount: 2
Fore
SplineSet
405 326.400390625 m 1
 405 490 l 1
 450 490 l 1
 450 10 l 1
 405 10 l 1
 405 73.599609375 l 1
 368.330078125 28.6796875 312.509765625 0 250 0 c 0
 187.490234375 0 131.669921875 28.6796875 95 73.599609375 c 1
 95 -190 l 1
 50 -190 l 1
 50 490 l 1
 95 490 l 1
 95 326.400390625 l 1
 95 200 l 2
 95 114.400390625 164.400390625 45 250 45 c 0
 335.599609375 45 405 114.400390625 405 200 c 2
 405 326.400390625 l 1
EndSplineSet
Validated: 1
EndChar

StartChar: paragraph
Encoding: 182 182 115
Width: 500
Flags: HMW
LayerCount: 2
Fore
SplineSet
300 790 m 1
 405 790 l 1
 450 790 l 1
 450 745 l 1
 450 435 l 1
 450 390 l 1
 450 -200 l 1
 405 -200 l 1
 405 390 l 1
 405 435 l 1
 405 463.599609375 l 1
 405 716.400390625 l 1
 405 745 l 1
 376.400390625 745 l 1
 300 745 l 1
 300 736.759765625 l 1
 300 443.240234375 l 1
 300 435 l 1
 300 396.309570312 l 1
 300 390 l 1
 300 -200 l 1
 255 -200 l 1
 255 390 l 1
 250 390 l 2
 206.780273438 390 166.759765625 403.700195312 134.059570312 427.009765625 c 0
 83.1796875 463.26953125 50 522.759765625 50 590 c 0
 50 657.240234375 83.1796875 716.73046875 134.059570312 752.990234375 c 0
 166.759765625 776.299804688 206.780273438 790 250 790 c 2
 255 790 l 1
 300 790 l 1
255 435.080078125 m 2
 255 744.919921875 l 2
 253.33984375 744.969726562 251.669921875 745 250 745 c 0
 164.400390625 745 95 675.599609375 95 590 c 0
 95 504.400390625 164.400390625 435 250 435 c 0
 251.669921875 435 253.33984375 435.030273438 255 435.080078125 c 2
EndSplineSet
Validated: 1
EndChar

StartChar: periodcentered
Encoding: 183 183 116
Width: 155
Flags: HMW
LayerCount: 2
Fore
SplineSet
50 345 m 0
 50 360.1875 62.3125 372.5 77.5 372.5 c 0
 92.6875 372.5 105 360.1875 105 345 c 0
 105 329.8125 92.6875 317.5 77.5 317.5 c 0
 62.3125 317.5 50 329.8125 50 345 c 0
EndSplineSet
Validated: 1
EndChar

StartChar: cedilla
Encoding: 184 184 117
Width: 145
Flags: HMW
LayerCount: 2
Fore
SplineSet
50 -95 m 1
 50 95 l 1
 95 95 l 1
 95 -95 l 1
 50 -95 l 1
EndSplineSet
Validated: 1
EndChar

StartChar: uni00B9
Encoding: 185 185 118
Width: 184
Flags: HMW
LayerCount: 2
Fore
SplineSet
51.919921875 751.01953125 m 1
 112.370117188 787.08984375 l 1
 134 800 l 1
 134 550 l 1
 112.370117188 550 l 1
 112.370117188 762.740234375 l 1
 56.009765625 729.110351562 l 1
 50 725.51953125 l 1
 50 749.870117188 l 1
 51.919921875 751.01953125 l 1
EndSplineSet
Validated: 1
EndChar

StartChar: ordmasculine
Encoding: 186 186 119
Width: 300
Flags: HMW
LayerCount: 2
Fore
SplineSet
215 775.990234375 m 0
 236.419921875 757.66015625 250 730.419921875 250 700 c 2
 250 650 l 2
 250 619.580078125 236.419921875 592.349609375 215 574.009765625 c 0
 197.51953125 559.040039062 174.809570312 550 150 550 c 0
 125.190429688 550 102.48046875 559.040039062 85 574.009765625 c 0
 63.580078125 592.349609375 50 619.580078125 50 650 c 2
 50 700 l 2
 50 730.419921875 63.580078125 757.66015625 85 775.990234375 c 0
 102.48046875 790.969726562 125.190429688 800 150 800 c 0
 174.809570312 800 197.51953125 790.969726562 215 775.990234375 c 0
227.5 650 m 2
 227.5 700 l 2
 227.5 742.799804688 192.799804688 777.5 150 777.5 c 0
 107.200195312 777.5 72.5 742.799804688 72.5 700 c 2
 72.5 650 l 2
 72.5 607.200195312 107.200195312 572.5 150 572.5 c 0
 192.799804688 572.5 227.5 607.200195312 227.5 650 c 2
EndSplineSet
Validated: 1
EndChar

StartChar: guillemotright
Encoding: 187 187 120
Width: 390
Flags: HMW
LayerCount: 2
Fore
SplineSet
140 490 m 1
 185 490 l 1
 340 340 l 1
 185 190 l 1
 140 190 l 1
 295 340 l 1
 140 490 l 1
95 490 m 1
 250 340 l 1
 95 190 l 1
 50 190 l 1
 205 340 l 1
 50 490 l 1
 95 490 l 1
EndSplineSet
Validated: 1
EndChar

StartChar: onequarter
Encoding: 188 188 121
Width: 500
Flags: HMW
LayerCount: 2
Fore
SplineSet
50 10 m 1
 420 790 l 1
 450 790 l 1
 80 10 l 1
 50 10 l 1
112.370117188 762.740234375 m 1
 56.009765625 729.110351562 l 1
 50 725.51953125 l 1
 50 749.870117188 l 1
 51.919921875 751.01953125 l 1
 112.370117188 787.08984375 l 1
 134 800 l 1
 134 550 l 1
 112.370117188 550 l 1
 112.370117188 762.740234375 l 1
428.059570312 149.860351562 m 1
 428.059570312 260 l 1
 450 260 l 1
 450 10 l 1
 428.0703125 10 l 1
 428.0703125 127.900390625 l 1
 384.009765625 127.900390625 l 2
 368.830078125 127.900390625 354.01953125 133.1796875 342.290039062 142.759765625 c 0
 338.849609375 145.580078125 335.66015625 148.75 332.860351562 152.200195312 c 0
 323.280273438 163.940429688 318 178.759765625 318 193.950195312 c 2
 318 260 l 1
 339.940429688 260 l 1
 339.940429688 193.950195312 l 2
 339.940429688 169.639648438 359.700195312 149.860351562 384 149.860351562 c 2
 428.059570312 149.860351562 l 1
EndSplineSet
Validated: 1
EndChar

StartChar: onehalf
Encoding: 189 189 122
Width: 500
Flags: HMW
LayerCount: 2
Fore
SplineSet
406.3203125 123.98046875 m 2
 379.66015625 108.860351562 360.690429688 86.9599609375 349.9296875 58.8798828125 c 0
 345.889648438 48.330078125 343.8203125 38.849609375 342.75 31.7802734375 c 1
 450.009765625 31.7802734375 l 1
 450.009765625 10 l 1
 320.009765625 10 l 1
 320.009765625 20.8603515625 l 2
 320.009765625 21.6904296875 320.120117188 41.33984375 329.48046875 66.099609375 c 0
 334.969726562 80.599609375 342.530273438 93.98046875 351.959960938 105.849609375 c 0
 363.690429688 120.620117188 378.309570312 133.049804688 395.4296875 142.799804688 c 0
 408.950195312 151.349609375 418.580078125 162.690429688 424.0703125 176.5 c 0
 428.040039062 186.509765625 428.299804688 194.370117188 428.309570312 194.790039062 c 0
 428.290039062 218.73046875 408.860351562 238.209960938 385 238.209960938 c 0
 361.120117188 238.209960938 341.690429688 218.709960938 341.690429688 194.73046875 c 2
 341.690429688 190.73046875 l 1
 320 190.73046875 l 1
 320 194.73046875 l 2
 320 230.719726562 349.150390625 259.990234375 385 259.990234375 c 0
 420.83984375 259.990234375 450 230.719726562 450 194.73046875 c 0
 450 194.26953125 449.940429688 183.209960938 444.490234375 169.150390625 c 0
 439.549804688 156.370117188 428.98046875 138.209960938 406.740234375 124.23046875 c 2
 406.700195312 124.209960938 l 1
 406.669921875 124.1796875 l 1
 406.400390625 124.030273438 l 1
 406.360351562 124.009765625 l 1
 406.3203125 123.98046875 l 2
50 10 m 1
 420 790 l 1
 450 790 l 1
 80 10 l 1
 50 10 l 1
134 550 m 1
 112.370117188 550 l 1
 112.370117188 762.740234375 l 1
 56.009765625 729.110351562 l 1
 50 725.51953125 l 1
 50 749.870117188 l 1
 51.919921875 751.01953125 l 1
 112.370117188 787.08984375 l 1
 134 800 l 1
 134 550 l 1
EndSplineSet
EndChar

StartChar: threequarters
Encoding: 190 190 123
Width: 500
Flags: HMW
LayerCount: 2
Fore
SplineSet
114.5 550 m 0
 78.9296875 550 50 578.9296875 50 614.5 c 2
 50 618.5 l 1
 71.6201171875 618.5 l 1
 71.6201171875 614.5 l 2
 71.6201171875 590.849609375 90.849609375 571.610351562 114.5 571.610351562 c 0
 138.16015625 571.610351562 157.389648438 590.849609375 157.389648438 614.5 c 2
 157.389648438 625.08984375 l 2
 157.389648438 648.740234375 138.16015625 667.98046875 114.5 667.98046875 c 2
 110.5 667.98046875 l 1
 110.5 689.58984375 l 1
 114.5 689.58984375 l 2
 138.16015625 689.58984375 157.389648438 708.8203125 157.389648438 732.48046875 c 2
 157.389648438 735.5 l 2
 157.389648438 759.150390625 138.16015625 778.389648438 114.5 778.389648438 c 0
 90.849609375 778.389648438 71.6201171875 759.150390625 71.6201171875 735.5 c 2
 71.6201171875 731.5 l 1
 50 731.5 l 1
 50 735.5 l 2
 50 771.0703125 78.9296875 800 114.5 800 c 0
 133.959960938 800 152.1796875 791.349609375 164.490234375 776.26953125 c 0
 173.849609375 764.809570312 179 750.33984375 179 735.509765625 c 2
 179 732.490234375 l 2
 179 717.66015625 173.849609375 703.1796875 164.490234375 691.719726562 c 0
 161.740234375 688.349609375 158.639648438 685.25 155.26953125 682.5 c 0
 153.66015625 681.1796875 151.98046875 679.940429688 150.25 678.790039062 c 1
 151.98046875 677.629882812 153.650390625 676.389648438 155.259765625 675.080078125 c 0
 158.639648438 672.330078125 161.740234375 669.219726562 164.490234375 665.849609375 c 0
 173.849609375 654.389648438 179 639.91015625 179 625.08984375 c 2
 179 614.5 l 2
 179 599.669921875 173.849609375 585.200195312 164.490234375 573.740234375 c 0
 152.1796875 558.650390625 133.959960938 550 114.5 550 c 0
50 10 m 1
 420 790 l 1
 450 790 l 1
 80 10 l 1
 50 10 l 1
428.059570312 149.860351562 m 1
 428.059570312 260 l 1
 450 260 l 1
 450 10 l 1
 428.0703125 10 l 1
 428.0703125 127.900390625 l 1
 384.009765625 127.900390625 l 2
 368.830078125 127.900390625 354.01953125 133.1796875 342.290039062 142.759765625 c 0
 338.849609375 145.580078125 335.66015625 148.75 332.860351562 152.200195312 c 0
 323.280273438 163.940429688 318 178.759765625 318 193.950195312 c 2
 318 260 l 1
 339.940429688 260 l 1
 339.940429688 193.950195312 l 2
 339.940429688 169.639648438 359.700195312 149.860351562 384 149.860351562 c 2
 428.059570312 149.860351562 l 1
EndSplineSet
Validated: 1
EndChar

StartChar: questiondown
Encoding: 191 191 124
Width: 500
Flags: HMW
LayerCount: 2
Fore
SplineSet
222.5 572.5 m 0
 222.5 587.6875 234.8125 600 250 600 c 0
 265.1875 600 277.5 587.6875 277.5 572.5 c 0
 277.5 557.3125 265.1875 545 250 545 c 0
 234.8125 545 222.5 557.3125 222.5 572.5 c 0
250 -155 m 0
 335.599609375 -155 405 -85.599609375 405 0 c 1
 450 0 l 1
 450 -110.459960938 360.459960938 -200 250 -200 c 0
 139.540039062 -200 50 -110.459960938 50 0 c 2
 50 10 l 2
 50 112.849609375 127.629882812 197.5703125 227.5 208.75 c 1
 227.5 400 l 1
 272.5 400 l 1
 272.5 163.379882812 l 1
 265.150390625 164.450195312 257.639648438 165 250 165 c 0
 242.360351562 165 234.849609375 164.450195312 227.5 163.379882812 c 0
 152.559570312 152.48046875 95 87.9599609375 95 10 c 2
 95 0 l 2
 95 -85.599609375 164.400390625 -155 250 -155 c 0
EndSplineSet
Validated: 1
EndChar

StartChar: Agrave
Encoding: 192 192 125
Width: 500
Flags: HMW
LayerCount: 2
Fore
SplineSet
295 835 m 1
 250 835 l 1
 205 1000 l 1
 250 1000 l 1
 295 835 l 1
396.51953125 245 m 1
 406.759765625 200 l 1
 450 10 l 1
 405 10 l 1
 361.759765625 200 l 1
 138.240234375 200 l 1
 95 10 l 1
 50 10 l 1
 93.240234375 200 l 1
 103.48046875 245 l 1
 227.5 790 l 1
 272.5 790 l 1
 396.51953125 245 l 1
148.48046875 245 m 1
 351.51953125 245 l 1
 250 691.129882812 l 1
 148.48046875 245 l 1
EndSplineSet
Validated: 1
EndChar

StartChar: Aacute
Encoding: 193 193 126
Width: 500
Flags: HMW
LayerCount: 2
Fore
SplineSet
295 1000 m 1
 250 835 l 1
 205 835 l 1
 250 1000 l 1
 295 1000 l 1
396.51953125 245 m 1
 406.759765625 200 l 1
 450 10 l 1
 405 10 l 1
 361.759765625 200 l 1
 138.240234375 200 l 1
 95 10 l 1
 50 10 l 1
 93.240234375 200 l 1
 103.48046875 245 l 1
 227.5 790 l 1
 272.5 790 l 1
 396.51953125 245 l 1
148.48046875 245 m 1
 351.51953125 245 l 1
 250 691.129882812 l 1
 148.48046875 245 l 1
EndSplineSet
Validated: 1
EndChar

StartChar: Acircumflex
Encoding: 194 194 127
Width: 500
Flags: HMW
LayerCount: 2
Fore
SplineSet
351.059570312 850 m 1
 251.059570312 945 l 1
 151.059570312 850 l 1
 151.059570312 905 l 1
 251.059570312 1000 l 1
 351.059570312 905 l 1
 351.059570312 850 l 1
396.51953125 245 m 1
 406.759765625 200 l 1
 450 10 l 1
 405 10 l 1
 361.759765625 200 l 1
 138.240234375 200 l 1
 95 10 l 1
 50 10 l 1
 93.240234375 200 l 1
 103.48046875 245 l 1
 227.5 790 l 1
 272.5 790 l 1
 396.51953125 245 l 1
148.48046875 245 m 1
 351.51953125 245 l 1
 250 691.129882812 l 1
 148.48046875 245 l 1
EndSplineSet
Validated: 1
EndChar

StartChar: Atilde
Encoding: 195 195 128
Width: 500
Flags: HMW
LayerCount: 2
Fore
SplineSet
396.51953125 245 m 1
 406.759765625 200 l 1
 450 10 l 1
 405 10 l 1
 361.759765625 200 l 1
 138.240234375 200 l 1
 95 10 l 1
 50 10 l 1
 93.240234375 200 l 1
 103.48046875 245 l 1
 227.5 790 l 1
 272.5 790 l 1
 396.51953125 245 l 1
148.48046875 245 m 1
 351.51953125 245 l 1
 250 691.129882812 l 1
 148.48046875 245 l 1
421 919.599609375 m 2
 420.360351562 917.889648438 414.3203125 902.450195312 399.950195312 887.110351562 c 0
 380.259765625 866.099609375 354.330078125 855 324.969726562 855 c 0
 293.530273438 855 263.9296875 868.799804688 245.76953125 891.91015625 c 0
 239.990234375 899.259765625 235.580078125 906.950195312 231.669921875 914.169921875 c 0
 231.01953125 915.349609375 230.379882812 916.549804688 229.75 917.740234375 c 0
 226.969726562 922.919921875 224.33984375 927.8203125 221.450195312 932.049804688 c 0
 221.150390625 932.490234375 220.83984375 932.9296875 220.530273438 933.360351562 c 0
 211 946.509765625 193.139648438 955 175.030273438 955 c 0
 158.690429688 955 144.83984375 949.330078125 133.870117188 938.16015625 c 0
 125.629882812 929.76953125 121.709960938 920.98046875 121.120117188 919.599609375 c 2
 79 935.400390625 l 2
 79.6396484375 937.110351562 85.6796875 952.549804688 100.049804688 967.889648438 c 0
 119.740234375 988.900390625 145.669921875 1000 175.030273438 1000 c 0
 207.580078125 1000 238.959960938 984.58984375 256.950195312 959.76953125 c 0
 257.509765625 959 258.059570312 958.209960938 258.599609375 957.4296875 c 0
 262.83984375 951.219726562 266.169921875 945.009765625 269.379882812 939.009765625 c 0
 269.990234375 937.879882812 270.599609375 936.75 271.209960938 935.620117188 c 0
 274.1796875 930.150390625 277.4296875 924.4296875 281.139648438 919.719726562 c 0
 290.690429688 907.559570312 307.490234375 900 324.969726562 900 c 0
 341.309570312 900 355.16015625 905.669921875 366.129882812 916.83984375 c 0
 374.370117188 925.23046875 378.290039062 934.01953125 378.879882812 935.400390625 c 2
 421 919.599609375 l 2
EndSplineSet
Validated: 1
EndChar

StartChar: Adieresis
Encoding: 196 196 129
Width: 500
Flags: HMW
LayerCount: 2
Fore
SplineSet
172.5 917.5 m 0
 172.5 932.6875 184.8125 945 200 945 c 0
 215.1875 945 227.5 932.6875 227.5 917.5 c 0
 227.5 902.3125 215.1875 890 200 890 c 0
 184.8125 890 172.5 902.3125 172.5 917.5 c 0
272.5 917.5 m 0
 272.5 932.6875 284.8125 945 300 945 c 0
 315.1875 945 327.5 932.6875 327.5 917.5 c 0
 327.5 902.3125 315.1875 890 300 890 c 0
 284.8125 890 272.5 902.3125 272.5 917.5 c 0
396.51953125 245 m 1
 406.759765625 200 l 1
 450 10 l 1
 405 10 l 1
 361.759765625 200 l 1
 138.240234375 200 l 1
 95 10 l 1
 50 10 l 1
 93.240234375 200 l 1
 103.48046875 245 l 1
 227.5 790 l 1
 272.5 790 l 1
 396.51953125 245 l 1
148.48046875 245 m 1
 351.51953125 245 l 1
 250 691.129882812 l 1
 148.48046875 245 l 1
EndSplineSet
Validated: 1
EndChar

StartChar: Aring
Encoding: 197 197 130
Width: 500
Flags: HMW
LayerCount: 2
Fore
SplineSet
396.51953125 245 m 1
 406.759765625 200 l 1
 450 10 l 1
 405 10 l 1
 361.759765625 200 l 1
 138.240234375 200 l 1
 95 10 l 1
 50 10 l 1
 93.240234375 200 l 1
 103.48046875 245 l 1
 227.5 790 l 1
 272.5 790 l 1
 396.51953125 245 l 1
148.48046875 245 m 1
 351.51953125 245 l 1
 250 691.129882812 l 1
 148.48046875 245 l 1
250 825 m 0
 201.6796875 825 162.5 864.1796875 162.5 912.5 c 0
 162.5 960.8203125 201.6796875 1000 250 1000 c 0
 298.3203125 1000 337.5 960.8203125 337.5 912.5 c 0
 337.5 864.1796875 298.3203125 825 250 825 c 0
250 967.5 m 0
 219.620117188 967.5 195 942.879882812 195 912.5 c 0
 195 882.120117188 219.620117188 857.5 250 857.5 c 0
 280.379882812 857.5 305 882.120117188 305 912.5 c 0
 305 942.879882812 280.379882812 967.5 250 967.5 c 0
EndSplineSet
Validated: 1
EndChar

StartChar: AE
Encoding: 198 198 131
Width: 800
Flags: HMW
LayerCount: 2
Fore
SplineSet
350.37890625 790 m 1
 395 790 l 1
 750.37890625 790 l 1
 750.37890625 745 l 1
 395 745 l 1
 395 435 l 1
 750.37890625 435 l 1
 750.37890625 390 l 1
 395 390 l 1
 395 245 l 1
 395 200 l 1
 395 55 l 1
 750.37890625 55 l 1
 750.37890625 10 l 1
 395 10 l 1
 350.37890625 10 l 1
 350 10 l 1
 350 200 l 1
 168.080078125 200 l 1
 95 10 l 1
 50 10 l 1
 123.080078125 200 l 1
 140.37890625 245 l 1
 350 790 l 1
 350.37890625 790 l 1
185.37890625 245 m 1
 350 245 l 1
 350 673 l 1
 185.37890625 245 l 1
EndSplineSet
EndChar

StartChar: Ccedilla
Encoding: 199 199 132
Width: 500
Flags: HMW
LayerCount: 2
Fore
SplineSet
227.5 1.259765625 m 1
 174.190429688 7.23046875 127.209960938 34.150390625 95 73.599609375 c 0
 66.8701171875 108.049804688 50 152.049804688 50 200 c 2
 50 600 l 2
 50 647.950195312 66.8701171875 691.950195312 95 726.400390625 c 0
 131.669921875 771.3203125 187.490234375 800 250 800 c 0
 360.459960938 800 450 710.459960938 450 600 c 1
 405 600 l 1
 405 685.599609375 335.599609375 755 250 755 c 0
 164.400390625 755 95 685.599609375 95 600 c 2
 95 200 l 2
 95 114.400390625 164.400390625 45 250 45 c 0
 335.599609375 45 405 114.400390625 405 200 c 1
 450 200 l 1
 450 97.150390625 372.370117188 12.4501953125 272.5 1.26953125 c 1
 272.5 -100 l 1
 227.5 -100 l 1
 227.5 1.259765625 l 1
EndSplineSet
Validated: 1
EndChar

StartChar: Egrave
Encoding: 200 200 133
Width: 500
Flags: HMW
LayerCount: 2
Fore
SplineSet
295 835 m 1
 250 835 l 1
 205 1000 l 1
 250 1000 l 1
 295 835 l 1
50 790 m 1
 95 790 l 1
 450 790 l 1
 450 745 l 1
 95 745 l 1
 95 435 l 1
 450 435 l 1
 450 390 l 1
 95 390 l 1
 95 55 l 1
 450 55 l 1
 450 10 l 1
 95 10 l 1
 50 10 l 1
 50 55 l 1
 50 390 l 1
 50 435 l 1
 50 745 l 1
 50 790 l 1
EndSplineSet
Validated: 1
EndChar

StartChar: Eacute
Encoding: 201 201 134
Width: 500
Flags: HMW
LayerCount: 2
Fore
SplineSet
295 1000 m 1
 250 835 l 1
 205 835 l 1
 250 1000 l 1
 295 1000 l 1
450 745 m 1
 95 745 l 1
 95 435 l 1
 450 435 l 1
 450 390 l 1
 95 390 l 1
 95 55 l 1
 450 55 l 1
 450 10 l 1
 95 10 l 1
 50 10 l 1
 50 55 l 1
 50 390 l 1
 50 435 l 1
 50 745 l 1
 50 790 l 1
 95 790 l 1
 450 790 l 1
 450 745 l 1
EndSplineSet
Validated: 1
EndChar

StartChar: Ecircumflex
Encoding: 202 202 135
Width: 500
Flags: HMW
LayerCount: 2
Fore
SplineSet
350 905 m 1
 350 850 l 1
 250 945 l 1
 150 850 l 1
 150 905 l 1
 250 1000 l 1
 350 905 l 1
50 790 m 1
 95 790 l 1
 450 790 l 1
 450 745 l 1
 95 745 l 1
 95 435 l 1
 450 435 l 1
 450 390 l 1
 95 390 l 1
 95 55 l 1
 450 55 l 1
 450 10 l 1
 95 10 l 1
 50 10 l 1
 50 55 l 1
 50 390 l 1
 50 435 l 1
 50 745 l 1
 50 790 l 1
EndSplineSet
Validated: 1
EndChar

StartChar: Edieresis
Encoding: 203 203 136
Width: 500
Flags: HMW
LayerCount: 2
Fore
SplineSet
172.5 917.5 m 0
 172.5 932.6875 184.8125 945 200 945 c 0
 215.1875 945 227.5 932.6875 227.5 917.5 c 0
 227.5 902.3125 215.1875 890 200 890 c 0
 184.8125 890 172.5 902.3125 172.5 917.5 c 0
272.5 917.5 m 0
 272.5 932.6875 284.8125 945 300 945 c 0
 315.1875 945 327.5 932.6875 327.5 917.5 c 0
 327.5 902.3125 315.1875 890 300 890 c 0
 284.8125 890 272.5 902.3125 272.5 917.5 c 0
50 790 m 1
 95 790 l 1
 450 790 l 1
 450 745 l 1
 95 745 l 1
 95 435 l 1
 450 435 l 1
 450 390 l 1
 95 390 l 1
 95 55 l 1
 450 55 l 1
 450 10 l 1
 95 10 l 1
 50 10 l 1
 50 55 l 1
 50 390 l 1
 50 435 l 1
 50 745 l 1
 50 790 l 1
EndSplineSet
Validated: 1
EndChar

StartChar: Igrave
Encoding: 204 204 137
Width: 190
Flags: HMW
LayerCount: 2
Fore
SplineSet
140 835 m 1
 95 835 l 1
 50 1000 l 1
 95 1000 l 1
 140 835 l 1
50 55 m 1
 72.5 55 l 1
 72.5 745 l 1
 50 745 l 1
 50 790 l 1
 72.5 790 l 1
 117.5 790 l 1
 140 790 l 1
 140 745 l 1
 117.5 745 l 1
 117.5 55 l 1
 140 55 l 1
 140 10 l 1
 117.5 10 l 1
 72.5 10 l 1
 50 10 l 1
 50 55 l 1
EndSplineSet
Validated: 1
EndChar

StartChar: Iacute
Encoding: 205 205 138
Width: 190
Flags: HMW
LayerCount: 2
Fore
SplineSet
140 1000 m 1
 95 835 l 1
 50 835 l 1
 95 1000 l 1
 140 1000 l 1
50 55 m 1
 72.5 55 l 1
 72.5 745 l 1
 50 745 l 1
 50 790 l 1
 72.5 790 l 1
 117.5 790 l 1
 140 790 l 1
 140 745 l 1
 117.5 745 l 1
 117.5 55 l 1
 140 55 l 1
 140 10 l 1
 117.5 10 l 1
 72.5 10 l 1
 50 10 l 1
 50 55 l 1
EndSplineSet
Validated: 1
EndChar

StartChar: Icircumflex
Encoding: 206 206 139
Width: 300
Flags: HMW
LayerCount: 2
Fore
SplineSet
250 905 m 1
 250 850 l 1
 150 945 l 1
 50 850 l 1
 50 905 l 1
 150 1000 l 1
 250 905 l 1
195 745 m 1
 172.5 745 l 1
 172.5 55 l 1
 195 55 l 1
 195 10 l 1
 172.5 10 l 1
 127.5 10 l 1
 105 10 l 1
 105 55 l 1
 127.5 55 l 1
 127.5 745 l 1
 105 745 l 1
 105 790 l 1
 127.5 790 l 1
 172.5 790 l 1
 195 790 l 1
 195 745 l 1
EndSplineSet
Validated: 1
EndChar

StartChar: Idieresis
Encoding: 207 207 140
Width: 255
Flags: HMW
LayerCount: 2
Fore
SplineSet
50 917.5 m 0
 50 932.6875 62.3125 945 77.5 945 c 0
 92.6875 945 105 932.6875 105 917.5 c 0
 105 902.3125 92.6875 890 77.5 890 c 0
 62.3125 890 50 902.3125 50 917.5 c 0
150 917.5 m 0
 150 932.6875 162.3125 945 177.5 945 c 0
 192.6875 945 205 932.6875 205 917.5 c 0
 205 902.3125 192.6875 890 177.5 890 c 0
 162.3125 890 150 902.3125 150 917.5 c 0
105 790 m 1
 150 790 l 1
 172.5 790 l 1
 172.5 745 l 1
 150 745 l 1
 150 55 l 1
 172.5 55 l 1
 172.5 10 l 1
 150 10 l 1
 105 10 l 1
 82.5 10 l 1
 82.5 55 l 1
 105 55 l 1
 105 745 l 1
 82.5 745 l 1
 82.5 790 l 1
 105 790 l 1
EndSplineSet
Validated: 1
EndChar

StartChar: Eth
Encoding: 208 208 141
Width: 578
Flags: HMW
LayerCount: 2
Fore
SplineSet
453.900390625 745 m 0
 464.370117188 736.459960938 473.959960938 726.870117188 482.5 716.400390625 c 0
 510.629882812 681.950195312 527.5 637.950195312 527.5 590 c 2
 527.5 210 l 2
 527.5 162.049804688 510.629882812 118.049804688 482.5 83.599609375 c 0
 473.959960938 73.1298828125 464.370117188 63.5400390625 453.900390625 55 c 0
 419.450195312 26.8701171875 375.450195312 10 327.5 10 c 2
 172.5 10 l 1
 127.5 10 l 1
 127.5 390 l 1
 50 390 l 1
 50 435 l 1
 127.5 435 l 1
 127.5 790 l 1
 172.5 790 l 1
 327.5 790 l 2
 375.450195312 790 419.450195312 773.129882812 453.900390625 745 c 0
482.5 210 m 2
 482.5 590 l 2
 482.5 675.599609375 413.099609375 745 327.5 745 c 2
 172.5 745 l 1
 172.5 435 l 1
 250 435 l 1
 250 390 l 1
 172.5 390 l 1
 172.5 55 l 1
 327.5 55 l 2
 413.099609375 55 482.5 124.400390625 482.5 210 c 2
EndSplineSet
EndChar

StartChar: Ntilde
Encoding: 209 209 142
Width: 500
Flags: HMW
LayerCount: 2
Fore
SplineSet
95 725 m 1
 95 10 l 1
 50 10 l 1
 50 790 l 1
 95 790 l 1
 405 455 l 1
 405 790 l 1
 450 790 l 1
 450 10 l 1
 405 10 l 1
 405 390 l 1
 95 725 l 1
421 919.599609375 m 2
 420.360351562 917.889648438 414.3203125 902.450195312 399.950195312 887.110351562 c 0
 380.259765625 866.099609375 354.330078125 855 324.969726562 855 c 0
 293.530273438 855 263.9296875 868.799804688 245.76953125 891.91015625 c 0
 239.990234375 899.259765625 235.580078125 906.950195312 231.669921875 914.169921875 c 0
 231.01953125 915.349609375 230.379882812 916.549804688 229.75 917.740234375 c 0
 226.969726562 922.919921875 224.33984375 927.8203125 221.450195312 932.049804688 c 0
 221.150390625 932.490234375 220.83984375 932.9296875 220.530273438 933.360351562 c 0
 211 946.509765625 193.139648438 955 175.030273438 955 c 0
 158.690429688 955 144.83984375 949.330078125 133.870117188 938.16015625 c 0
 125.629882812 929.76953125 121.709960938 920.98046875 121.120117188 919.599609375 c 2
 79 935.400390625 l 2
 79.6396484375 937.110351562 85.6796875 952.549804688 100.049804688 967.889648438 c 0
 119.740234375 988.900390625 145.669921875 1000 175.030273438 1000 c 0
 207.580078125 1000 238.959960938 984.58984375 256.950195312 959.76953125 c 0
 257.509765625 959 258.059570312 958.209960938 258.599609375 957.4296875 c 0
 262.83984375 951.219726562 266.169921875 945.009765625 269.379882812 939.009765625 c 0
 269.990234375 937.879882812 270.599609375 936.75 271.209960938 935.620117188 c 0
 274.1796875 930.150390625 277.4296875 924.4296875 281.139648438 919.719726562 c 0
 290.690429688 907.559570312 307.490234375 900 324.969726562 900 c 0
 341.309570312 900 355.16015625 905.669921875 366.129882812 916.83984375 c 0
 374.370117188 925.23046875 378.290039062 934.01953125 378.879882812 935.400390625 c 2
 421 919.599609375 l 2
EndSplineSet
Validated: 1
EndChar

StartChar: Ograve
Encoding: 210 210 143
Width: 500
Flags: HMW
LayerCount: 2
Fore
SplineSet
295 835 m 1
 250 835 l 1
 205 1000 l 1
 250 1000 l 1
 295 835 l 1
250 800 m 0
 312.509765625 800 368.330078125 771.3203125 405 726.400390625 c 0
 433.129882812 691.950195312 450 647.950195312 450 600 c 2
 450 200 l 2
 450 152.049804688 433.129882812 108.049804688 405 73.599609375 c 0
 368.330078125 28.6796875 312.509765625 0 250 0 c 0
 187.490234375 0 131.669921875 28.6796875 95 73.599609375 c 0
 66.8701171875 108.049804688 50 152.049804688 50 200 c 2
 50 600 l 2
 50 647.950195312 66.8701171875 691.950195312 95 726.400390625 c 0
 131.669921875 771.3203125 187.490234375 800 250 800 c 0
405 200 m 2
 405 600 l 2
 405 685.599609375 335.599609375 755 250 755 c 0
 164.400390625 755 95 685.599609375 95 600 c 2
 95 200 l 2
 95 114.400390625 164.400390625 45 250 45 c 0
 335.599609375 45 405 114.400390625 405 200 c 2
EndSplineSet
Validated: 1
EndChar

StartChar: Oacute
Encoding: 211 211 144
Width: 500
Flags: HMW
LayerCount: 2
Fore
SplineSet
295 1000 m 1
 250 835 l 1
 205 835 l 1
 250 1000 l 1
 295 1000 l 1
250 800 m 0
 312.509765625 800 368.330078125 771.3203125 405 726.400390625 c 0
 433.129882812 691.950195312 450 647.950195312 450 600 c 2
 450 200 l 2
 450 152.049804688 433.129882812 108.049804688 405 73.599609375 c 0
 368.330078125 28.6796875 312.509765625 0 250 0 c 0
 187.490234375 0 131.669921875 28.6796875 95 73.599609375 c 0
 66.8701171875 108.049804688 50 152.049804688 50 200 c 2
 50 600 l 2
 50 647.950195312 66.8701171875 691.950195312 95 726.400390625 c 0
 131.669921875 771.3203125 187.490234375 800 250 800 c 0
405 200 m 2
 405 600 l 2
 405 685.599609375 335.599609375 755 250 755 c 0
 164.400390625 755 95 685.599609375 95 600 c 2
 95 200 l 2
 95 114.400390625 164.400390625 45 250 45 c 0
 335.599609375 45 405 114.400390625 405 200 c 2
EndSplineSet
Validated: 1
EndChar

StartChar: Ocircumflex
Encoding: 212 212 145
Width: 500
Flags: HMW
LayerCount: 2
Fore
SplineSet
350 850 m 1
 250 945 l 1
 150 850 l 1
 150 905 l 1
 250 1000 l 1
 350 905 l 1
 350 850 l 1
250 800 m 0
 312.509765625 800 368.330078125 771.3203125 405 726.400390625 c 0
 433.129882812 691.950195312 450 647.950195312 450 600 c 2
 450 200 l 2
 450 152.049804688 433.129882812 108.049804688 405 73.599609375 c 0
 368.330078125 28.6796875 312.509765625 0 250 0 c 0
 187.490234375 0 131.669921875 28.6796875 95 73.599609375 c 0
 66.8701171875 108.049804688 50 152.049804688 50 200 c 2
 50 600 l 2
 50 647.950195312 66.8701171875 691.950195312 95 726.400390625 c 0
 131.669921875 771.3203125 187.490234375 800 250 800 c 0
405 200 m 2
 405 600 l 2
 405 685.599609375 335.599609375 755 250 755 c 0
 164.400390625 755 95 685.599609375 95 600 c 2
 95 200 l 2
 95 114.400390625 164.400390625 45 250 45 c 0
 335.599609375 45 405 114.400390625 405 200 c 2
EndSplineSet
Validated: 1
EndChar

StartChar: Otilde
Encoding: 213 213 146
Width: 500
Flags: HMW
LayerCount: 2
Fore
SplineSet
250 800 m 0
 312.509765625 800 368.330078125 771.3203125 405 726.400390625 c 0
 433.129882812 691.950195312 450 647.950195312 450 600 c 2
 450 200 l 2
 450 152.049804688 433.129882812 108.049804688 405 73.599609375 c 0
 368.330078125 28.6796875 312.509765625 0 250 0 c 0
 187.490234375 0 131.669921875 28.6796875 95 73.599609375 c 0
 66.8701171875 108.049804688 50 152.049804688 50 200 c 2
 50 600 l 2
 50 647.950195312 66.8701171875 691.950195312 95 726.400390625 c 0
 131.669921875 771.3203125 187.490234375 800 250 800 c 0
405 200 m 2
 405 600 l 2
 405 685.599609375 335.599609375 755 250 755 c 0
 164.400390625 755 95 685.599609375 95 600 c 2
 95 200 l 2
 95 114.400390625 164.400390625 45 250 45 c 0
 335.599609375 45 405 114.400390625 405 200 c 2
421 919.599609375 m 2
 420.360351562 917.889648438 414.3203125 902.450195312 399.950195312 887.110351562 c 0
 380.259765625 866.099609375 354.330078125 855 324.969726562 855 c 0
 293.530273438 855 263.9296875 868.799804688 245.76953125 891.91015625 c 0
 239.990234375 899.259765625 235.580078125 906.950195312 231.669921875 914.169921875 c 0
 231.01953125 915.349609375 230.379882812 916.549804688 229.75 917.740234375 c 0
 226.969726562 922.919921875 224.33984375 927.8203125 221.450195312 932.049804688 c 0
 221.150390625 932.490234375 220.83984375 932.9296875 220.530273438 933.360351562 c 0
 211 946.509765625 193.139648438 955 175.030273438 955 c 0
 158.690429688 955 144.83984375 949.330078125 133.870117188 938.16015625 c 0
 125.629882812 929.76953125 121.709960938 920.98046875 121.120117188 919.599609375 c 2
 79 935.400390625 l 2
 79.6396484375 937.110351562 85.6796875 952.549804688 100.049804688 967.889648438 c 0
 119.740234375 988.900390625 145.669921875 1000 175.030273438 1000 c 0
 207.580078125 1000 238.959960938 984.58984375 256.950195312 959.76953125 c 0
 257.509765625 959 258.059570312 958.209960938 258.599609375 957.4296875 c 0
 262.83984375 951.219726562 266.169921875 945.009765625 269.379882812 939.009765625 c 0
 269.990234375 937.879882812 270.599609375 936.75 271.209960938 935.620117188 c 0
 274.1796875 930.150390625 277.4296875 924.4296875 281.139648438 919.719726562 c 0
 290.690429688 907.559570312 307.490234375 900 324.969726562 900 c 0
 341.309570312 900 355.16015625 905.669921875 366.129882812 916.83984375 c 0
 374.370117188 925.23046875 378.290039062 934.01953125 378.879882812 935.400390625 c 2
 421 919.599609375 l 2
EndSplineSet
Validated: 1
EndChar

StartChar: Odieresis
Encoding: 214 214 147
Width: 500
Flags: HMW
LayerCount: 2
Fore
SplineSet
172.5 912.5 m 0
 172.5 927.6875 184.8125 940 200 940 c 0
 215.1875 940 227.5 927.6875 227.5 912.5 c 0
 227.5 897.3125 215.1875 885 200 885 c 0
 184.8125 885 172.5 897.3125 172.5 912.5 c 0
272.5 912.5 m 0
 272.5 927.6875 284.8125 940 300 940 c 0
 315.1875 940 327.5 927.6875 327.5 912.5 c 0
 327.5 897.3125 315.1875 885 300 885 c 0
 284.8125 885 272.5 897.3125 272.5 912.5 c 0
250 800 m 0
 312.509765625 800 368.330078125 771.3203125 405 726.400390625 c 0
 433.129882812 691.950195312 450 647.950195312 450 600 c 2
 450 200 l 2
 450 152.049804688 433.129882812 108.049804688 405 73.599609375 c 0
 368.330078125 28.6796875 312.509765625 0 250 0 c 0
 187.490234375 0 131.669921875 28.6796875 95 73.599609375 c 0
 66.8701171875 108.049804688 50 152.049804688 50 200 c 2
 50 600 l 2
 50 647.950195312 66.8701171875 691.950195312 95 726.400390625 c 0
 131.669921875 771.3203125 187.490234375 800 250 800 c 0
405 200 m 2
 405 600 l 2
 405 685.599609375 335.599609375 755 250 755 c 0
 164.400390625 755 95 685.599609375 95 600 c 2
 95 200 l 2
 95 114.400390625 164.400390625 45 250 45 c 0
 335.599609375 45 405 114.400390625 405 200 c 2
EndSplineSet
Validated: 1
EndChar

StartChar: multiply
Encoding: 215 215 148
Width: 415
Flags: HMW
LayerCount: 2
Fore
SplineSet
332.83984375 497.330078125 m 1
 364.66015625 465.509765625 l 1
 239.150390625 340 l 1
 364.66015625 214.490234375 l 1
 332.83984375 182.669921875 l 1
 207.330078125 308.1796875 l 1
 81.8203125 182.669921875 l 1
 50 214.490234375 l 1
 175.509765625 340 l 1
 50 465.509765625 l 1
 81.8203125 497.330078125 l 1
 207.330078125 371.8203125 l 1
 332.83984375 497.330078125 l 1
EndSplineSet
EndChar

StartChar: Oslash
Encoding: 216 216 149
Width: 500
Flags: HMW
LayerCount: 2
Fore
SplineSet
449.049804688 747.690429688 m 1
 424.280273438 698.169921875 l 1
 440.650390625 669.169921875 450 635.6796875 450 600 c 2
 450 200 l 2
 450 152.049804688 433.129882812 108.049804688 405 73.599609375 c 0
 368.330078125 28.6796875 312.509765625 0 250 0 c 0
 193.349609375 0 142.200195312 23.5498046875 105.809570312 61.400390625 c 1
 91.2001953125 32.1796875 l 1
 50.9501953125 52.3095703125 l 1
 75.7197265625 101.830078125 l 1
 59.349609375 130.830078125 50 164.3203125 50 200 c 2
 50 600 l 2
 50 647.950195312 66.8701171875 691.950195312 95 726.400390625 c 0
 131.669921875 771.3203125 187.490234375 800 250 800 c 0
 306.650390625 800 357.799804688 776.450195312 394.190429688 738.599609375 c 1
 408.799804688 767.8203125 l 1
 449.049804688 747.690429688 l 1
95 200 m 2
 95 184.040039062 97.41015625 168.650390625 101.900390625 154.169921875 c 1
 372.419921875 695.0703125 l 1
 344.059570312 731.530273438 299.76953125 755 250 755 c 0
 164.400390625 755 95 685.599609375 95 600 c 2
 95 200 l 2
405 600 m 2
 405 615.959960938 402.58984375 631.349609375 398.099609375 645.830078125 c 1
 127.580078125 104.9296875 l 1
 155.940429688 68.4697265625 200.23046875 45 250 45 c 0
 335.599609375 45 405 114.400390625 405 200 c 2
 405 600 l 2
EndSplineSet
Validated: 1
EndChar

StartChar: Ugrave
Encoding: 217 217 150
Width: 500
Flags: HMW
LayerCount: 2
Fore
SplineSet
205 1000 m 1
 250 1000 l 1
 295 835 l 1
 250 835 l 1
 205 1000 l 1
405 326.400390625 m 1
 405 790 l 1
 450 790 l 1
 450 200 l 2
 450 152.049804688 433.129882812 108.049804688 405 73.599609375 c 0
 368.330078125 28.6796875 312.509765625 0 250 0 c 0
 187.490234375 0 131.669921875 28.6796875 95 73.599609375 c 0
 66.8701171875 108.049804688 50 152.049804688 50 200 c 2
 50 790 l 1
 95 790 l 1
 95 326.400390625 l 1
 95 200 l 2
 95 114.400390625 164.400390625 45 250 45 c 0
 335.599609375 45 405 114.400390625 405 200 c 2
 405 326.400390625 l 1
EndSplineSet
Validated: 1
EndChar

StartChar: Uacute
Encoding: 218 218 151
Width: 500
Flags: HMW
LayerCount: 2
Fore
SplineSet
205 835 m 1
 250 1000 l 1
 295 1000 l 1
 250 835 l 1
 205 835 l 1
405 326.400390625 m 1
 405 790 l 1
 450 790 l 1
 450 200 l 2
 450 152.049804688 433.129882812 108.049804688 405 73.599609375 c 0
 368.330078125 28.6796875 312.509765625 0 250 0 c 0
 187.490234375 0 131.669921875 28.6796875 95 73.599609375 c 0
 66.8701171875 108.049804688 50 152.049804688 50 200 c 2
 50 790 l 1
 95 790 l 1
 95 326.400390625 l 1
 95 200 l 2
 95 114.400390625 164.400390625 45 250 45 c 0
 335.599609375 45 405 114.400390625 405 200 c 2
 405 326.400390625 l 1
EndSplineSet
Validated: 1
EndChar

StartChar: Ucircumflex
Encoding: 219 219 152
Width: 500
Flags: HMW
LayerCount: 2
Fore
SplineSet
350 850 m 1
 250 945 l 1
 150 850 l 1
 150 905 l 1
 250 1000 l 1
 350 905 l 1
 350 850 l 1
405 326.400390625 m 1
 405 790 l 1
 450 790 l 1
 450 200 l 2
 450 152.049804688 433.129882812 108.049804688 405 73.599609375 c 0
 368.330078125 28.6796875 312.509765625 0 250 0 c 0
 187.490234375 0 131.669921875 28.6796875 95 73.599609375 c 0
 66.8701171875 108.049804688 50 152.049804688 50 200 c 2
 50 790 l 1
 95 790 l 1
 95 326.400390625 l 1
 95 200 l 2
 95 114.400390625 164.400390625 45 250 45 c 0
 335.599609375 45 405 114.400390625 405 200 c 2
 405 326.400390625 l 1
EndSplineSet
Validated: 1
EndChar

StartChar: Udieresis
Encoding: 220 220 153
Width: 500
Flags: HMW
LayerCount: 2
Fore
SplineSet
172.5 917.5 m 0
 172.5 932.6875 184.8125 945 200 945 c 0
 215.1875 945 227.5 932.6875 227.5 917.5 c 0
 227.5 902.3125 215.1875 890 200 890 c 0
 184.8125 890 172.5 902.3125 172.5 917.5 c 0
272.5 917.5 m 0
 272.5 932.6875 284.8125 945 300 945 c 0
 315.1875 945 327.5 932.6875 327.5 917.5 c 0
 327.5 902.3125 315.1875 890 300 890 c 0
 284.8125 890 272.5 902.3125 272.5 917.5 c 0
250 0 m 0
 187.490234375 0 131.669921875 28.6796875 95 73.599609375 c 0
 66.8701171875 108.049804688 50 152.049804688 50 200 c 2
 50 790 l 1
 95 790 l 1
 95 326.400390625 l 1
 95 200 l 2
 95 114.400390625 164.400390625 45 250 45 c 0
 335.599609375 45 405 114.400390625 405 200 c 2
 405 326.400390625 l 1
 405 790 l 1
 450 790 l 1
 450 200 l 2
 450 152.049804688 433.129882812 108.049804688 405 73.599609375 c 0
 368.330078125 28.6796875 312.509765625 0 250 0 c 0
EndSplineSet
Validated: 1
EndChar

StartChar: Yacute
Encoding: 221 221 154
Width: 500
Flags: HMW
LayerCount: 2
Fore
SplineSet
295 1000 m 1
 250 835 l 1
 205 835 l 1
 250 1000 l 1
 295 1000 l 1
272.5 483.940429688 m 1
 405 790 l 1
 450 790 l 1
 272.5 380 l 1
 272.5 10 l 1
 227.5 10 l 1
 227.5 380 l 1
 50 790 l 1
 95 790 l 1
 227.5 483.940429688 l 1
 250 431.969726562 l 1
 272.5 483.940429688 l 1
EndSplineSet
Validated: 1
EndChar

StartChar: Thorn
Encoding: 222 222 155
Width: 500
Flags: HMW
LayerCount: 2
Fore
SplineSet
376.389648438 405 m 0
 385.650390625 397.440429688 394.209960938 389.0703125 401.98046875 380 c 0
 431.9296875 345.040039062 450 299.629882812 450 250 c 0
 450 200.370117188 431.9296875 154.959960938 401.98046875 120 c 0
 365.309570312 77.150390625 310.830078125 50 250 50 c 2
 95 50 l 1
 95 10 l 1
 50 10 l 1
 50 50 l 1
 50 95 l 1
 50 405 l 1
 50 450 l 1
 50 490 l 1
 95 490 l 1
 95 450 l 1
 250 450 l 2
 297.950195312 450 341.950195312 433.129882812 376.389648438 405 c 0
250 95 m 2
 335.599609375 95 405 164.400390625 405 250 c 0
 405 335.599609375 335.599609375 405 250 405 c 2
 95 405 l 1
 95 95 l 1
 250 95 l 2
EndSplineSet
Validated: 1
EndChar

StartChar: germandbls
Encoding: 223 223 156
Width: 500
Flags: HMW
LayerCount: 2
Fore
SplineSet
250 800 m 0
 312.509765625 800 368.330078125 771.3203125 405 726.400390625 c 0
 433.129882812 691.950195312 450 647.950195312 450 600 c 2
 450 590 l 2
 450 542.049804688 433.129882812 498.049804688 405 463.599609375 c 0
 387.849609375 442.58984375 366.509765625 425.129882812 342.25 412.5 c 1
 366.509765625 399.870117188 387.849609375 382.41015625 405 361.400390625 c 0
 433.129882812 326.950195312 450 282.950195312 450 235 c 2
 450 200 l 2
 450 152.049804688 433.129882812 108.049804688 405 73.599609375 c 0
 368.330078125 28.6796875 312.509765625 0 250 0 c 1
 250 45 l 1
 335.599609375 45 405 114.400390625 405 200 c 2
 405 235 l 2
 405 320.599609375 335.599609375 390 250 390 c 1
 250 435 l 1
 335.599609375 435 405 504.400390625 405 590 c 2
 405 600 l 2
 405 685.599609375 335.599609375 755 250 755 c 0
 164.400390625 755 95 685.599609375 95 600 c 2
 95 10 l 1
 50 10 l 1
 50 600 l 2
 50 647.950195312 66.8701171875 691.950195312 95 726.400390625 c 0
 131.669921875 771.3203125 187.490234375 800 250 800 c 0
EndSplineSet
Validated: 1
EndChar

StartChar: agrave
Encoding: 224 224 157
Width: 500
Flags: HMW
LayerCount: 2
Fore
SplineSet
295 537.669921875 m 1
 250 537.669921875 l 1
 205 702.669921875 l 1
 250 702.669921875 l 1
 295 537.669921875 l 1
405 426.379882812 m 1
 405 490 l 1
 450 490 l 1
 450 300 l 1
 450 200 l 1
 450 10 l 1
 405 10 l 1
 405 73.6201171875 l 1
 397.450195312 64.3603515625 389.080078125 55.7900390625 380 48.01953125 c 0
 345.040039062 18.0703125 299.629882812 0 250 0 c 0
 200.370117188 0 154.959960938 18.0703125 120 48.01953125 c 0
 110.919921875 55.7900390625 102.549804688 64.3603515625 95 73.6201171875 c 0
 66.8603515625 108.059570312 50 152.059570312 50 200 c 2
 50 300 l 2
 50 347.940429688 66.8603515625 391.940429688 95 426.379882812 c 0
 102.549804688 435.639648438 110.919921875 444.209960938 120 451.98046875 c 0
 154.959960938 481.9296875 200.370117188 500 250 500 c 0
 299.629882812 500 345.040039062 481.9296875 380 451.98046875 c 0
 389.080078125 444.209960938 397.450195312 435.639648438 405 426.379882812 c 1
250 45 m 0
 335.599609375 45 405 114.400390625 405 200 c 2
 405 300 l 2
 405 385.599609375 335.599609375 455 250 455 c 0
 164.400390625 455 95 385.599609375 95 300 c 2
 95 200 l 2
 95 114.400390625 164.400390625 45 250 45 c 0
EndSplineSet
Validated: 1
EndChar

StartChar: aacute
Encoding: 225 225 158
Width: 500
Flags: HMW
LayerCount: 2
Fore
SplineSet
295 702.669921875 m 1
 250 537.669921875 l 1
 205 537.669921875 l 1
 250 702.669921875 l 1
 295 702.669921875 l 1
405 426.379882812 m 1
 405 490 l 1
 450 490 l 1
 450 300 l 1
 450 200 l 1
 450 10 l 1
 405 10 l 1
 405 73.6201171875 l 1
 397.450195312 64.3603515625 389.080078125 55.7900390625 380 48.01953125 c 0
 345.040039062 18.0703125 299.629882812 0 250 0 c 0
 200.370117188 0 154.959960938 18.0703125 120 48.01953125 c 0
 110.919921875 55.7900390625 102.549804688 64.3603515625 95 73.6201171875 c 0
 66.8603515625 108.059570312 50 152.059570312 50 200 c 2
 50 300 l 2
 50 347.940429688 66.8603515625 391.940429688 95 426.379882812 c 0
 102.549804688 435.639648438 110.919921875 444.209960938 120 451.98046875 c 0
 154.959960938 481.9296875 200.370117188 500 250 500 c 0
 299.629882812 500 345.040039062 481.9296875 380 451.98046875 c 0
 389.080078125 444.209960938 397.450195312 435.639648438 405 426.379882812 c 1
250 45 m 0
 335.599609375 45 405 114.400390625 405 200 c 2
 405 300 l 2
 405 385.599609375 335.599609375 455 250 455 c 0
 164.400390625 455 95 385.599609375 95 300 c 2
 95 200 l 2
 95 114.400390625 164.400390625 45 250 45 c 0
EndSplineSet
Validated: 1
EndChar

StartChar: acircumflex
Encoding: 226 226 159
Width: 500
Flags: HMW
LayerCount: 2
Fore
SplineSet
350 552.669921875 m 1
 250 647.669921875 l 1
 150 552.669921875 l 1
 150 607.669921875 l 1
 250 702.669921875 l 1
 350 607.669921875 l 1
 350 552.669921875 l 1
405 426.379882812 m 1
 405 490 l 1
 450 490 l 1
 450 300 l 1
 450 200 l 1
 450 10 l 1
 405 10 l 1
 405 73.6201171875 l 1
 397.450195312 64.3603515625 389.080078125 55.7900390625 380 48.01953125 c 0
 345.040039062 18.0703125 299.629882812 0 250 0 c 0
 200.370117188 0 154.959960938 18.0703125 120 48.01953125 c 0
 110.919921875 55.7900390625 102.549804688 64.3603515625 95 73.6201171875 c 0
 66.8603515625 108.059570312 50 152.059570312 50 200 c 2
 50 300 l 2
 50 347.940429688 66.8603515625 391.940429688 95 426.379882812 c 0
 102.549804688 435.639648438 110.919921875 444.209960938 120 451.98046875 c 0
 154.959960938 481.9296875 200.370117188 500 250 500 c 0
 299.629882812 500 345.040039062 481.9296875 380 451.98046875 c 0
 389.080078125 444.209960938 397.450195312 435.639648438 405 426.379882812 c 1
250 45 m 0
 335.599609375 45 405 114.400390625 405 200 c 2
 405 300 l 2
 405 385.599609375 335.599609375 455 250 455 c 0
 164.400390625 455 95 385.599609375 95 300 c 2
 95 200 l 2
 95 114.400390625 164.400390625 45 250 45 c 0
EndSplineSet
Validated: 1
EndChar

StartChar: atilde
Encoding: 227 227 160
Width: 500
Flags: HMW
LayerCount: 2
Fore
SplineSet
405 426.379882812 m 1
 405 490 l 1
 450 490 l 1
 450 300 l 1
 450 200 l 1
 450 10 l 1
 405 10 l 1
 405 73.6201171875 l 1
 397.450195312 64.3603515625 389.080078125 55.7900390625 380 48.01953125 c 0
 345.040039062 18.0703125 299.629882812 0 250 0 c 0
 200.370117188 0 154.959960938 18.0703125 120 48.01953125 c 0
 110.919921875 55.7900390625 102.549804688 64.3603515625 95 73.6201171875 c 0
 66.8603515625 108.059570312 50 152.059570312 50 200 c 2
 50 300 l 2
 50 347.940429688 66.8603515625 391.940429688 95 426.379882812 c 0
 102.549804688 435.639648438 110.919921875 444.209960938 120 451.98046875 c 0
 154.959960938 481.9296875 200.370117188 500 250 500 c 0
 299.629882812 500 345.040039062 481.9296875 380 451.98046875 c 0
 389.080078125 444.209960938 397.450195312 435.639648438 405 426.379882812 c 1
250 45 m 0
 335.599609375 45 405 114.400390625 405 200 c 2
 405 300 l 2
 405 385.599609375 335.599609375 455 250 455 c 0
 164.400390625 455 95 385.599609375 95 300 c 2
 95 200 l 2
 95 114.400390625 164.400390625 45 250 45 c 0
421 622.26953125 m 2
 420.360351562 620.559570312 414.3203125 605.120117188 399.950195312 589.780273438 c 0
 380.259765625 568.76953125 354.330078125 557.669921875 324.969726562 557.669921875 c 0
 293.530273438 557.669921875 263.9296875 571.469726562 245.76953125 594.580078125 c 0
 239.990234375 601.9296875 235.580078125 609.620117188 231.669921875 616.83984375 c 0
 231.01953125 618.01953125 230.379882812 619.219726562 229.75 620.41015625 c 0
 226.969726562 625.58984375 224.33984375 630.490234375 221.450195312 634.719726562 c 0
 221.150390625 635.16015625 220.83984375 635.599609375 220.530273438 636.030273438 c 0
 211 649.1796875 193.139648438 657.669921875 175.030273438 657.669921875 c 0
 158.690429688 657.669921875 144.83984375 652 133.870117188 640.830078125 c 0
 125.629882812 632.440429688 121.709960938 623.650390625 121.120117188 622.26953125 c 2
 79 638.0703125 l 2
 79.6396484375 639.780273438 85.6796875 655.219726562 100.049804688 670.559570312 c 0
 119.740234375 691.5703125 145.669921875 702.669921875 175.030273438 702.669921875 c 0
 207.580078125 702.669921875 238.959960938 687.259765625 256.950195312 662.440429688 c 0
 257.509765625 661.669921875 258.059570312 660.879882812 258.599609375 660.099609375 c 0
 262.83984375 653.889648438 266.169921875 647.6796875 269.379882812 641.6796875 c 0
 269.990234375 640.549804688 270.599609375 639.419921875 271.209960938 638.290039062 c 0
 274.1796875 632.8203125 277.4296875 627.099609375 281.139648438 622.389648438 c 0
 290.690429688 610.23046875 307.490234375 602.669921875 324.969726562 602.669921875 c 0
 341.309570312 602.669921875 355.16015625 608.33984375 366.129882812 619.509765625 c 0
 374.370117188 627.900390625 378.290039062 636.690429688 378.879882812 638.0703125 c 2
 421 622.26953125 l 2
EndSplineSet
Validated: 1
EndChar

StartChar: adieresis
Encoding: 228 228 161
Width: 500
Flags: HMW
LayerCount: 2
Fore
SplineSet
172.5 620.169921875 m 0
 172.5 635.357421875 184.8125 647.669921875 200 647.669921875 c 0
 215.1875 647.669921875 227.5 635.357421875 227.5 620.169921875 c 0
 227.5 604.982421875 215.1875 592.669921875 200 592.669921875 c 0
 184.8125 592.669921875 172.5 604.982421875 172.5 620.169921875 c 0
272.5 620.169921875 m 0
 272.5 635.357421875 284.8125 647.669921875 300 647.669921875 c 0
 315.1875 647.669921875 327.5 635.357421875 327.5 620.169921875 c 0
 327.5 604.982421875 315.1875 592.669921875 300 592.669921875 c 0
 284.8125 592.669921875 272.5 604.982421875 272.5 620.169921875 c 0
405 426.379882812 m 1
 405 490 l 1
 450 490 l 1
 450 300 l 1
 450 200 l 1
 450 10 l 1
 405 10 l 1
 405 73.6201171875 l 1
 397.450195312 64.3603515625 389.080078125 55.7900390625 380 48.01953125 c 0
 345.040039062 18.0703125 299.629882812 0 250 0 c 0
 200.370117188 0 154.959960938 18.0703125 120 48.01953125 c 0
 110.919921875 55.7900390625 102.549804688 64.3603515625 95 73.6201171875 c 0
 66.8603515625 108.059570312 50 152.059570312 50 200 c 2
 50 300 l 2
 50 347.940429688 66.8603515625 391.940429688 95 426.379882812 c 0
 102.549804688 435.639648438 110.919921875 444.209960938 120 451.98046875 c 0
 154.959960938 481.9296875 200.370117188 500 250 500 c 0
 299.629882812 500 345.040039062 481.9296875 380 451.98046875 c 0
 389.080078125 444.209960938 397.450195312 435.639648438 405 426.379882812 c 1
250 45 m 0
 335.599609375 45 405 114.400390625 405 200 c 2
 405 300 l 2
 405 385.599609375 335.599609375 455 250 455 c 0
 164.400390625 455 95 385.599609375 95 300 c 2
 95 200 l 2
 95 114.400390625 164.400390625 45 250 45 c 0
EndSplineSet
Validated: 1
EndChar

StartChar: aring
Encoding: 229 229 162
Width: 500
Flags: HMW
LayerCount: 2
Fore
SplineSet
337.5 615.169921875 m 0
 337.5 566.849609375 298.3203125 527.669921875 250 527.669921875 c 0
 201.6796875 527.669921875 162.5 566.849609375 162.5 615.169921875 c 0
 162.5 663.490234375 201.6796875 702.669921875 250 702.669921875 c 0
 298.3203125 702.669921875 337.5 663.490234375 337.5 615.169921875 c 0
195 615.169921875 m 0
 195 584.799804688 219.620117188 560.169921875 250 560.169921875 c 0
 280.379882812 560.169921875 305 584.790039062 305 615.169921875 c 0
 305 645.549804688 280.379882812 670.169921875 250 670.169921875 c 0
 219.620117188 670.169921875 195 645.549804688 195 615.169921875 c 0
405 426.379882812 m 1
 405 490 l 1
 450 490 l 1
 450 300 l 1
 450 200 l 1
 450 10 l 1
 405 10 l 1
 405 73.6201171875 l 1
 397.450195312 64.3603515625 389.080078125 55.7900390625 380 48.01953125 c 0
 345.040039062 18.0703125 299.629882812 0 250 0 c 0
 200.370117188 0 154.959960938 18.0703125 120 48.01953125 c 0
 110.919921875 55.7900390625 102.549804688 64.3603515625 95 73.6201171875 c 0
 66.8603515625 108.059570312 50 152.059570312 50 200 c 2
 50 300 l 2
 50 347.940429688 66.8603515625 391.940429688 95 426.379882812 c 0
 102.549804688 435.639648438 110.919921875 444.209960938 120 451.98046875 c 0
 154.959960938 481.9296875 200.370117188 500 250 500 c 0
 299.629882812 500 345.040039062 481.9296875 380 451.98046875 c 0
 389.080078125 444.209960938 397.450195312 435.639648438 405 426.379882812 c 1
250 45 m 0
 335.599609375 45 405 114.400390625 405 200 c 2
 405 300 l 2
 405 385.599609375 335.599609375 455 250 455 c 0
 164.400390625 455 95 385.599609375 95 300 c 2
 95 200 l 2
 95 114.400390625 164.400390625 45 250 45 c 0
EndSplineSet
Validated: 1
EndChar

StartChar: ae
Encoding: 230 230 163
Width: 855
Flags: HMW
LayerCount: 2
Fore
SplineSet
735 451.98046875 m 0
 777.849609375 415.309570312 805 360.830078125 805 300 c 2
 805 245 l 1
 805 200 l 1
 760 200 l 1
 450 200 l 1
 450 199.98046875 l 2
 450.009765625 114.389648438 519.41015625 45 605 45 c 0
 673.099609375 45 730.950195312 88.9296875 751.75 150 c 1
 798.690429688 150 l 1
 788.3203125 109.6796875 765.690429688 74.2802734375 735 48.01953125 c 0
 700.040039062 18.0703125 654.629882812 0 605 0 c 0
 555.370117188 0 509.959960938 18.0703125 475 48.01953125 c 0
 465.919921875 55.7900390625 457.559570312 64.3603515625 450 73.6201171875 c 1
 450 10 l 1
 405 10 l 1
 405 73.6201171875 l 1
 397.450195312 64.3603515625 389.080078125 55.7900390625 380 48.01953125 c 0
 345.040039062 18.0703125 299.629882812 0 250 0 c 0
 200.370117188 0 154.959960938 18.0703125 120 48.01953125 c 0
 110.919921875 55.7900390625 102.549804688 64.3603515625 95 73.6201171875 c 0
 66.8603515625 108.059570312 50 152.059570312 50 200 c 2
 50 300 l 2
 50 347.940429688 66.8603515625 391.940429688 95 426.379882812 c 0
 102.549804688 435.639648438 110.919921875 444.209960938 120 451.98046875 c 0
 154.959960938 481.9296875 200.370117188 500 250 500 c 0
 299.629882812 500 345.040039062 481.9296875 380 451.98046875 c 0
 389.080078125 444.209960938 397.450195312 435.639648438 405 426.379882812 c 1
 405 490 l 1
 450 490 l 1
 450 426.379882812 l 1
 457.559570312 435.639648438 465.919921875 444.209960938 475 451.98046875 c 0
 509.959960938 481.9296875 555.370117188 500 605 500 c 0
 654.629882812 500 700.040039062 481.9296875 735 451.98046875 c 0
250 45 m 0
 335.599609375 45 405 114.400390625 405 200 c 2
 405 245 l 1
 405 300 l 2
 405 385.599609375 335.599609375 455 250 455 c 0
 164.400390625 455 95 385.599609375 95 300 c 2
 95 200 l 2
 95 114.400390625 164.400390625 45 250 45 c 0
760 245 m 1
 760 300 l 2
 760 385.599609375 690.599609375 455 605 455 c 0
 519.41015625 455 450.009765625 385.610351562 450 300.01953125 c 2
 450 300 l 1
 450 245 l 1
 760 245 l 1
EndSplineSet
Validated: 1
EndChar

StartChar: ccedilla
Encoding: 231 231 164
Width: 500
Flags: HMW
LayerCount: 2
Fore
SplineSet
250 455 m 0
 164.400390625 455 95 385.599609375 95 300 c 2
 95 200 l 2
 95 114.400390625 164.400390625 45 250 45 c 0
 335.599609375 45 405 114.400390625 405 200 c 1
 450 200 l 1
 450 139.169921875 422.849609375 84.6904296875 380 48.01953125 c 0
 350.400390625 22.66015625 313.299804688 5.830078125 272.5 1.259765625 c 1
 272.5 -100 l 1
 227.5 -100 l 1
 227.5 1.259765625 l 1
 186.700195312 5.8203125 149.599609375 22.66015625 120 48.01953125 c 0
 77.150390625 84.6904296875 50 139.169921875 50 200 c 2
 50 300 l 2
 50 360.830078125 77.150390625 415.309570312 120 451.98046875 c 0
 154.959960938 481.9296875 200.370117188 500 250 500 c 0
 299.629882812 500 345.040039062 481.9296875 380 451.98046875 c 0
 422.849609375 415.309570312 450 360.830078125 450 300 c 1
 405 300 l 1
 405 385.599609375 335.599609375 455 250 455 c 0
EndSplineSet
Validated: 1
EndChar

StartChar: egrave
Encoding: 232 232 165
Width: 500
Flags: HMW
LayerCount: 2
Fore
SplineSet
295 537.669921875 m 1
 250 537.669921875 l 1
 205 702.669921875 l 1
 250 702.669921875 l 1
 295 537.669921875 l 1
380 451.98046875 m 0
 422.849609375 415.309570312 450 360.830078125 450 300 c 2
 450 245 l 1
 450 200 l 1
 405 200 l 1
 95 200 l 1
 95 114.400390625 164.400390625 45 250 45 c 0
 318.099609375 45 375.950195312 88.9296875 396.75 150 c 1
 443.690429688 150 l 1
 433.3203125 109.6796875 410.690429688 74.2802734375 380 48.01953125 c 0
 345.040039062 18.0703125 299.629882812 0 250 0 c 0
 200.370117188 0 154.959960938 18.0703125 120 48.01953125 c 0
 77.150390625 84.6904296875 50 139.169921875 50 200 c 2
 50 245 l 1
 50 300 l 2
 50 360.830078125 77.150390625 415.309570312 120 451.98046875 c 0
 154.959960938 481.9296875 200.370117188 500 250 500 c 0
 299.629882812 500 345.040039062 481.9296875 380 451.98046875 c 0
405 245 m 1
 405 300 l 2
 405 385.599609375 335.599609375 455 250 455 c 0
 164.400390625 455 95 385.599609375 95 300 c 2
 95 245 l 1
 405 245 l 1
EndSplineSet
Validated: 1
EndChar

StartChar: eacute
Encoding: 233 233 166
Width: 500
Flags: HMW
LayerCount: 2
Fore
SplineSet
295 700 m 1
 250 535 l 1
 205 535 l 1
 250 700 l 1
 295 700 l 1
380 451.98046875 m 0
 422.849609375 415.309570312 450 360.830078125 450 300 c 2
 450 245 l 1
 450 200 l 1
 405 200 l 1
 95 200 l 1
 95 114.400390625 164.400390625 45 250 45 c 0
 318.099609375 45 375.950195312 88.9296875 396.75 150 c 1
 443.690429688 150 l 1
 433.3203125 109.6796875 410.690429688 74.2802734375 380 48.01953125 c 0
 345.040039062 18.0703125 299.629882812 0 250 0 c 0
 200.370117188 0 154.959960938 18.0703125 120 48.01953125 c 0
 77.150390625 84.6904296875 50 139.169921875 50 200 c 2
 50 245 l 1
 50 300 l 2
 50 360.830078125 77.150390625 415.309570312 120 451.98046875 c 0
 154.959960938 481.9296875 200.370117188 500 250 500 c 0
 299.629882812 500 345.040039062 481.9296875 380 451.98046875 c 0
405 245 m 1
 405 300 l 2
 405 385.599609375 335.599609375 455 250 455 c 0
 164.400390625 455 95 385.599609375 95 300 c 2
 95 245 l 1
 405 245 l 1
EndSplineSet
Validated: 1
EndChar

StartChar: ecircumflex
Encoding: 234 234 167
Width: 500
Flags: HMW
LayerCount: 2
Fore
SplineSet
350 550 m 1
 250 645 l 1
 150 550 l 1
 150 605 l 1
 250 700 l 1
 350 605 l 1
 350 550 l 1
380 451.98046875 m 0
 422.849609375 415.309570312 450 360.830078125 450 300 c 2
 450 245 l 1
 450 200 l 1
 405 200 l 1
 95 200 l 1
 95 114.400390625 164.400390625 45 250 45 c 0
 318.099609375 45 375.950195312 88.9296875 396.75 150 c 1
 443.690429688 150 l 1
 433.3203125 109.6796875 410.690429688 74.2802734375 380 48.01953125 c 0
 345.040039062 18.0703125 299.629882812 0 250 0 c 0
 200.370117188 0 154.959960938 18.0703125 120 48.01953125 c 0
 77.150390625 84.6904296875 50 139.169921875 50 200 c 2
 50 245 l 1
 50 300 l 2
 50 360.830078125 77.150390625 415.309570312 120 451.98046875 c 0
 154.959960938 481.9296875 200.370117188 500 250 500 c 0
 299.629882812 500 345.040039062 481.9296875 380 451.98046875 c 0
405 245 m 1
 405 300 l 2
 405 385.599609375 335.599609375 455 250 455 c 0
 164.400390625 455 95 385.599609375 95 300 c 2
 95 245 l 1
 405 245 l 1
EndSplineSet
Validated: 1
EndChar

StartChar: edieresis
Encoding: 235 235 168
Width: 500
Flags: HMW
LayerCount: 2
Fore
SplineSet
172.5 617.5 m 0
 172.5 632.6875 184.8125 645 200 645 c 0
 215.1875 645 227.5 632.6875 227.5 617.5 c 0
 227.5 602.3125 215.1875 590 200 590 c 0
 184.8125 590 172.5 602.3125 172.5 617.5 c 0
272.5 617.5 m 0
 272.5 632.6875 284.8125 645 300 645 c 0
 315.1875 645 327.5 632.6875 327.5 617.5 c 0
 327.5 602.3125 315.1875 590 300 590 c 0
 284.8125 590 272.5 602.3125 272.5 617.5 c 0
380 451.98046875 m 0
 422.849609375 415.309570312 450 360.830078125 450 300 c 2
 450 245 l 1
 450 200 l 1
 405 200 l 1
 95 200 l 1
 95 114.400390625 164.400390625 45 250 45 c 0
 318.099609375 45 375.950195312 88.9296875 396.75 150 c 1
 443.690429688 150 l 1
 433.3203125 109.6796875 410.690429688 74.2802734375 380 48.01953125 c 0
 345.040039062 18.0703125 299.629882812 0 250 0 c 0
 200.370117188 0 154.959960938 18.0703125 120 48.01953125 c 0
 77.150390625 84.6904296875 50 139.169921875 50 200 c 2
 50 245 l 1
 50 300 l 2
 50 360.830078125 77.150390625 415.309570312 120 451.98046875 c 0
 154.959960938 481.9296875 200.370117188 500 250 500 c 0
 299.629882812 500 345.040039062 481.9296875 380 451.98046875 c 0
405 245 m 1
 405 300 l 2
 405 385.599609375 335.599609375 455 250 455 c 0
 164.400390625 455 95 385.599609375 95 300 c 2
 95 245 l 1
 405 245 l 1
EndSplineSet
Validated: 1
EndChar

StartChar: igrave
Encoding: 236 236 169
Width: 190
Flags: HMW
LayerCount: 2
Fore
SplineSet
50 700 m 1
 95 700 l 1
 140 535 l 1
 95 535 l 1
 50 700 l 1
72.5 10 m 1
 72.5 490 l 1
 117.5 490 l 1
 117.5 10 l 1
 72.5 10 l 1
EndSplineSet
Validated: 1
EndChar

StartChar: iacute
Encoding: 237 237 170
Width: 190
Flags: HMW
LayerCount: 2
Fore
SplineSet
95 700 m 1
 140 700 l 1
 95 535 l 1
 50 535 l 1
 95 700 l 1
72.5 10 m 1
 72.5 490 l 1
 117.5 490 l 1
 117.5 10 l 1
 72.5 10 l 1
EndSplineSet
Validated: 1
EndChar

StartChar: icircumflex
Encoding: 238 238 171
Width: 300
Flags: HMW
LayerCount: 2
Fore
SplineSet
250 605 m 1
 250 550 l 1
 150 645 l 1
 50 550 l 1
 50 605 l 1
 150 700 l 1
 250 605 l 1
127.5 10 m 1
 127.5 490 l 1
 172.5 490 l 1
 172.5 10 l 1
 127.5 10 l 1
EndSplineSet
Validated: 1
EndChar

StartChar: idieresis
Encoding: 239 239 172
Width: 255
Flags: HMW
LayerCount: 2
Fore
SplineSet
50 617.5 m 0
 50 632.6875 62.3125 645 77.5 645 c 0
 92.6875 645 105 632.6875 105 617.5 c 0
 105 602.3125 92.6875 590 77.5 590 c 0
 62.3125 590 50 602.3125 50 617.5 c 0
150 617.5 m 0
 150 632.6875 162.3125 645 177.5 645 c 0
 192.6875 645 205 632.6875 205 617.5 c 0
 205 602.3125 192.6875 590 177.5 590 c 0
 162.3125 590 150 602.3125 150 617.5 c 0
105 10 m 1
 105 490 l 1
 150 490 l 1
 150 10 l 1
 105 10 l 1
EndSplineSet
Validated: 1
EndChar

StartChar: eth
Encoding: 240 240 173
Width: 578
Flags: HMW
LayerCount: 2
Fore
SplineSet
450 790 m 1
 450 635 l 1
 527.5 635 l 1
 527.5 590 l 1
 450 590 l 1
 450 300 l 1
 450 200 l 1
 450 10 l 1
 405 10 l 1
 405 73.6201171875 l 1
 397.440429688 64.3603515625 389.080078125 55.7900390625 380 48.01953125 c 0
 345.040039062 18.0703125 299.629882812 0 250 0 c 0
 200.370117188 0 154.959960938 18.0703125 120 48.01953125 c 0
 77.150390625 84.6904296875 50 139.169921875 50 200 c 2
 50 300 l 2
 50 360.830078125 77.150390625 415.309570312 120 451.98046875 c 0
 154.959960938 481.9296875 200.370117188 500 250 500 c 0
 299.629882812 500 345.040039062 481.9296875 380 451.98046875 c 0
 389.080078125 444.209960938 397.440429688 435.639648438 405 426.379882812 c 1
 405 590 l 1
 327.5 590 l 1
 327.5 635 l 1
 405 635 l 1
 405 790 l 1
 450 790 l 1
250 45 m 0
 335.599609375 45 405 114.400390625 405 200 c 2
 405 300 l 2
 405 385.599609375 335.599609375 455 250 455 c 0
 164.400390625 455 95 385.599609375 95 300 c 2
 95 200 l 2
 95 114.400390625 164.400390625 45 250 45 c 0
EndSplineSet
EndChar

StartChar: ntilde
Encoding: 241 241 174
Width: 500
Flags: HMW
LayerCount: 2
Fore
SplineSet
380 451.98046875 m 0
 422.849609375 415.309570312 450 360.830078125 450 300 c 2
 450 10 l 1
 405 10 l 1
 405 200 l 1
 405 300 l 2
 405 385.599609375 335.599609375 455 250 455 c 0
 164.400390625 455 95 385.599609375 95 300 c 2
 95 200 l 1
 95 10 l 1
 50 10 l 1
 50 300 l 1
 50 490 l 1
 95 490 l 1
 95 426.379882812 l 1
 102.559570312 435.639648438 110.919921875 444.209960938 120 451.98046875 c 0
 154.959960938 481.9296875 200.370117188 500 250 500 c 0
 299.629882812 500 345.040039062 481.9296875 380 451.98046875 c 0
421 619.599609375 m 2
 420.360351562 617.889648438 414.3203125 602.450195312 399.950195312 587.110351562 c 0
 380.259765625 566.099609375 354.330078125 555 324.969726562 555 c 0
 293.530273438 555 263.9296875 568.799804688 245.76953125 591.91015625 c 0
 239.990234375 599.259765625 235.580078125 606.950195312 231.669921875 614.169921875 c 0
 231.01953125 615.349609375 230.379882812 616.549804688 229.75 617.740234375 c 0
 226.969726562 622.919921875 224.33984375 627.8203125 221.450195312 632.049804688 c 0
 221.150390625 632.490234375 220.83984375 632.9296875 220.530273438 633.360351562 c 0
 211 646.509765625 193.139648438 655 175.030273438 655 c 0
 158.690429688 655 144.83984375 649.330078125 133.870117188 638.16015625 c 0
 125.629882812 629.76953125 121.709960938 620.98046875 121.120117188 619.599609375 c 2
 79 635.400390625 l 2
 79.6396484375 637.110351562 85.6796875 652.549804688 100.049804688 667.889648438 c 0
 119.740234375 688.900390625 145.669921875 700 175.030273438 700 c 0
 207.580078125 700 238.959960938 684.58984375 256.950195312 659.76953125 c 0
 257.509765625 659 258.059570312 658.209960938 258.599609375 657.4296875 c 0
 262.83984375 651.219726562 266.169921875 645.009765625 269.379882812 639.009765625 c 0
 269.990234375 637.879882812 270.599609375 636.75 271.209960938 635.620117188 c 0
 274.1796875 630.150390625 277.4296875 624.4296875 281.139648438 619.719726562 c 0
 290.690429688 607.559570312 307.490234375 600 324.969726562 600 c 0
 341.309570312 600 355.16015625 605.669921875 366.129882812 616.83984375 c 0
 374.370117188 625.23046875 378.290039062 634.01953125 378.879882812 635.400390625 c 2
 421 619.599609375 l 2
EndSplineSet
Validated: 1
EndChar

StartChar: ograve
Encoding: 242 242 175
Width: 500
Flags: HMW
LayerCount: 2
Fore
SplineSet
295 535 m 1
 250 535 l 1
 205 700 l 1
 250 700 l 1
 295 535 l 1
380 451.98046875 m 0
 422.849609375 415.309570312 450 360.830078125 450 300 c 2
 450 200 l 2
 450 139.169921875 422.849609375 84.6904296875 380 48.01953125 c 0
 345.040039062 18.0703125 299.629882812 0 250 0 c 0
 200.370117188 0 154.959960938 18.0703125 120 48.01953125 c 0
 77.150390625 84.6904296875 50 139.169921875 50 200 c 2
 50 300 l 2
 50 360.830078125 77.150390625 415.309570312 120 451.98046875 c 0
 154.959960938 481.9296875 200.370117188 500 250 500 c 0
 299.629882812 500 345.040039062 481.9296875 380 451.98046875 c 0
405 200 m 2
 405 300 l 2
 405 385.599609375 335.599609375 455 250 455 c 0
 164.400390625 455 95 385.599609375 95 300 c 2
 95 200 l 2
 95 114.400390625 164.400390625 45 250 45 c 0
 335.599609375 45 405 114.400390625 405 200 c 2
EndSplineSet
Validated: 1
EndChar

StartChar: oacute
Encoding: 243 243 176
Width: 500
Flags: HMW
LayerCount: 2
Fore
SplineSet
295 700 m 1
 250 535 l 1
 205 535 l 1
 250 700 l 1
 295 700 l 1
380 451.98046875 m 0
 422.849609375 415.309570312 450 360.830078125 450 300 c 2
 450 200 l 2
 450 139.169921875 422.849609375 84.6904296875 380 48.01953125 c 0
 345.040039062 18.0703125 299.629882812 0 250 0 c 0
 200.370117188 0 154.959960938 18.0703125 120 48.01953125 c 0
 77.150390625 84.6904296875 50 139.169921875 50 200 c 2
 50 300 l 2
 50 360.830078125 77.150390625 415.309570312 120 451.98046875 c 0
 154.959960938 481.9296875 200.370117188 500 250 500 c 0
 299.629882812 500 345.040039062 481.9296875 380 451.98046875 c 0
405 200 m 2
 405 300 l 2
 405 385.599609375 335.599609375 455 250 455 c 0
 164.400390625 455 95 385.599609375 95 300 c 2
 95 200 l 2
 95 114.400390625 164.400390625 45 250 45 c 0
 335.599609375 45 405 114.400390625 405 200 c 2
EndSplineSet
Validated: 1
EndChar

StartChar: ocircumflex
Encoding: 244 244 177
Width: 500
Flags: HMW
LayerCount: 2
Fore
SplineSet
350 550 m 1
 250 645 l 1
 150 550 l 1
 150 605 l 1
 250 700 l 1
 350 605 l 1
 350 550 l 1
380 451.98046875 m 0
 422.849609375 415.309570312 450 360.830078125 450 300 c 2
 450 200 l 2
 450 139.169921875 422.849609375 84.6904296875 380 48.01953125 c 0
 345.040039062 18.0703125 299.629882812 0 250 0 c 0
 200.370117188 0 154.959960938 18.0703125 120 48.01953125 c 0
 77.150390625 84.6904296875 50 139.169921875 50 200 c 2
 50 300 l 2
 50 360.830078125 77.150390625 415.309570312 120 451.98046875 c 0
 154.959960938 481.9296875 200.370117188 500 250 500 c 0
 299.629882812 500 345.040039062 481.9296875 380 451.98046875 c 0
405 200 m 2
 405 300 l 2
 405 385.599609375 335.599609375 455 250 455 c 0
 164.400390625 455 95 385.599609375 95 300 c 2
 95 200 l 2
 95 114.400390625 164.400390625 45 250 45 c 0
 335.599609375 45 405 114.400390625 405 200 c 2
EndSplineSet
Validated: 1
EndChar

StartChar: otilde
Encoding: 245 245 178
Width: 500
Flags: HMW
LayerCount: 2
Fore
SplineSet
380 451.98046875 m 0
 422.849609375 415.309570312 450 360.830078125 450 300 c 2
 450 200 l 2
 450 139.169921875 422.849609375 84.6904296875 380 48.01953125 c 0
 345.040039062 18.0703125 299.629882812 0 250 0 c 0
 200.370117188 0 154.959960938 18.0703125 120 48.01953125 c 0
 77.150390625 84.6904296875 50 139.169921875 50 200 c 2
 50 300 l 2
 50 360.830078125 77.150390625 415.309570312 120 451.98046875 c 0
 154.959960938 481.9296875 200.370117188 500 250 500 c 0
 299.629882812 500 345.040039062 481.9296875 380 451.98046875 c 0
405 200 m 2
 405 300 l 2
 405 385.599609375 335.599609375 455 250 455 c 0
 164.400390625 455 95 385.599609375 95 300 c 2
 95 200 l 2
 95 114.400390625 164.400390625 45 250 45 c 0
 335.599609375 45 405 114.400390625 405 200 c 2
421 619.599609375 m 2
 420.360351562 617.889648438 414.3203125 602.450195312 399.950195312 587.110351562 c 0
 380.259765625 566.099609375 354.330078125 555 324.969726562 555 c 0
 293.530273438 555 263.9296875 568.799804688 245.76953125 591.91015625 c 0
 239.990234375 599.259765625 235.580078125 606.950195312 231.669921875 614.169921875 c 0
 231.01953125 615.349609375 230.379882812 616.549804688 229.75 617.740234375 c 0
 226.969726562 622.919921875 224.33984375 627.8203125 221.450195312 632.049804688 c 0
 221.150390625 632.490234375 220.83984375 632.9296875 220.530273438 633.360351562 c 0
 211 646.509765625 193.139648438 655 175.030273438 655 c 0
 158.690429688 655 144.83984375 649.330078125 133.870117188 638.16015625 c 0
 125.629882812 629.76953125 121.709960938 620.98046875 121.120117188 619.599609375 c 2
 79 635.400390625 l 2
 79.6396484375 637.110351562 85.6796875 652.549804688 100.049804688 667.889648438 c 0
 119.740234375 688.900390625 145.669921875 700 175.030273438 700 c 0
 207.580078125 700 238.959960938 684.58984375 256.950195312 659.76953125 c 0
 257.509765625 659 258.059570312 658.209960938 258.599609375 657.4296875 c 0
 262.83984375 651.219726562 266.169921875 645.009765625 269.379882812 639.009765625 c 0
 269.990234375 637.879882812 270.599609375 636.75 271.209960938 635.620117188 c 0
 274.1796875 630.150390625 277.4296875 624.4296875 281.139648438 619.719726562 c 0
 290.690429688 607.559570312 307.490234375 600 324.969726562 600 c 0
 341.309570312 600 355.16015625 605.669921875 366.129882812 616.83984375 c 0
 374.370117188 625.23046875 378.290039062 634.01953125 378.879882812 635.400390625 c 2
 421 619.599609375 l 2
EndSplineSet
Validated: 1
EndChar

StartChar: odieresis
Encoding: 246 246 179
Width: 500
Flags: HMW
LayerCount: 2
Fore
SplineSet
172.5 617.5 m 0
 172.5 632.6875 184.8125 645 200 645 c 0
 215.1875 645 227.5 632.6875 227.5 617.5 c 0
 227.5 602.3125 215.1875 590 200 590 c 0
 184.8125 590 172.5 602.3125 172.5 617.5 c 0
272.5 617.5 m 0
 272.5 632.6875 284.8125 645 300 645 c 0
 315.1875 645 327.5 632.6875 327.5 617.5 c 0
 327.5 602.3125 315.1875 590 300 590 c 0
 284.8125 590 272.5 602.3125 272.5 617.5 c 0
380 451.98046875 m 0
 422.849609375 415.309570312 450 360.830078125 450 300 c 2
 450 200 l 2
 450 139.169921875 422.849609375 84.6904296875 380 48.01953125 c 0
 345.040039062 18.0703125 299.629882812 0 250 0 c 0
 200.370117188 0 154.959960938 18.0703125 120 48.01953125 c 0
 77.150390625 84.6904296875 50 139.169921875 50 200 c 2
 50 300 l 2
 50 360.830078125 77.150390625 415.309570312 120 451.98046875 c 0
 154.959960938 481.9296875 200.370117188 500 250 500 c 0
 299.629882812 500 345.040039062 481.9296875 380 451.98046875 c 0
405 200 m 2
 405 300 l 2
 405 385.599609375 335.599609375 455 250 455 c 0
 164.400390625 455 95 385.599609375 95 300 c 2
 95 200 l 2
 95 114.400390625 164.400390625 45 250 45 c 0
 335.599609375 45 405 114.400390625 405 200 c 2
EndSplineSet
Validated: 1
EndChar

StartChar: divide
Encoding: 247 247 180
Width: 500
Flags: HMW
LayerCount: 2
Fore
SplineSet
50 345 m 1
 50 390 l 1
 450 390 l 1
 450 345 l 1
 50 345 l 1
222.5 515 m 0
 222.5 530.1875 234.8125 542.5 250 542.5 c 0
 265.1875 542.5 277.5 530.1875 277.5 515 c 0
 277.5 499.8125 265.1875 487.5 250 487.5 c 0
 234.8125 487.5 222.5 499.8125 222.5 515 c 0
222.5 220 m 0
 222.5 235.1875 234.8125 247.5 250 247.5 c 0
 265.1875 247.5 277.5 235.1875 277.5 220 c 0
 277.5 204.8125 265.1875 192.5 250 192.5 c 0
 234.8125 192.5 222.5 204.8125 222.5 220 c 0
EndSplineSet
Validated: 1
EndChar

StartChar: oslash
Encoding: 248 248 181
Width: 500
Flags: HMW
LayerCount: 2
Fore
SplineSet
448.469726562 403.6796875 m 1
 430.25 386.75 l 1
 442.91015625 360.509765625 450.009765625 331.08984375 450.009765625 300 c 2
 450.009765625 200 l 2
 450.009765625 139.169921875 422.860351562 84.6904296875 380.009765625 48.01953125 c 0
 345.049804688 18.0703125 299.639648438 0 250.009765625 0 c 0
 200.379882812 0 154.969726562 18.0703125 120.009765625 48.01953125 c 0
 110.620117188 56.0498046875 101.990234375 64.9404296875 94.23046875 74.5595703125 c 1
 82.169921875 63.349609375 l 1
 51.5400390625 96.3203125 l 1
 69.759765625 113.25 l 1
 57.099609375 139.490234375 50 168.91015625 50 200 c 2
 50 300 l 2
 50 360.830078125 77.150390625 415.309570312 120 451.98046875 c 0
 154.959960938 481.9296875 200.370117188 500 250 500 c 0
 299.629882812 500 345.040039062 481.9296875 380 451.98046875 c 0
 389.389648438 443.950195312 398.01953125 435.059570312 405.780273438 425.440429688 c 1
 417.83984375 436.650390625 l 1
 448.469726562 403.6796875 l 1
95 200 m 2
 95 180.919921875 98.4599609375 162.650390625 104.759765625 145.76953125 c 1
 372.700195312 394.709960938 l 1
 344.349609375 431.379882812 299.9296875 455 250 455 c 0
 164.400390625 455 95 385.599609375 95 300 c 2
 95 200 l 2
405 300 m 2
 405 319.080078125 401.540039062 337.349609375 395.240234375 354.219726562 c 1
 127.299804688 105.290039062 l 1
 155.650390625 68.6201171875 200.0703125 45 250 45 c 0
 335.599609375 45 405 114.400390625 405 200 c 2
 405 300 l 2
EndSplineSet
EndChar

StartChar: ugrave
Encoding: 249 249 182
Width: 500
Flags: HMW
LayerCount: 2
Fore
SplineSet
250 535 m 1
 205 700 l 1
 250 700 l 1
 295 535 l 1
 250 535 l 1
405 199.969726562 m 2
 405 489.969726562 l 1
 450 489.969726562 l 1
 450 199.969726562 l 2
 450 152.01953125 433.129882812 108.01953125 405 73.580078125 c 0
 397.440429688 64.3203125 389.0703125 55.759765625 380 47.990234375 c 0
 345.040039062 18.0400390625 299.629882812 -0.0302734375 250 -0.0302734375 c 0
 200.370117188 -0.0302734375 154.959960938 18.0400390625 120 47.990234375 c 0
 77.150390625 84.66015625 50 139.139648438 50 199.969726562 c 2
 50 489.969726562 l 1
 95 489.969726562 l 1
 95 199.969726562 l 2
 95 114.370117188 164.400390625 44.9697265625 250 44.9697265625 c 0
 335.599609375 44.9697265625 405 114.370117188 405 199.969726562 c 2
EndSplineSet
Validated: 1
EndChar

StartChar: uacute
Encoding: 250 250 183
Width: 500
Flags: HMW
LayerCount: 2
Fore
SplineSet
250 535 m 1
 205 535 l 1
 250 700 l 1
 295 700 l 1
 250 535 l 1
405 199.969726562 m 2
 405 489.969726562 l 1
 450 489.969726562 l 1
 450 199.969726562 l 2
 450 152.01953125 433.129882812 108.01953125 405 73.580078125 c 0
 397.440429688 64.3203125 389.0703125 55.759765625 380 47.990234375 c 0
 345.040039062 18.0400390625 299.629882812 -0.0302734375 250 -0.0302734375 c 0
 200.370117188 -0.0302734375 154.959960938 18.0400390625 120 47.990234375 c 0
 77.150390625 84.66015625 50 139.139648438 50 199.969726562 c 2
 50 489.969726562 l 1
 95 489.969726562 l 1
 95 199.969726562 l 2
 95 114.370117188 164.400390625 44.9697265625 250 44.9697265625 c 0
 335.599609375 44.9697265625 405 114.370117188 405 199.969726562 c 2
EndSplineSet
Validated: 1
EndChar

StartChar: ucircumflex
Encoding: 251 251 184
Width: 500
Flags: HMW
LayerCount: 2
Fore
SplineSet
350 550 m 1
 250 645 l 1
 150 550 l 1
 150 605 l 1
 250 700 l 1
 350 605 l 1
 350 550 l 1
405 199.969726562 m 2
 405 489.969726562 l 1
 450 489.969726562 l 1
 450 199.969726562 l 2
 450 152.01953125 433.129882812 108.01953125 405 73.580078125 c 0
 397.440429688 64.3203125 389.0703125 55.759765625 380 47.990234375 c 0
 345.040039062 18.0400390625 299.629882812 -0.0302734375 250 -0.0302734375 c 0
 200.370117188 -0.0302734375 154.959960938 18.0400390625 120 47.990234375 c 0
 77.150390625 84.66015625 50 139.139648438 50 199.969726562 c 2
 50 489.969726562 l 1
 95 489.969726562 l 1
 95 199.969726562 l 2
 95 114.370117188 164.400390625 44.9697265625 250 44.9697265625 c 0
 335.599609375 44.9697265625 405 114.370117188 405 199.969726562 c 2
EndSplineSet
Validated: 1
EndChar

StartChar: udieresis
Encoding: 252 252 185
Width: 500
Flags: HMW
LayerCount: 2
Fore
SplineSet
172.5 617.5 m 0
 172.5 632.6875 184.8125 645 200 645 c 0
 215.1875 645 227.5 632.6875 227.5 617.5 c 0
 227.5 602.3125 215.1875 590 200 590 c 0
 184.8125 590 172.5 602.3125 172.5 617.5 c 0
272.5 617.5 m 0
 272.5 632.6875 284.8125 645 300 645 c 0
 315.1875 645 327.5 632.6875 327.5 617.5 c 0
 327.5 602.3125 315.1875 590 300 590 c 0
 284.8125 590 272.5 602.3125 272.5 617.5 c 0
405 199.969726562 m 2
 405 489.969726562 l 1
 450 489.969726562 l 1
 450 199.969726562 l 2
 450 152.01953125 433.129882812 108.01953125 405 73.580078125 c 0
 397.440429688 64.3203125 389.0703125 55.759765625 380 47.990234375 c 0
 345.040039062 18.0400390625 299.629882812 -0.0302734375 250 -0.0302734375 c 0
 200.370117188 -0.0302734375 154.959960938 18.0400390625 120 47.990234375 c 0
 77.150390625 84.66015625 50 139.139648438 50 199.969726562 c 2
 50 489.969726562 l 1
 95 489.969726562 l 1
 95 199.969726562 l 2
 95 114.370117188 164.400390625 44.9697265625 250 44.9697265625 c 0
 335.599609375 44.9697265625 405 114.370117188 405 199.969726562 c 2
EndSplineSet
Validated: 1
EndChar

StartChar: yacute
Encoding: 253 253 186
Width: 500
Flags: HMW
LayerCount: 2
Fore
SplineSet
295 700 m 1
 250 535 l 1
 205 535 l 1
 250 700 l 1
 295 700 l 1
405 426.379882812 m 1
 405 490 l 1
 450 490 l 1
 450 300 l 1
 450 200 l 1
 450 100 l 1
 450 0 l 2
 450 -47.9404296875 433.139648438 -91.9404296875 405 -126.379882812 c 0
 397.450195312 -135.639648438 389.080078125 -144.209960938 380 -151.98046875 c 0
 345.040039062 -181.9296875 299.629882812 -200 250 -200 c 0
 200.370117188 -200 154.959960938 -181.9296875 120 -151.98046875 c 0
 89.3095703125 -125.719726562 66.6796875 -90.3203125 56.3095703125 -50 c 1
 103.25 -50 l 1
 124.049804688 -111.0703125 181.900390625 -155 250 -155 c 0
 335.599609375 -155 405 -85.599609375 405 0 c 2
 405 73.6201171875 l 1
 397.450195312 64.3603515625 389.080078125 55.7900390625 380 48.01953125 c 0
 345.040039062 18.0703125 299.629882812 0 250 0 c 0
 200.370117188 0 154.959960938 18.0703125 120 48.01953125 c 0
 110.919921875 55.7900390625 102.549804688 64.3603515625 95 73.6201171875 c 0
 76.990234375 95.650390625 63.6103515625 121.599609375 56.3095703125 150 c 0
 52.1904296875 165.98046875 50 182.73046875 50 200 c 2
 50 300 l 1
 50 490 l 1
 95 490 l 1
 95 426.379882812 l 1
 95 226.379882812 l 1
 95 200 l 2
 95 182.5 97.900390625 165.690429688 103.240234375 150 c 0
 124.049804688 88.9296875 181.900390625 45 250 45 c 0
 318.099609375 45 375.950195312 88.9296875 396.759765625 150 c 0
 402.099609375 165.690429688 405 182.5 405 200 c 2
 405 226.379882812 l 1
 405 426.379882812 l 1
EndSplineSet
Validated: 1
EndChar

StartChar: thorn
Encoding: 254 254 187
Width: 500
Flags: HMW
LayerCount: 2
Fore
SplineSet
380 346.98046875 m 0
 422.849609375 310.309570312 450 255.830078125 450 195 c 2
 450 95 l 2
 450 34.169921875 422.849609375 -20.3095703125 380 -56.98046875 c 0
 345.040039062 -86.9296875 299.629882812 -105 250 -105 c 0
 200.370117188 -105 154.959960938 -86.9296875 120 -56.98046875 c 0
 110.919921875 -49.2099609375 102.559570312 -40.6396484375 95 -31.3798828125 c 1
 95 -200 l 1
 50 -200 l 1
 50 95 l 1
 50 195 l 1
 50 490 l 1
 95 490 l 1
 95 321.379882812 l 1
 102.559570312 330.639648438 110.919921875 339.209960938 120 346.98046875 c 0
 154.959960938 376.9296875 200.370117188 395 250 395 c 0
 299.629882812 395 345.040039062 376.9296875 380 346.98046875 c 0
405 95 m 2
 405 195 l 2
 405 280.599609375 335.599609375 350 250 350 c 0
 164.400390625 350 95 280.599609375 95 195 c 2
 95 95 l 2
 95 9.400390625 164.400390625 -60 250 -60 c 0
 335.599609375 -60 405 9.400390625 405 95 c 2
EndSplineSet
Validated: 1
EndChar

StartChar: ydieresis
Encoding: 255 255 188
Width: 500
Flags: HMW
LayerCount: 2
Fore
SplineSet
172.5 617.5 m 0
 172.5 632.6875 184.8125 645 200 645 c 0
 215.1875 645 227.5 632.6875 227.5 617.5 c 0
 227.5 602.3125 215.1875 590 200 590 c 0
 184.8125 590 172.5 602.3125 172.5 617.5 c 0
272.5 617.5 m 0
 272.5 632.6875 284.8125 645 300 645 c 0
 315.1875 645 327.5 632.6875 327.5 617.5 c 0
 327.5 602.3125 315.1875 590 300 590 c 0
 284.8125 590 272.5 602.3125 272.5 617.5 c 0
405 426.379882812 m 1
 405 490 l 1
 450 490 l 1
 450 300 l 1
 450 200 l 1
 450 100 l 1
 450 0 l 2
 450 -47.9404296875 433.139648438 -91.9404296875 405 -126.379882812 c 0
 397.450195312 -135.639648438 389.080078125 -144.209960938 380 -151.98046875 c 0
 345.040039062 -181.9296875 299.629882812 -200 250 -200 c 0
 200.370117188 -200 154.959960938 -181.9296875 120 -151.98046875 c 0
 89.3095703125 -125.719726562 66.6796875 -90.3203125 56.3095703125 -50 c 1
 103.25 -50 l 1
 124.049804688 -111.0703125 181.900390625 -155 250 -155 c 0
 335.599609375 -155 405 -85.599609375 405 0 c 2
 405 73.6201171875 l 1
 397.450195312 64.3603515625 389.080078125 55.7900390625 380 48.01953125 c 0
 345.040039062 18.0703125 299.629882812 0 250 0 c 0
 200.370117188 0 154.959960938 18.0703125 120 48.01953125 c 0
 110.919921875 55.7900390625 102.549804688 64.3603515625 95 73.6201171875 c 0
 76.990234375 95.650390625 63.6103515625 121.599609375 56.3095703125 150 c 0
 52.1904296875 165.98046875 50 182.73046875 50 200 c 2
 50 300 l 1
 50 490 l 1
 95 490 l 1
 95 426.379882812 l 1
 95 226.379882812 l 1
 95 200 l 2
 95 182.5 97.900390625 165.690429688 103.240234375 150 c 0
 124.049804688 88.9296875 181.900390625 45 250 45 c 0
 318.099609375 45 375.950195312 88.9296875 396.759765625 150 c 0
 402.099609375 165.690429688 405 182.5 405 200 c 2
 405 226.379882812 l 1
 405 426.379882812 l 1
EndSplineSet
Validated: 1
EndChar

